<?xml version="1.0" standalone="no"?>
<!DOCTYPE svg PUBLIC "-//W3C//DTD SVG 1.1//EN" "http://www.w3.org/Graphics/SVG/1.1/DTD/svg11.dtd" >
<svg xmlns="http://www.w3.org/2000/svg">
<metadata></metadata>
<defs>
<font id="block_bertholdregular" horiz-adv-x="1067" >
<font-face units-per-em="2048" ascent="1638" descent="-410" />
<missing-glyph horiz-adv-x="598" />
<glyph horiz-adv-x="0" />
<glyph unicode="&#xd;" horiz-adv-x="598" />
<glyph unicode=" "  horiz-adv-x="598" />
<glyph unicode="&#x09;" horiz-adv-x="598" />
<glyph unicode="&#xa0;" horiz-adv-x="598" />
<glyph unicode="!" horiz-adv-x="555" d="M223 1440q6 0 32 -2t34 -2q10 0 39.5 2t40.5 2q41 0 54 -18.5t17 -26.5q2 -4 3 -10.5t1 -17.5v-31.5v-53.5q0 -12 -1 -24.5t-7 -55.5q-2 -8 -3 -31.5t-3 -50t-3 -50t-1 -34.5q-2 -27 -4 -53.5t-4 -54.5q0 -8 -1 -27.5t-2 -43t-2 -44t-3 -29.5q-4 -41 -6.5 -58t-2.5 -30 q0 -6 -2 -27.5t-3 -44t-3 -42.5l-2 -19q-2 -16 -2 -34.5t-2 -36.5q-4 -37 -10 -59.5t-18.5 -35t-36 -16.5t-64.5 -4q-27 0 -47.5 10t-24.5 16q-2 2 -6 32t-8 67t-8 70.5t-6 45.5q-2 10 -3 19.5t-3 19.5q-4 23 -3 43.5t-4 42.5q0 12 -3 44t-7 67t-7 67.5t-3 45.5v27.5 t-2 27.5q0 6 -2 21.5t-4 33t-4 32.5t-2 21l-5 99q0 6 -3 28.5t-3 28.5q-2 10 -2 27.5v40.5q0 12 1 27.5t7.5 27.5t18.5 21.5t37 9.5h61zM332 317q4 0 16 1t17 1l10 -1t22.5 -6t21.5 -17t9 -35v-15.5t1 -25.5t1 -26.5v-16.5q0 -6 -1 -20.5t-1 -30.5t-1 -30.5t-1 -20.5 q0 -8 -1 -20.5t-6 -25t-14.5 -20.5t-25.5 -8q-4 0 -21.5 2t-21.5 2t-17.5 -1t-28 -1t-26.5 -1t-18 -1q-53 0 -92 8t-39 55v29t-2 29v27.5t1 41t1 41v27.5q0 25 9 38t22.5 18t27.5 5h27h18h25.5h26h18.5q4 0 21.5 -1t21.5 -1z" />
<glyph unicode="&#x22;" horiz-adv-x="894" d="M705 836h-64l-113 512q-4 16 -4 30.5v16.5q0 39 15.5 65.5t38 43t49 23.5t51.5 7q18 0 42.5 -6t46 -20.5t36 -40t14.5 -64.5v-14.5t-4 -18.5zM279 836h-64l-113 512q-4 16 -4 30.5v16.5q0 39 15.5 65.5t38 43t49 23.5t51.5 7q18 0 42.5 -6t46 -20.5t36 -40t14.5 -64.5 v-14.5t-4 -18.5z" />
<glyph unicode="$" horiz-adv-x="894" d="M66 195v13t2 13q2 10 3 20.5t1 20.5q0 6 -1 28.5t-1 31.5q0 29 31.5 36t78.5 7q10 0 31.5 -5.5t32.5 -9.5q10 -4 19 -6t20 -6q6 0 19 -1t28.5 -1h30h20.5q37 0 50 6t32 23q14 10 23.5 25.5t9.5 51.5q0 47 -27 82q-4 4 -13.5 14.5t-21.5 20.5t-22.5 20.5l-14.5 14.5 q-12 12 -18 17t-27 16q-14 8 -32.5 23.5t-36 30.5t-28.5 27l-11 11q-14 12 -20.5 19t-24.5 24q-27 23 -45.5 47.5t-30.5 46t-19.5 35.5t-7.5 16q-23 76 -28 111t-5 59q0 20 2.5 57t6.5 56q8 35 28 76q4 8 8.5 16t8.5 16q4 10 22.5 30t28.5 30q18 18 46 33.5t54 27.5 q31 12 66 25q4 2 9 2t9 2q4 4 6 23.5t2 23.5q0 6 -1 31.5t-1 34.5q0 8 7.5 29.5t37.5 21.5q6 0 26 -2t26 -2t27.5 1t29.5 1q16 0 31.5 -5.5t15.5 -33.5q0 -8 -2 -34t-2 -30t1 -16t1 -16q0 -10 12 -11q2 0 7.5 1t7.5 1q6 0 29.5 -3t52 -8t57.5 -12t45 -16q23 -10 27 -19 t2 -26v-20v-29.5v-29v-15.5q0 -4 -1 -18.5t-1 -18.5q0 -6 1 -30.5t1 -32.5q0 -16 -9.5 -27.5t-21.5 -18.5t-26.5 -10.5t-22.5 -3.5t-41 9q-8 2 -30.5 4t-46.5 5t-43 5l-19 2q-6 0 -24.5 -3t-38 -13.5t-34 -28.5t-14.5 -47q0 -20 9 -45t32 -47q6 -6 24.5 -20.5t39 -30t39 -30 t24.5 -20.5q6 -8 14 -14q4 -4 8.5 -5t8.5 -5q4 -2 7 -5t7 -8q16 -20 25.5 -28t35.5 -31q20 -18 47 -46t50.5 -68t40 -94t16.5 -126q0 -29 -2 -65.5t-8 -57.5q-12 -25 -21 -47l-20 -49q-2 -2 -11.5 -13t-19.5 -25.5t-20.5 -28t-12.5 -17.5q-16 -16 -43.5 -38.5t-33.5 -26.5 q-12 -8 -28 -16.5t-29 -14.5t-23.5 -10t-12.5 -4q-12 -4 -16 -7.5t-4 -17.5v-20.5t1 -31t1 -30.5v-20q0 -10 -1 -32t-11 -32q-8 -6 -25.5 -9t-26.5 -3q-4 0 -16 2t-16 2q-10 0 -41 1t-41 1q-4 0 -10.5 1t-10.5 9q-4 4 -6 17.5t-2 17.5t1 18.5t1 18.5v20.5t-2 24.5v25 q0 10 -8 10h-12q-12 0 -30 3t-30 3q-6 0 -19.5 1t-27.5 3t-27.5 3t-19.5 1q-16 2 -34.5 8t-35 15.5t-27 21.5t-10.5 27q0 6 1.5 26.5t1.5 26.5v66z" />
<glyph unicode="%" horiz-adv-x="1705" d="M332 506q-23 0 -43.5 6t-36.5 16q-16 12 -25 17q-6 4 -11 6t-11 6q-23 10 -67 58.5t-75 140.5q-20 63 -25 115.5t-5 123.5q0 6 1 21.5t3 32l4 33t2 22.5q4 25 15.5 67.5t21.5 65.5q6 12 26.5 47t45.5 55q6 6 18 15q4 4 7 8t7 8q6 4 12.5 7t10.5 7q39 23 69.5 36.5 t77.5 13.5q29 0 63 -5.5t81 -29.5q45 -23 93 -78t66 -125q16 -68 22.5 -138.5t6.5 -127.5v-23.5t-2 -23.5t-6 -34t-9 -44.5t-8.5 -38.5t-3.5 -18l-11 -33t-13 -33q-6 -14 -19.5 -32.5t-30 -36t-31.5 -33t-28 -23.5q-12 -8 -30.5 -17.5t-38 -16.5t-39 -12t-33.5 -5h-51z M356 1241q-25 0 -40 -10t-24 -25.5t-13.5 -32t-6.5 -28.5q-4 -23 -7 -41.5t-4 -37.5t-1 -42v-53q0 -4 -1 -20.5t-1 -20.5q0 -6 2 -27.5t6 -46.5t7 -48.5t8 -33.5q8 -27 29.5 -51.5t51.5 -24.5q16 0 35 9.5t29 23.5q8 10 16.5 41t12.5 43q2 14 1 28.5t1 28.5q0 18 3 37t3 35 q0 2 -2 33t-5 66.5t-6 65.5l-4 30q-2 20 -12 39q-8 18 -23.5 40.5t-54.5 22.5zM1018 492q0 8 3 34.5t3 34.5q2 33 4 45t12 43q6 23 10.5 36t8.5 24.5t11 23.5t17 31q8 14 14.5 23.5t12.5 16.5t14.5 15t22.5 23q25 23 53.5 38t54 24t45 13.5t25.5 4.5q4 0 33 -1t33 -1 q4 -2 48 -15.5t85 -48.5l41 -41q10 -10 19 -22.5t32 -55.5q16 -31 25.5 -71.5t14.5 -85.5t7 -88t2 -80q0 -18 -2 -32.5t-10 -51.5l-6 -49q-4 -12 -6.5 -23.5t-6.5 -22.5q0 -2 -3 -12t-8 -22.5t-9 -21.5l-4 -9q-4 -10 -15.5 -25.5t-25.5 -33t-30.5 -35t-31.5 -27.5 q-27 -18 -69.5 -35.5t-87.5 -17.5q-53 0 -77 6t-42 18q-16 12 -25 17l-16 8t-16 10q-4 2 -9.5 5t-9.5 8q-49 43 -76.5 98t-42 107.5t-17.5 91t-3 45.5v16t-1 25.5t-1 25v17.5zM1339 729q-25 0 -40 -10t-23 -25.5t-12 -33t-7 -29.5q-4 -23 -7 -36t-4 -25.5t-1 -28v-39.5 q0 -10 -1 -40t-1 -40q0 -4 1 -16.5t2 -26.5t3 -27.5t2 -15.5q8 -63 30 -106.5t67 -43.5q37 0 55 29t27 57q2 8 5 31t6 49.5t4 50t1 31.5q0 2 -2 26.5t-4 54.5t-4 53.5t-2 27.5q-2 25 -3 35t-12 35q-10 20 -25.5 41.5t-54.5 21.5zM1262 1446q18 0 25 -12.5t7 -22.5 q0 -20 -14 -41q-4 -6 -11 -19.5t-16.5 -28.5t-16.5 -29.5t-9 -20.5q-12 -29 -16.5 -38t-14.5 -26q-12 -20 -20.5 -40.5t-18.5 -43.5q-8 -16 -16 -32.5t-17 -32.5q-8 -16 -13 -27.5t-9 -21t-10.5 -19.5t-16.5 -26l-43 -86q-4 -6 -14 -29t-14 -31t-9.5 -14t-9.5 -14 q-6 -10 -11 -22.5t-9 -23.5q-4 -8 -9.5 -15t-9.5 -17q-8 -14 -10 -27q-4 -6 -19.5 -38t-35 -69.5t-37 -72.5t-23.5 -49q-8 -20 -13 -30.5t-22 -43.5q-4 -6 -14 -25.5t-21.5 -41t-20.5 -40t-11 -24.5q-6 -20 -14 -33q-4 -8 -17 -24q-4 -8 -9 -18.5t-9 -16.5t-4 -11.5t-2 -9.5 q-4 -6 -6.5 -11t-6.5 -11q-4 -10 -9 -21.5t-11 -21.5q-6 -12 -15.5 -28.5t-17.5 -27.5q-6 -8 -12 -12t-16.5 -5t-28 -1h-47.5q-4 0 -21.5 -1t-21.5 -1q-20 0 -26.5 11t-6.5 20q0 10 5 19t21 38q12 23 21.5 44.5t19.5 41.5q6 12 13.5 23.5t13.5 23.5q8 14 18.5 32.5 t16.5 33.5q10 16 16 33.5t15 33.5q4 10 10 21.5t12 21.5q8 16 14.5 30.5t12.5 31.5q10 20 19 39.5t20 40.5q10 18 21 35.5t22 35.5q31 55 47 90t26 62q12 29 26.5 53.5t27.5 52.5q2 4 8 17.5l12 27t12 26.5t11 17l18 31q8 12 12 25.5t11 25.5q0 2 9 20.5t20.5 39t20.5 38 t9 19.5q4 8 11 15.5t11 17.5q8 12 24.5 49t35 76t33 71.5t18.5 36.5q6 8 22.5 19.5t36.5 11.5q6 0 28 -3t28 -3h7t9 2h19z" />
<glyph unicode="&#x26;" horiz-adv-x="1236" d="M248 1085q2 16 5 29.5t5 30.5q4 14 4 26.5t4 26.5q8 31 28.5 62.5t47.5 57t56.5 46t54.5 31.5q10 4 37.5 14t31.5 12q8 2 14.5 2h24.5q6 0 28.5 2t31.5 2q4 0 18 -2t30.5 -5t31 -6t18.5 -3q18 -6 46 -19.5t56.5 -35t53 -50t36.5 -63.5q4 -6 5.5 -13t5.5 -13 q4 -12 10 -23.5t10 -24.5q2 -8 6 -34.5t4 -59.5q0 -37 -6 -67q-4 -12 -10 -32t-13.5 -39t-16.5 -37.5t-15 -27.5q-8 -10 -34 -37.5t-52 -43.5q-31 -23 -44 -36.5t-16 -35.5q0 -16 5.5 -30.5t13.5 -31.5q8 -14 17.5 -26.5t17.5 -24.5q31 -49 49 -73.5t33 -24.5q8 0 25.5 24.5 t17.5 81.5v13.5t-2 13.5q-4 8 -7.5 17.5t-3.5 17.5q0 10 10.5 23.5t34.5 13.5q6 0 21.5 -1t33 -1t34 -1t22.5 -1h26.5t26.5 2q8 2 25 2q10 0 29.5 -8.5t19.5 -24.5v-49q0 -18 -1 -40t-5 -38l-4 -17q-4 -16 -10.5 -37.5t-13.5 -42t-13 -30.5q-4 -10 -11.5 -21.5t-13.5 -23.5 q-6 -10 -12 -22.5t-12 -22.5q-10 -18 -21 -33q-14 -16 -14 -24q0 -12 10 -33t23.5 -41.5t26 -36.5t14.5 -18q4 -4 7 -10.5t7 -10.5l6 -12q4 -6 12 -15q4 -6 5 -22q0 -47 -11.5 -54.5t-40.5 -7.5h-43t-30 -4q-10 -2 -20.5 -4t-20.5 -4q-6 -2 -35 -6t-37 -4q-20 0 -27.5 7 t-13.5 20q-10 23 -28.5 39t-35.5 16q-8 0 -14 -2t-22 -13q-12 -6 -52.5 -21t-74.5 -24q-14 -4 -35 -7t-41.5 -6t-38.5 -5t-29 -2q-8 0 -34.5 3t-34.5 5q-14 2 -27.5 1t-28.5 1q-18 4 -41.5 11.5t-44.5 15.5q-23 8 -47 20q-2 2 -15 10.5t-30.5 20.5t-37 28.5t-33.5 35.5 q-8 10 -14.5 19t-12.5 19q-20 18 -35 41q-53 74 -53 234v18t2 19q2 14 10 37.5t17.5 50t19.5 49t16 33.5q10 16 31 36.5t43.5 40t42 34t29.5 20.5q8 4 15 7t18 7q14 8 24 20.5t10 28.5q0 12 -7 28.5t-15 33.5q-18 35 -24.5 53t-10.5 45q-4 14 -6 27.5t-2 27.5v6zM616 1176 q-6 0 -20 -2.5t-28.5 -11.5t-26 -27.5t-11.5 -51.5q0 -35 12.5 -57t30.5 -47q6 -8 13.5 -15.5t19.5 -7.5q8 0 25.5 8.5t35 24t31 40t13.5 54.5q0 45 -27 69t-68 24zM453 596q-18 0 -37 -13.5t-32 -33t-22.5 -41t-9.5 -37.5t9.5 -48t19.5 -50q14 -25 34.5 -42.5t43 -27.5 t44 -14t38.5 -4q8 0 12 2h6q8 0 14 2q8 0 19 2q4 0 24.5 8t26.5 12q8 8 8 19q0 6 -1 10t-11 18q-4 6 -7 13.5t-7 13.5q-4 8 -13.5 22.5t-18.5 31t-18.5 29.5t-13.5 17q-10 14 -21.5 27.5t-21.5 30.5q-18 29 -30 41t-35 12z" />
<glyph unicode="'" horiz-adv-x="425" d="M248 836h-64l-112 512q-4 16 -4 30.5v16.5q0 39 15 65.5t37.5 43t49.5 23.5t51 7q18 0 43 -6t46.5 -20.5t35.5 -40t14 -64.5v-14.5t-4 -18.5z" />
<glyph unicode="(" horiz-adv-x="598" d="M549 1350q0 -8 -1 -34t-1 -34q0 -6 1 -25.5t1 -25.5q0 -29 -8.5 -42t-24.5 -30q-23 -23 -49.5 -64.5t-42.5 -125.5q-2 -8 -3 -14.5t-3 -14.5q-4 -16 -9.5 -30.5t-7.5 -30.5v-27v-19.5t-2 -19.5q-4 -45 -5 -76.5t-1 -66.5v-54q0 -8 -1 -30.5t-1 -30.5q0 -16 2 -33.5 t6 -34.5q0 -6 1 -18t3.5 -26.5t3.5 -27t3 -18.5q0 -4 6 -26.5t14 -49t15.5 -50t9.5 -27.5t13 -19.5t24 -31.5q14 -20 32 -41q8 -10 16.5 -18.5t12.5 -18.5q2 -6 2 -17.5v-54.5q0 -6 -1 -24.5t-1 -24.5v-37q0 -4 -1 -29.5t-5 -33.5q-4 -20 -14.5 -26.5t-24.5 -6.5 q-2 0 -11.5 1t-20.5 2t-20.5 3t-11.5 2q-25 4 -49 18.5t-61 40.5q-29 20 -60.5 53t-54.5 70q-4 10 -8 14.5t-14 18.5q-8 8 -18.5 25.5t-21 37t-19.5 36t-11 24.5q-4 16 -8 30.5t-8 30.5q-4 14 -10.5 27.5t-10.5 28.5q0 2 -3 17t-6 33.5t-6 33t-3 18.5q0 8 -1 25.5t-2 36 t-2 36t-1 23.5v16v26.5v27v18.5t-1.5 28.5t-1.5 30.5q0 6 1.5 20.5t3.5 31t3 31t1 20.5q0 4 -1 18t-1 19q0 10 4 38.5t10 59.5t11 56.5t7 29.5q4 16 10.5 32.5t20.5 47.5q2 6 7 19t11.5 28.5t11.5 29t7 19.5q16 33 51 79t64 68q12 8 29.5 19.5t27.5 21.5q10 8 19.5 16.5 t19.5 16.5q2 2 13.5 9.5t29.5 15.5t38.5 14t41.5 6q29 0 37 -18.5t8 -40.5v-51z" />
<glyph unicode=")" horiz-adv-x="598" d="M43 1364q0 41 8 67.5t31 26.5q4 0 21.5 -2t21.5 -2q12 -2 42 -10t71 -37q16 -12 25 -19.5t17.5 -13.5t15.5 -12t17 -19q31 -31 39 -41t17 -24q10 -16 14 -23.5t20 -25.5q8 -10 18.5 -27.5t20 -36t16.5 -36t11 -25.5q4 -14 8 -27.5t8 -27.5q4 -16 10.5 -33t10.5 -33l3 -13 q3 -14 6 -30t5 -35.5t2 -32.5q0 -4 2 -15t2 -15v-21v-8t2 -20q2 -10 2 -18.5v-18.5v-131v-18.5t-2 -18.5q-2 -16 -4 -32.5t-2 -33.5q0 -4 1 -15t1 -15q0 -16 -3 -35t-13 -80q-6 -31 -9 -49.5t-8.5 -33.5t-11.5 -31.5t-18 -41.5q-2 -4 -7 -18.5t-11.5 -30.5t-11.5 -30.5 t-7 -20.5q-6 -12 -19.5 -31.5t-28 -39t-28.5 -37t-26 -27.5q-16 -14 -36 -26.5t-38 -27.5q-10 -8 -20.5 -16t-20.5 -16l-11 -8q-10 -7 -26 -14t-37.5 -13t-42.5 -6q-35 0 -40 24.5t-5 42.5q2 14 1 32.5t-1 33.5q0 4 2 17.5t2 17.5q0 6 -2 27.5t-2 27.5q0 18 3 29.5t7 17.5 q8 16 21.5 28.5t25.5 26.5q10 10 16.5 23.5t14.5 25.5q10 20 14.5 29.5t10.5 34.5q2 10 8 33.5t12 46t10.5 41t4.5 20.5q2 4 1 16.5t-1 16.5q0 10 1 18.5t1 18.5q0 4 1 17.5t2 27.5t2 26.5t1 18.5v21.5v33v32.5v22q0 6 2 28.5t2 30.5q0 27 -5 52.5t-7 51.5q-2 10 -2.5 22.5 t-2.5 25.5l-12 36q-4 12 -6 24.5t-6 27.5q-4 4 -10.5 24.5t-8.5 28.5q-6 16 -10 23.5t-16 21.5q-6 8 -25.5 35.5t-27.5 36.5q-16 16 -20.5 22t-4.5 23v53q0 6 1 25.5t1 25.5v39v0z" />
<glyph unicode="*" horiz-adv-x="681" d="M33 1161q2 20 9 39t11 39q4 16 7 30.5t8 28.5q8 29 21 34t36 5q4 0 25 -8q20 -10 39.5 -16t27.5 -6q16 0 17.5 12t-1.5 29q0 4 1.5 18t1.5 18t-2.5 16.5t-2.5 16.5q0 10 2 15q6 10 23.5 16t34.5 6q10 0 18 -1t19 -1q4 0 19 2t20 2q8 0 16 -2t18 -2q29 -2 39.5 -7 t10.5 -34q0 -8 -1 -24.5t-4 -24.5q0 -2 -2 -11.5t-2 -11.5t2 -19t19 -17q6 0 18.5 4t24.5 9t21.5 10t11.5 5q14 8 26 8q18 0 25.5 -13t13.5 -32q2 -10 6 -18t6 -19q0 -2 4.5 -16t8.5 -30.5t7 -32t3 -17.5q0 -20 -10.5 -25.5t-22.5 -9.5q-55 -10 -70.5 -18t-15.5 -23 q0 -12 17 -28q4 -4 10 -9.5t10 -9.5t18.5 -25.5t14.5 -29.5t-15 -22q-16 -12 -22 -19q-6 -4 -12 -10t-13 -10q-16 -8 -22 -13q-16 -10 -27.5 -24.5t-27.5 -16.5q0 -2 -5 -2q-25 0 -43 25q-4 6 -5 12t-5 12q-2 2 -8 11.5t-14.5 20.5t-16.5 19.5t-14 8.5t-15.5 -8.5 t-33.5 -46.5q-20 -33 -30.5 -44.5t-20.5 -11.5t-17.5 5t-19.5 16q-8 6 -15.5 12t-17.5 12q-6 2 -18 11q-8 6 -17.5 12t-13.5 10q-10 4 -18.5 14.5t-8.5 20.5q0 27 47 74q6 4 13.5 12t7.5 20q0 10 -5 12.5t-12 4.5q-12 4 -23 7t-40 7q-16 2 -32.5 9t-16.5 34v4z" />
<glyph unicode="," horiz-adv-x="425" d="M150 315h19t19 2t18.5 3.5t18.5 1.5q6 0 28.5 -3.5t29.5 -3.5q4 0 12 1t12 1q2 0 11.5 -2t15.5 -4q10 -2 14 -3t10 -9q4 -6 7.5 -13t4.5 -25.5t1 -54.5v-102q0 -8 -1 -27.5t-12 -51.5q-4 -10 -6 -19.5t-6 -19.5q-2 -10 -3 -19.5t-5 -19.5q-4 -6 -7 -13.5t-7 -13.5 q-4 -8 -5.5 -15t-5.5 -16q0 -2 -9 -16t-19.5 -31.5t-20.5 -34t-12 -22.5q-6 -12 -17.5 -22.5t-44.5 -10.5q-6 0 -27.5 2t-29.5 2q-4 0 -16.5 -1t-16.5 -1q-14 0 -22 12.5t-8 22.5q0 4 3 8t13 19q12 16 24.5 38.5t21.5 44t14.5 39t5.5 23.5q0 29 -10.5 33t-20.5 4 q-23 0 -40.5 5t-21.5 28q0 4 -1 20.5t-2 34.5t-2 33.5t-1 21.5q0 4 2 24.5t2 27.5q0 10 -1 38.5t-1 38.5q0 27 18.5 35t24.5 10h52z" />
<glyph unicode="-" horiz-adv-x="598" d="M168 674q6 0 27.5 2t29.5 2q6 0 27.5 -3t30.5 -3q4 0 22.5 2t24.5 2t30.5 -2t32.5 -2q10 0 41 1t41 1q16 0 25.5 -6t15.5 -13q8 -8 12 -18q0 -2 2 -19.5t3.5 -38t2.5 -38t1 -19.5q0 -6 -2.5 -24.5t-2.5 -24.5v-21.5t-2 -21.5q-4 -35 -27.5 -45t-37.5 -10q-4 0 -17.5 1 t-17.5 1q-12 0 -24.5 -1t-22.5 -1q-8 0 -32.5 1t-33.5 1q-6 0 -29.5 -1t-31.5 -1q-16 0 -31.5 1t-31.5 1q-6 0 -31 -2t-31 -2q-23 0 -40 11t-23 38q-2 6 -3.5 23.5t-2.5 37t-2 36t-1 18.5v18t1 29.5t2 29t4 17.5q4 12 19 25.5t38 17.5h45v0z" />
<glyph unicode="." horiz-adv-x="425" d="M57 266q0 12 4.5 35t32.5 23q4 0 21.5 -2.5t23.5 -2.5t32 3.5t36 3.5q8 0 35.5 -3.5t38.5 -3.5q4 0 17 1.5t17 1.5q14 0 29.5 -4.5t22.5 -12.5q10 -12 6 -61q0 -10 1 -43t1 -43q0 -8 -2 -33t-2 -33q0 -4 2 -20.5t2 -20.5q0 -23 -16.5 -37t-34.5 -14q-4 0 -21.5 2t-23.5 2 q-4 0 -17.5 -1t-28 -1t-27.5 -1t-20 -1q-8 0 -31.5 1t-31.5 1q-4 0 -13.5 -1t-13.5 -1q-18 0 -29.5 13.5t-13.5 25.5v24v19.5t-1 30t-1 31v20.5t1 20.5t2 30.5t2 30.5t1 20.5z" />
<glyph unicode="/" horiz-adv-x="768" d="M29 61q0 8 2 22.5t8 37.5q6 27 16.5 51.5t20.5 52.5q10 23 16 47.5t12 51.5q4 18 12.5 46.5t17.5 60.5t18.5 63.5t19.5 58.5q10 29 19.5 57.5t17.5 57.5q6 23 10 44t10 44l31 92q4 10 12.5 38.5t17.5 61.5t17 62.5t12 42.5q16 49 36 98t32 100q4 27 9 53.5t12 53.5 q8 31 20 48t29.5 25.5t43 10.5t62.5 2h28.5t42 -1t40 -2t24.5 -3q23 -8 29 -26.5t6 -37.5q0 -29 -10 -63q-2 -6 -9 -22.5t-14.5 -35t-14.5 -36t-9 -25.5q-10 -35 -17.5 -72t-17.5 -71q-6 -23 -12 -46.5t-15 -46.5q-8 -23 -16 -42t-16 -42q-10 -35 -17.5 -67.5t-17.5 -65.5 q-8 -41 -25 -82q-10 -27 -18 -51t-19 -49q-6 -23 -11 -46.5t-11 -45.5q-6 -20 -11.5 -38.5t-11.5 -37.5q-14 -39 -27.5 -77t-25.5 -76q-4 -16 -8 -31t-6 -31q-10 -55 -19.5 -89t-23 -52.5t-32.5 -25.5t-52 -7h-24.5t-39 1t-39 1h-26.5q-33 0 -60.5 7t-27.5 52z" />
<glyph unicode="0" horiz-adv-x="1110" d="M47 676v24.5t-1 33t-1 29.5v17q0 23 3 43.5t5 42.5q2 29 4 47.5t5.5 35t7.5 33.5t12 46t13 47.5t11.5 32.5t14.5 30.5t22 41.5q25 43 41.5 67.5t44.5 50.5q6 4 12.5 8.5t10.5 8.5q8 6 14 14t15 14q8 4 32.5 19.5t34.5 21.5t32.5 15.5t49.5 18.5t55.5 15.5t53.5 6.5 q12 0 24 -1t25 -1q20 0 33.5 -1t25.5 -3t25.5 -7.5t36.5 -13.5q23 -10 61.5 -28.5t85.5 -65.5l43 -43q18 -16 26.5 -27.5t28.5 -48.5q23 -41 32 -60.5t20 -52.5q2 -6 7 -23t10 -40t10 -46.5t7 -41.5q4 -16 4 -32.5t3 -33.5q2 -14 4 -26.5t4 -26.5q0 -4 1 -25.5t1 -48t1 -50 t1 -34.5q0 -16 -2 -51t-4 -51q-2 -12 -5.5 -24.5t-7.5 -26.5q-2 -10 -2 -20.5t-2 -20.5t-5 -21.5t-7 -21.5q-4 -14 -5 -27.5t-5 -27.5q0 -4 -6.5 -18.5t-12.5 -33t-12 -35t-8 -20.5q-10 -20 -29.5 -47t-43 -54.5t-47.5 -51t-42 -35.5q-16 -10 -36.5 -23.5t-33.5 -19.5 q-2 0 -19 -7.5t-41 -14.5t-48.5 -14t-40.5 -7q-8 0 -35 1t-35 1q-29 0 -58.5 7t-53 16t-40 18.5t-18.5 11.5q-6 4 -11 8t-9 8q-10 4 -19.5 9.5t-19.5 9.5q-27 14 -54.5 45t-54 67.5t-47 74.5t-30.5 67q-2 6 -6.5 21.5t-10.5 31.5t-10 30.5t-6 18.5q-4 20 -7 40t-8 40 q-2 10 -4 18.5t-4 18.5l-6 78v49zM727 688q0 20 -2 40l-4 40q-2 25 -2 48.5t-4 45.5q-2 10 -3 17.5t-1 17.5q-4 23 -4 47.5t-5 46.5q-2 16 -10 39l-5 10q-5 11 -11 23t-10 23l-4 12q-16 27 -39 41q-10 6 -36 15t-38 9q-10 0 -35 -5t-35 -13q-4 -2 -12 -9.5t-16.5 -15.5 t-15.5 -16t-9 -14t-2 -12.5t-4 -10.5q-4 -6 -7 -12t-5 -13q-2 -8 -2 -16q-2 -6 -2.5 -12t-0.5 -8q-8 -33 -14 -72t-6 -82q0 -4 1 -21.5t1 -21.5t-1 -21.5t-3 -23.5q0 -4 1 -24.5t1 -26.5q0 -8 -2 -32t-2 -32t3 -34.5t6 -55.5t7 -52.5t4 -27.5q0 -2 2 -15t5.5 -27.5 t6.5 -26.5l3 -13q4 -16 20.5 -43.5t20.5 -31.5q10 -14 36.5 -33t53.5 -19q4 0 13 1t13 1q18 4 24.5 5.5t18.5 9.5q16 10 27.5 18t19 19.5t14.5 29t17 45.5q6 16 10.5 29.5t7.5 30t4 39t1 57.5q0 4 2 22.5t2 22.5t1 17.5t2 27.5t2 26.5t1 16.5z" />
<glyph unicode="1" horiz-adv-x="1110" d="M813 53q0 -33 -22.5 -43t-45.5 -10q-8 0 -27.5 1t-41 3t-40 3t-26.5 1q-4 0 -21.5 -2t-23.5 -4q-8 0 -17 -1t-18 -1q-23 0 -35 8t-18 20.5t-7 25t-1 18.5v18t2 31q2 16 4 38.5t2 24.5q0 8 -1 34t-1 34q0 6 1 28.5t1 28.5q0 4 1 22.5t1 24.5v33q0 6 3 29.5t3 32.5 q0 10 -2 41.5t-2 42.5q0 6 1 19t1 28.5t1 29t1 19.5v20.5t-1 30.5t-1 31.5v21.5q0 8 2 37t2 39q0 8 -1 31.5t-3 31.5q0 4 1 25t1 27t-1 19t-4 27.5t-11 25t-23 10.5q-23 0 -42 -10.5t-35 -20.5q-41 -27 -65.5 -37t-37.5 -10q-20 0 -37.5 17.5t-33.5 39.5q-23 29 -34 48.5 t-11 47.5q0 23 3 32t5 13q2 6 29.5 33t58.5 49q4 2 15 11.5t23.5 18.5t25 17.5t16.5 12.5q29 18 51 35q10 6 18 13t19 13q12 8 26.5 14.5t26.5 14.5q16 10 30.5 21.5t30.5 19.5q10 4 49 13t68 9q6 0 12.5 -1t14.5 -1t22.5 -2t28.5 -4t25 -4l10 -2q25 -10 38 -32.5t13 -51.5 q0 -4 -1 -24.5t-1 -24.5q0 -6 1 -25.5t1 -25.5v-29.5t-1 -45.5t-1 -45.5v-29.5q0 -25 1 -50.5t1 -51.5v-19.5v-30v-30.5v-21v-45q0 -6 -1 -27.5t-1 -29.5q0 -6 1 -25.5t1 -25.5q2 -10 1 -39t-1 -39q0 -8 2 -35.5t2 -38.5q0 -16 -1 -33.5t-1 -33.5v-54q0 -4 -1 -26.5 t-1 -28.5t1 -29.5t1 -29.5v-22.5v-35v-35v-22.5q0 -8 1 -40t1 -42v-82z" />
<glyph unicode="2" d="M68 -4q-31 0 -36 19.5t-5 41.5q0 8 -2 33t-2 33q0 27 6 40t10 19q2 2 19.5 17.5t39 34t41 34t25.5 19.5t11 8t9 8q6 4 11.5 10t11.5 11q6 4 13 9t16 9q31 20 51 41q10 10 19 20.5t20 20.5q4 4 16 14.5t25.5 20.5t27 19t17.5 14q18 12 24 17t19 19q4 4 23.5 21.5 t25.5 23.5q8 8 13 17.5t13 17.5q6 8 19 21q31 31 55.5 59.5t38.5 56.5q6 16 14 27q4 8 8.5 14.5t8.5 14.5q4 16 8 24q2 12 10 23q0 4 1 7t1 7q4 20 4 27.5v25.5q0 4 2 13.5t2 13.5q0 6 -4 24.5t-6 24.5q-10 35 -31.5 67t-52.5 44l-18 6q-4 2 -9.5 4t-11.5 4q-4 2 -26.5 8 t-40.5 6q-6 0 -23.5 -3t-32.5 -7q-16 -4 -22 -8t-29 -14q-18 -10 -25.5 -16.5t-17.5 -22.5q-14 -20 -20 -33.5t-6 -38.5q0 -4 2 -22.5t2 -24.5t-2 -13l-4 -14l-5 -16q-4 -10 -25.5 -21.5t-45.5 -11.5q-12 0 -25.5 2t-25.5 2q-4 0 -20.5 -1t-22.5 -1q-10 0 -19.5 1t-19.5 1 h-15q-18 0 -29.5 11.5t-19.5 29t-11 36t-3 32.5q0 10 1 22.5t3 24.5v23.5t2 23.5q2 18 7 35.5t11 34.5q8 25 15.5 42t15.5 32.5t19.5 33t29.5 41.5q31 41 63 62.5t52 31.5q8 6 29.5 14.5t47 15.5t54.5 14.5t51 9.5h64q6 0 31.5 1t33.5 1q16 0 40 -4t49.5 -9.5t49 -11.5 t37.5 -12q33 -12 65 -31.5t59.5 -43t48 -46t30.5 -41.5q4 -6 6 -13t6 -14l19 -30q12 -23 18 -43q2 -6 6.5 -26.5t7.5 -45.5t6 -50.5t3 -41.5t-2 -40t-4 -46.5t-5 -38.5t-3 -18t-4.5 -15.5t-9.5 -30t-12 -35t-13 -30.5q-4 -8 -8.5 -14.5t-8.5 -14.5q-8 -12 -12 -24.5 t-12 -24.5q-4 -8 -10.5 -14t-10.5 -15q-4 -8 -9 -15t-11 -15q-4 -6 -10.5 -11.5t-10.5 -11.5q-6 -6 -11 -13t-9 -13q-10 -12 -21.5 -23.5t-21.5 -24.5l-25 -30q-14 -16 -30.5 -31.5t-32.5 -32.5q-14 -12 -28.5 -23.5t-27.5 -23.5q-4 -4 -19 -15t-15 -14q0 -4 13 -7t21 -3 q4 0 21.5 2t23.5 2q4 0 15.5 -1t24 -1t23.5 -1t17 -1t28.5 1t31.5 1h69q10 0 27.5 -1t34 -7t28 -20.5t11.5 -38.5q0 -14 -3 -28.5t-3 -29.5q0 -4 2 -20t2 -21q0 -10 -1 -19t-1 -20q0 -4 1 -17t1 -17q0 -20 -23.5 -46t-38.5 -30q-4 -2 -29.5 -2h-29.5t-21.5 1t-27.5 3 q-16 2 -29.5 2h-30.5h-24.5t-39 -1t-39 -1h-26.5q-10 0 -39.5 2t-40.5 2q-6 0 -31.5 -1t-33.5 -1q-23 0 -55.5 -1t-55.5 -1h-8q-4 0 -17.5 1t-27.5 1t-26.5 1t-18.5 1q-8 0 -35 -2t-35 -2q-6 0 -30.5 1t-32.5 1t-34 -2t-34 -2h-26z" />
<glyph unicode="3" d="M694 465q0 12 -20.5 53t-79.5 72q-4 2 -19.5 8t-34 13t-37 12.5t-26.5 7.5h-13t-15 2q-4 0 -27 2t-27 4q-16 6 -25.5 20.5t-11.5 24.5q-2 20 -2 37v39q0 27 3 40t8 21q8 16 26.5 28.5t34.5 14.5q10 2 17.5 2h15.5q10 2 20.5 5t20.5 8q4 2 10 2t12 2q20 4 43 16t41.5 29.5 t30.5 40t12 47.5q0 41 -12 59.5t-23 26.5q-27 27 -61.5 39t-69.5 12q-8 0 -22 -2t-28.5 -4t-26 -4t-13.5 -2t-13 -5.5t-27.5 -15.5t-36 -25.5t-37.5 -33.5q-10 -10 -20.5 -21.5t-22.5 -21.5q-18 -18 -43 -19q-18 0 -27.5 8.5t-30.5 32.5q-4 4 -19.5 17.5t-19.5 17.5 q-6 4 -24.5 26.5t-24.5 26.5q-12 10 -18 19.5t-6 28.5q0 35 21.5 60.5t53.5 53.5q29 29 48.5 45.5t52.5 34.5q23 12 59.5 28.5t54.5 22.5q10 2 19.5 3t19.5 3q33 8 45.5 10.5t28.5 2.5q6 0 28.5 1t30.5 1q4 0 17.5 -1t31 -2t34 -2t24.5 -1q43 -4 103.5 -23.5t101.5 -48.5 q39 -29 69.5 -63.5t46.5 -59.5q0 -2 7.5 -16.5t15.5 -36t15.5 -44t7.5 -40.5q0 -12 -1.5 -24.5t-1.5 -24.5q-2 -23 -3 -37t-4 -25.5t-8 -23t-13 -29.5q-10 -20 -17.5 -33.5t-15.5 -26t-19.5 -22.5t-25.5 -24q-35 -33 -43 -40.5t-8 -11.5q0 -6 14 -12q10 -6 26.5 -15.5 t26.5 -15.5q2 0 15.5 -11t32 -30.5t38 -46t31.5 -59.5q4 -12 10 -34.5t11.5 -50.5t8.5 -55.5t3 -50.5q0 -82 -28.5 -142t-53.5 -95q-23 -31 -59.5 -61.5t-77.5 -51.5q-63 -33 -89 -41t-48 -12q-25 -6 -40.5 -8t-34 -4t-46 -2h-74.5q-68 0 -133.5 14t-124.5 47 q-18 10 -35.5 22.5t-38.5 22.5q-27 14 -38 21.5t-36 29.5l-32.5 32.5t-18.5 21t-8 15.5t-2 17q0 29 11.5 43.5t23.5 24.5q4 4 9 7t9 7l43 43q6 6 12.5 10.5t10.5 10.5q10 10 16 19t17 14q10 6 19 7t11 1q8 0 17.5 -3t25.5 -16q4 -4 13.5 -12t20.5 -19.5t21.5 -20.5t14.5 -11 q8 -4 20 -13q6 -4 11.5 -7t9.5 -7q6 -4 25.5 -10t42 -12.5t45 -10.5t32.5 -4q16 0 31 2q10 2 20.5 2t12.5 2q16 2 38.5 11.5t39.5 19.5q37 23 55 59.5t18 59.5q0 4 -1 14.5t-1 14.5v12z" />
<glyph unicode="4" d="M33 420q0 4 -1 22.5t-1 22.5q0 35 14 62.5t47 74.5q4 6 14.5 21.5t21.5 34t21.5 35t14.5 22.5q10 14 21.5 28.5t21.5 30.5t14 24.5t21 30.5q10 12 17 26.5t15 29.5q16 25 33 48t33 50q6 10 12 22.5t15 22.5q8 14 17 27.5t19 29.5t18.5 35t18.5 35q16 31 33 49q4 6 7 11.5 t7 11.5q6 10 11.5 19t9.5 20q2 4 9 14t14.5 21.5t14.5 22.5t9 15q20 35 31.5 51.5t27.5 24.5q6 2 13.5 4t26 3t55 1h102.5q29 0 38 -16t9 -35q0 -4 -2 -26.5t-2 -28.5t1 -25.5t1 -25.5v-30t-1 -45.5t-1 -45v-29.5v-41q0 -2 1 -12t2 -20.5t2 -19.5l1 -9q0 -10 -1 -36 t-1 -54.5t-1 -55t-1 -37.5v-55q0 -4 -1 -16t-1 -26.5t-1 -27t-1 -18.5q0 -4 1 -25.5t1 -27.5q0 -18 7 -29.5t17.5 -15.5t20.5 -5t16 -1q31 0 37 2q6 0 13.5 2t13.5 2q18 0 37 -15q8 -10 9 -16t1 -35q0 -4 2 -15t2 -15t-1 -19.5t-1 -21.5q-2 -4 -1 -21.5t1 -21.5q0 -6 1 -27 t1 -27q0 -29 -23.5 -36t-88.5 -7q-59 0 -60 -63q0 -8 1 -38t1 -40q0 -8 -2 -35.5t-2 -38.5q0 -4 1 -21.5t1 -23.5q0 -29 -13.5 -41t-29.5 -12q-4 0 -9 1t-9 1h-131q-8 0 -34 -2t-34 -2q-10 0 -28.5 6t-18.5 43q0 6 1 21.5t1 33t1 34t1 22.5t-2 28.5t-4 28.5v30.5t-4 24.5 q-4 10 -20.5 29.5t-67.5 19.5q-6 0 -24.5 -1t-24.5 -1t-30 1t-34 1h-90q-6 0 -26.5 2.5t-26.5 2.5q-10 0 -40 -3.5t-40 -3.5q-4 0 -13.5 1t-13.5 1q-6 0 -16 1.5t-20.5 6.5t-17.5 17t-7 35v41zM543 901q-8 0 -15.5 -8t-35.5 -45q-2 -4 -19.5 -33t-38 -65.5t-38 -73.5 t-17.5 -53q0 -31 23.5 -36t64.5 -5q6 0 26.5 -1t26.5 -1q23 0 30 16t7 72q0 20 -1 40.5t-1 41.5q0 6 1 20t1 30.5t1 31t1 20.5q0 35 -3 42t-13 7z" />
<glyph unicode="5" d="M768 948q10 -8 24.5 -18t24.5 -19q53 -41 83 -77.5t46 -67.5q2 -4 7 -16.5t11.5 -25.5t12.5 -24.5t6 -13.5q10 -33 16.5 -82t6.5 -84q-2 -39 -7 -76q-4 -33 -9 -67.5t-13 -57.5t-25.5 -57.5t-41 -71t-53.5 -69.5t-62 -51l-43 -25q-4 -4 -9.5 -7t-9.5 -5q-10 -4 -26 -8 q-12 -4 -31 -12.5t-33 -12.5q-23 -8 -51.5 -13t-54 -8.5t-45 -4.5t-25.5 -1q-14 0 -34.5 2t-43 4.5t-43 5.5t-33.5 5q-12 2 -44.5 13t-69.5 27.5t-73 37t-56 41.5q-8 8 -15.5 16t-15.5 16t-16.5 15.5t-14.5 17.5q-8 16 -8 43q0 29 7 41t36 35q6 6 19.5 18.5t27.5 25.5 t24.5 24.5t14.5 15.5q10 10 19.5 17t23.5 7t25.5 -6t21.5 -14l31 -31q8 -6 15 -11t16 -11q41 -27 58 -37t42 -17q10 -2 43 -6t43 -4q20 0 43 8q53 16 72.5 29.5t33.5 32.5q39 47 50.5 86t11.5 92q0 35 -32 87t-73 81q-2 2 -17 8t-33.5 13.5t-35 13.5t-18.5 6q-10 2 -31 2 q-16 4 -24 4q-4 0 -15.5 -1t-15.5 -1h-25q-2 0 -15 -2t-28.5 -4t-29 -4t-15.5 -2q-10 -2 -17 -4t-17 -4q-4 -2 -14.5 -2.5t-20.5 -0.5q-33 0 -49 17q-6 6 -14.5 22.5t-8.5 30.5q0 6 1 13.5t1 15.5q0 2 -2 15t-2 18q0 6 -1 30.5t-2 53t-2 52.5l-1 23q0 6 1 22.5t1 35t1 36 t1 23.5v39q-4 31 -4 61.5t-2 61.5q0 6 -1 18.5t-1 27.5t-1 27.5t-1 18.5q0 12 3 22.5t13 22.5t20.5 15t38.5 3q10 0 22.5 -1t25.5 -1q14 -2 25 -2h16q10 0 26 4q8 0 14.5 1.5t14.5 1.5q18 2 38.5 -3.5t43.5 -3.5q8 0 46 1t89 3q4 0 24.5 -1t42.5 -1q23 -2 43.5 -3t24.5 -1 q16 2 32.5 2t33.5 2q16 0 33.5 1t33.5 1q31 0 46.5 -9t23.5 -22.5t9 -27.5t1 -22q0 -6 1 -19.5t1 -30t1 -31t1 -20.5q0 -4 -1 -19.5t-1 -19.5q0 -23 -7 -31t-28 -18q-6 -2 -18 -10q-10 -4 -26.5 -7t-26.5 -3q-6 0 -29 2t-31 2q-6 0 -22.5 -1t-35 -1t-34.5 -1t-22 -1 q-8 0 -34 1t-34 1q-23 0 -53.5 -4.5t-46.5 -10.5q-8 -4 -16.5 -10t-8.5 -33q0 -29 2 -48t19 -23h11h19h20.5h14.5q20 0 59 -2t58 -7q20 -4 43.5 -12t43 -16t33 -15.5t17.5 -9.5z" />
<glyph unicode="6" horiz-adv-x="1110" d="M592 -12q-6 0 -28.5 2t-47 5t-45 5t-22.5 2q-8 2 -30 8t-32 10q-31 10 -69.5 33t-63.5 43l-12.5 12.5t-21.5 22.5t-21.5 22.5l-12.5 12.5q-18 20 -39 55q-6 12 -17 38t-21.5 52.5t-20.5 50t-12 33.5q-2 6 -6 28.5t-9.5 51.5t-9.5 58.5t-4 52.5q0 8 3 35.5t3 37.5v56 q0 35 4 79t9 62q2 10 4 18.5t4 16.5q4 10 4 21.5t4 21.5q0 4 4 21.5t6 21.5q4 25 18.5 63.5t34 78.5t44 76t49.5 58q10 8 21 15.5t22 15.5q8 6 14 12.5t12 12.5l25 18q14 10 31.5 20.5t33 18.5t26.5 13l11 5q10 4 18.5 5.5t18.5 5.5q16 4 29.5 10t29.5 10q10 4 22.5 5 t25.5 3q33 6 58.5 9.5t76.5 3.5q16 -2 26 -2h27q8 -2 29.5 -2h38.5q23 0 34 -1t45 -10q25 -6 38.5 -17t19.5 -23.5t7 -21.5l1 -9q0 -4 -2 -18.5t-2 -18.5q0 -8 1 -15.5t1 -15.5q-2 -8 -2 -14q-2 -4 -2 -11v-4q-2 -4 -1 -22.5t1 -22.5q0 -16 -5 -28.5t-24 -22.5 q-4 -4 -19.5 -10t-33.5 -6q-8 0 -36 4t-38 4q-6 0 -28.5 -1t-30.5 -1h-39q-4 0 -20.5 -1t-20.5 -1t-11.5 -1t-31.5 -9q-10 -4 -21.5 -6.5t-21.5 -6.5t-26.5 -12t-24.5 -14q-2 0 -12.5 -10.5t-22.5 -21.5t-22 -22l-11 -10q-4 -6 -18.5 -28.5t-18.5 -30.5q-14 -23 -23.5 -45.5 t-9.5 -46.5q0 -12 8.5 -16.5t12.5 -4.5t19.5 8.5t19.5 10.5l12 8t14 8q12 6 29 11t34 10.5t31.5 8.5t20.5 3q4 2 21.5 1t21.5 -1q12 0 23.5 1t21.5 1q14 0 21 -2q8 0 31.5 -7.5t51 -18.5t57.5 -25.5t50 -30.5q14 -12 23.5 -20.5t16.5 -14.5t14.5 -13t17.5 -20 q29 -33 49 -72.5t25 -58.5q10 -29 12 -48t2 -36q0 -4 2 -18.5t2 -18.5q0 -8 -1 -14t-1 -14q0 -4 2 -16.5t2 -16.5t-1 -21.5t-1 -23.5q0 -37 -4 -55.5t-14 -51.5q-6 -18 -14.5 -38.5t-16.5 -36.5q-8 -20 -21 -41q-12 -25 -35.5 -48.5t-47 -43t-43 -34t-23.5 -16.5 q-10 -6 -28.5 -14t-38 -16.5t-37 -14.5t-25.5 -8q-12 -4 -23.5 -4t-21.5 -4l-31 -6h-51zM588 639q-8 0 -15.5 -1t-13.5 -1q-4 0 -9 1t-9 1q-10 0 -33 -9t-31 -14q-16 -8 -33 -24q-16 -12 -25 -20.5t-13.5 -20.5t-5.5 -33.5t-1 -58.5q0 -18 10.5 -46t12.5 -32 q6 -10 17.5 -24.5t21.5 -24.5q8 -10 15 -14.5t36 -16.5q27 -10 36 -13t25 -3q23 0 46.5 4t42.5 14q2 0 10 6t18 12.5t18.5 12.5t10.5 8q0 2 12 21.5t14 21.5q10 14 14.5 36.5t4.5 33.5q0 45 -13.5 81.5t-54.5 67.5q-18 14 -55 24.5t-53 10.5z" />
<glyph unicode="7" horiz-adv-x="1024" d="M457 805q8 14 13 28.5t11 28.5q8 18 15.5 35.5t15.5 34.5q29 53 40 77.5t11 39.5q0 14 -5 28.5t-19 24.5q-10 4 -16.5 5t-35.5 1h-30.5t-30.5 2q-6 0 -30.5 2t-33.5 2q-25 0 -48 -3t-48 -3q-6 0 -21.5 2t-32.5 3t-33.5 3t-22.5 2q-4 0 -16.5 -1t-27 -1t-26.5 -1t-18 -1 q-12 0 -18.5 4t-16.5 21q-12 14 -13 28q0 4 2.5 17.5t2.5 17.5q0 6 -1 12.5t-1 14.5v22q0 6 -1.5 19.5t-2.5 28t-2 27.5t-1 20q0 10 2 28.5t7 24.5q4 8 10 13t35 5q4 0 15 -1t24 -1q12 -2 23 -3t15 -1h19.5t29 1t29 1h19.5q8 0 33.5 -3t35.5 -3t21.5 1t21.5 3h68q6 0 30.5 1 t32.5 1h25.5h41h41h28.5h221q4 0 15 1t24 3q12 0 23.5 1t15.5 1q37 0 58 -11t32 -26q4 -8 11 -27.5t7 -29.5t-6 -25.5t-12 -29.5q-4 -12 -9.5 -24.5t-9.5 -22.5q-6 -12 -13 -24.5t-11 -24.5q-6 -10 -11.5 -22.5t-11.5 -25.5q-4 -10 -11 -21t-11 -22q-4 -10 -8.5 -21 t-8.5 -22l-12 -24q-4 -8 -12.5 -27.5t-17.5 -43t-17 -44t-10 -29.5q-16 -41 -36 -80.5t-36 -80.5q-6 -16 -12 -31.5t-15 -32.5q-12 -31 -26.5 -60.5t-26.5 -58.5q-2 -4 -8 -19t-14.5 -35.5t-16.5 -42t-14 -40.5q-18 -55 -28.5 -87t-16.5 -51.5t-9.5 -32.5t-5.5 -30 q-4 -27 -8 -53t-12 -51q-10 -31 -22.5 -48.5t-34 -25.5t-53 -10t-76.5 -2q-78 0 -124 10t-46 60q0 8 3 21t13 61q6 35 11 51t20 57q16 45 23 70.5t14 50.5q4 16 10 30.5t12 30.5q6 18 13.5 36t15.5 36q6 20 16 47q4 10 8 18.5t9 18.5q4 14 9 27.5t9 25.5q0 2 8 19.5t17.5 37 t18.5 38t11 22.5z" />
<glyph unicode="8" d="M530 1436q2 0 23.5 -1t49.5 -3t52.5 -3.5t34.5 -3.5q33 -10 60 -20q33 -10 45 -15.5t36 -19.5q20 -12 46 -30.5t48.5 -47t39 -69.5t16.5 -99q0 -27 -1 -45t-4 -34.5t-8 -33t-14 -36.5q-10 -23 -21 -43.5t-40 -46.5q-6 -4 -26.5 -21.5t-26.5 -23.5q-4 -2 -5 -4t-6 -7 l-12 -8l-12 -8q-16 -12 -17 -22q0 -4 2.5 -7.5t12.5 -7.5q4 -4 26.5 -15t28.5 -16q10 -6 19.5 -14t19.5 -18q29 -25 38 -33t19 -21q29 -41 45.5 -68.5t23.5 -51t8 -48t1 -59.5q0 -6 1 -28.5t1 -28.5q0 -4 -3 -21.5t-3 -21.5q-2 -10 -2 -20.5t-2 -20.5q-2 -4 -3 -10.5 t-5 -10.5q-6 -16 -10.5 -26.5t-10.5 -20.5t-14 -21.5t-20 -29.5q-20 -29 -36 -46t-44 -38q-4 -2 -17.5 -10t-30 -17.5t-31 -18.5t-20.5 -11q-4 -2 -19 -7.5t-32 -11.5q-20 -8 -43 -14q-4 0 -21.5 -2t-37 -4t-37 -4t-21.5 -2q-6 0 -26.5 1t-28.5 1q-4 0 -21.5 -1t-23.5 -1 q-55 0 -105.5 13t-88 30.5t-62.5 32t-27 18.5q-12 8 -36.5 30.5t-34.5 34.5q-16 16 -33.5 46t-28.5 61q-4 8 -8 28.5t-8 43t-7 47t-3 43.5q0 2 1 17t3 35.5t6 43t10 41.5q4 8 13.5 26.5t21.5 39t27.5 39t29.5 30.5q4 4 16.5 13.5t16.5 13.5q8 4 15.5 8t15.5 8q29 16 40 28.5 t13 24.5q0 16 -14 27q-8 8 -15.5 13t-15.5 12q-6 4 -12 9t-11 9q-29 23 -37 32t-22 27q-10 14 -19.5 29.5t-15.5 35t-10 46.5t-4 68q0 10 2 28.5t6 40.5q8 43 17.5 68.5t31.5 54.5q10 10 28.5 30.5t29.5 30.5q12 10 32.5 22.5t42 23t38 17.5t20.5 9q14 6 41.5 9t57.5 6.5 t57.5 4.5t43.5 1zM522 1180q-8 0 -27.5 -4.5t-40 -15.5t-36 -30.5t-15.5 -48.5q0 -8 5.5 -33.5t19.5 -41.5q2 -2 22.5 -19.5t24.5 -19.5q4 -4 27.5 -17.5t40.5 -13.5q10 0 25.5 9t29.5 21.5t25.5 23.5t15.5 16q8 12 17.5 33.5t9.5 39.5q0 4 -4 25q-4 14 -8.5 20t-20.5 19 q-23 18 -33 22t-41 9q-10 2 -18.5 4t-18.5 2zM528 612q-12 0 -41.5 -11t-60.5 -34.5t-55.5 -59.5t-24.5 -85q0 -12 3 -29.5t13.5 -37t29 -38t48.5 -28.5q53 -16 105 -17q23 0 58.5 14.5t49.5 24.5q10 6 24.5 22.5t18.5 26.5q4 8 9.5 30t5.5 36q0 25 -12.5 53.5t-28.5 48.5 q-23 31 -67 57.5t-75 26.5z" />
<glyph unicode="9" horiz-adv-x="1110" d="M27 885q0 6 1 24.5t2 39t2 36.5t1 21q2 12 7 35.5t13 49t17.5 50t19.5 43.5q6 12 15.5 26.5t19.5 28.5l17.5 24.5t11.5 14.5q14 16 36.5 35.5t44 35t39 26.5t21.5 14q23 12 53.5 21t61 16.5t57.5 10.5t39 3q8 0 16 -1t17 -1h39q53 -4 99 -16.5t80 -27t55.5 -27.5 t25.5 -15q61 -45 97 -93.5t62 -117.5q4 -10 8.5 -19.5t8.5 -19.5q4 -12 7 -20.5t9 -37.5q2 -8 4 -15t6 -17q0 -4 4.5 -27.5t4.5 -32.5q2 -12 5 -36.5t5 -52t3 -51.5t1 -32q0 -4 -1 -29.5t-2 -54t-3 -54.5t-2 -30q-2 -8 -7.5 -37.5t-5.5 -39.5q-4 -35 -11 -70t-17 -70 q-4 -12 -8.5 -22.5l-10.5 -24.5t-17 -35.5t-30 -56.5q-8 -16 -14 -25.5t-14.5 -20.5t-21.5 -25.5t-34 -39.5q-20 -23 -41.5 -44t-58.5 -44q-6 -4 -20.5 -10t-30 -13t-29.5 -13.5t-22 -8.5q-10 -4 -37 -9t-57.5 -11t-60.5 -10.5t-44 -4.5h-23q-4 0 -18 -1t-19 -1h-20t-41 2 q-27 0 -61 3q-57 8 -87 31.5t-34 33.5q-2 4 -3 19.5t-1 33v33.5v23q2 12 1 29.5t-1 29.5q0 23 19.5 43t49.5 20q8 0 39 -4t41 -4q6 0 27.5 2t27.5 2h33q14 0 24.5 1t26.5 6q18 4 30.5 7t23 7t21.5 8t30 12q12 6 20.5 9.5t14.5 7.5t13 8t17 12q33 25 42.5 33t23.5 29 q8 10 21.5 38.5t13.5 65.5q0 25 -8.5 31t-12.5 6t-12 -5t-18.5 -12.5t-19.5 -13.5t-13 -8q-8 -4 -28.5 -10t-46.5 -12.5t-50.5 -11.5t-38.5 -5h-14q-14 2 -27.5 5t-28.5 5q-33 4 -45 6.5t-41 12.5q-4 2 -10 3t-10 3q-10 4 -19.5 10t-19.5 12q-14 8 -29.5 13.5t-27.5 15.5 q-10 6 -33 30.5t-33 35.5q-14 18 -34.5 51t-31.5 49q-14 27 -25 71t-11 87zM512 1128q-6 0 -20.5 -4t-27.5 -9t-24.5 -9t-13.5 -6q-10 -4 -28.5 -26.5t-22.5 -26.5q-4 -8 -7 -18.5t-8 -16.5q-8 -16 -9 -26.5t-1 -18.5q0 -23 7.5 -63t54.5 -87q25 -27 58.5 -39t68.5 -12 q8 0 45 6q29 6 41 10t39 25q35 25 50 47.5t15 79.5q0 45 -22.5 85t-44.5 56q-39 35 -85.5 44t-64.5 9z" />
<glyph unicode=":" horiz-adv-x="512" d="M90 954q0 6 1 17.5t5 23t13.5 19.5t27.5 8q4 0 15.5 -2t15.5 -2q6 0 31.5 2t33.5 2q4 0 15.5 -1t25 -1t24.5 -1t17 -1q4 0 25.5 1t30.5 1q12 0 26.5 -6t14.5 -35v-92q0 -4 1 -20.5t1 -22.5q0 -4 -2 -18.5t-2 -18.5t2 -21.5t2 -21.5v-23q0 -16 -6.5 -26t-13.5 -14.5 t-15 -5.5t-12 -1t-22.5 1t-25.5 1q-16 0 -32.5 -1t-32.5 -1q-6 0 -30.5 1t-33.5 1q-4 0 -23.5 -2t-25.5 -2q-37 0 -42 22.5t-5 53.5v23.5t-2 23.5q0 6 1 27.5t1 27.5q0 10 -2 42t-2 42zM92 215q0 8 -1 31.5t-1 29.5q0 12 12.5 29t38.5 17q4 0 19.5 -1.5t19.5 -1.5t15.5 1.5 t24.5 1.5t24.5 1t17.5 1t33 -2.5t37 -2.5q4 0 18.5 1.5t18.5 1.5q33 0 38 -18.5t5 -63.5q0 -10 1 -43t1 -43q0 -6 -1 -28t-1 -28t1 -25.5t1 -25.5q0 -23 -16.5 -35t-39.5 -12h-92q-2 0 -21.5 1t-42 1t-44 1t-25.5 1q-31 2 -36 18.5t-5 51.5q0 4 -1 16t-1 25.5t-1 25t-1 17.5 t1 28.5t3 28.5z" />
<glyph unicode=";" horiz-adv-x="512" d="M92 958q0 31 15.5 42.5t23.5 11.5q4 0 18.5 -3t18.5 -3q6 0 19.5 1t27.5 1t27.5 1t19.5 1q14 0 32.5 -1t35 -2t28.5 -2l11 -1q25 -4 28.5 -29t3.5 -49q0 -10 3.5 -42t3.5 -42t-2.5 -39t-2.5 -39q0 -4 2.5 -19.5t2.5 -19.5q0 -16 -13.5 -25.5t-25.5 -13.5q-4 -2 -28 -2 h-30q-4 0 -23.5 2t-25.5 2q-4 0 -20.5 -2t-20.5 -2t-13 1t-13 1h-56q-23 0 -35 16.5t-12 28.5q0 4 1 26.5t1 30.5t-3 39t-3 41q0 4 2 22.5t2 22.5v45zM92 283q0 23 12.5 32t20.5 9q4 0 6 -1t6 -1q10 -2 30.5 -3.5t35.5 -1.5q8 0 31.5 2.5t29.5 2.5q4 0 20.5 -2.5t20.5 -2.5 q10 0 21.5 2.5t21.5 2.5q18 0 33 -9q14 -10 16 -24.5t0 -42.5q-2 -6 -1 -26.5t1 -29.5q0 -4 1 -22t1 -25v-10t-1 -22.5t-2 -23.5t-1 -17q-2 -10 -7 -34t-11 -50.5t-12.5 -50t-12.5 -35.5q-6 -10 -13 -21.5t-13 -21.5q-27 -47 -39.5 -67.5t-28.5 -25.5q-2 0 -13.5 -1 t-25.5 -1h-26.5h-14.5q-4 0 -18.5 -1t-18.5 -1q-14 0 -23 8.5t-9 18.5t12 30.5t14 22.5q6 10 12.5 18.5t12.5 18.5l5 11q5 10 9 22t8 25.5t4 21.5q0 35 -14 40t-43 5q-12 0 -25.5 5t-13.5 40q0 6 1 27.5t1 27.5q0 10 -2 42t-2 42q0 8 2 32t2 32v33v0z" />
<glyph unicode="?" horiz-adv-x="724" d="M238 612q0 4 1 20.5t2 35t3 35t2 22.5q4 37 17 93t26 110q4 16 7 37.5t3 31.5q0 29 -10 52.5t-17 29.5q-6 8 -29.5 20.5t-49.5 12.5q-8 0 -25 -4q-10 -4 -18.5 -9t-18.5 -5h-2q-10 -2 -18 4q-20 8 -21 37v53q0 8 -1 31.5t-1 48t-1 47t-1 33.5q0 29 9 40t26 19l67 27 q8 4 32 7t30 3q12 0 24.5 -2t24.5 -2q4 0 21.5 2t21.5 2h64q12 0 29.5 -2t39.5 -12q16 -6 43 -21.5t43 -32.5q10 -12 28.5 -41.5t22.5 -54.5q0 -2 2 -19.5t5.5 -38t5.5 -38t2 -19.5q0 -45 -10.5 -92t-32.5 -102q-8 -18 -16.5 -37t-16.5 -35q-23 -49 -36 -90t-20.5 -75 t-11.5 -64.5t-6 -61.5q-2 -16 -3 -32.5t-5 -32.5t-4 -21.5v-13.5q0 -4 1 -17.5t1 -17.5q0 -35 -6 -54.5t-41 -25.5h-55q-6 0 -23.5 -1t-24.5 -1q-35 0 -43 14.5t-12 36.5q-8 49 -13 79t-7 47.5t-3 25.5t-1 18zM209 242q0 4 -1 17t-1 17q0 12 7 32t52 20h27q4 0 17.5 2 t17.5 2q6 0 22.5 -1t33.5 -2t31.5 -2t16.5 -1q4 0 19.5 1t19.5 1q27 0 42 -19.5t15 -48.5q0 -6 -1 -25.5t-1 -25.5q0 -10 2 -39t2 -39t-3 -42t-3 -42q0 -4 -3 -16.5t-21 -20.5q-6 -4 -26.5 -5t-44 -3t-46.5 -2h-31h-10q-8 0 -34.5 2t-35.5 2h-28q-37 0 -37 43q0 4 1 21.5 t1 21.5q0 8 -2 35t-2 35q0 4 1 15t1 24.5t1 25t1 17.5z" />
<glyph unicode="A" horiz-adv-x="1193" d="M545 233q-10 0 -22.5 -2t-41.5 -8q-35 -8 -52 -13t-32 -22q-10 -10 -27.5 -51t-21.5 -76q0 -16 -3 -21t-17 -20q-12 -12 -21.5 -15t-50.5 -3h-19.5t-28.5 1t-29.5 1h-20.5t-30 -2t-32 -2t-34.5 4t-28.5 6q-10 6 -21.5 23.5t-11.5 38.5q0 27 8 49q8 20 10 31q4 10 4.5 19 t2.5 19q2 12 3 22.5t3 20.5t9 38t9 38q4 23 5 45.5t5 44.5q2 8 5.5 25.5t8.5 37t9 38t6 26.5q4 12 7 25.5t7 26.5q4 23 7.5 45t7.5 45q0 4 5 26.5t11 48t11.5 49t9.5 29.5q4 10 8 19.5t6 19.5q2 6 2 13.5t2 13.5q0 6 5 29.5t10.5 52t10.5 54.5t7 32t3 13t3 13q4 20 8 35 q4 12 8 24.5t9 24.5q4 12 6 24.5t4 27.5q16 117 50 170t120 53h20.5t30.5 -2q41 -4 93 -2t116 6q41 6 82 -3t69 -32q27 -20 39.5 -42t22.5 -65q6 -20 11 -40.5t11 -42.5q4 -16 11.5 -34t11.5 -34l16 -78q2 -10 2 -18.5t4 -18.5q2 -10 11 -30q4 -10 13 -44t15 -67 q4 -29 6.5 -39t8.5 -33q2 -10 7 -25.5t9 -30.5t7 -28.5t3 -17.5q2 -16 2 -30.5t4 -29.5q4 -10 7.5 -18t7.5 -18q2 -10 9 -38t9 -38q4 -16 4 -31.5t4 -32.5q4 -10 7.5 -20t7.5 -21q4 -16 12 -50t10 -48q2 -16 3 -23.5t5 -17.5q8 -20 17.5 -55t13.5 -60q4 -12 5 -23t5 -22 q4 -10 8.5 -19t6.5 -20q2 -6 4 -30.5t2 -28.5q0 -29 -30 -34t-58 -5q-6 0 -21.5 -1t-34 -2t-35 -2t-22.5 -1q-47 0 -75.5 3t-45 12.5t-27 25.5t-20.5 45q-4 14 -7 27.5t-9 25.5l-12 25q-10 23 -19.5 34t-38.5 23q-8 2 -25.5 5t-37 4t-37 2t-25.5 1h-65zM487 797 q-4 -10 -5 -21.5t-3 -21.5t-4 -21.5t-6 -21.5q-4 -16 -8 -34t-4 -36q0 -53 34.5 -75.5t94.5 -22.5q16 0 43.5 3t50.5 7q16 4 29.5 12t13.5 39q0 16 -2 25q-4 45 -8 67.5t-17 61.5q-4 16 -9 31.5t-9 31.5t-6 32.5t-6 33.5q-4 10 -7.5 20.5t-7.5 20.5q-4 12 -10 36.5t-10 36.5 q-10 35 -25.5 40.5t-21.5 5.5q-20 0 -35 -23q-6 -8 -13.5 -28.5t-14.5 -43t-12 -40t-5 -19.5l-6 -49q-4 -12 -6.5 -23.5t-4.5 -23.5z" />
<glyph unicode="B" horiz-adv-x="1236" d="M82 682q0 6 -1 21.5t-1 33t-1 33.5t-1 23q0 6 1 22t1 35.5t1 37t1 25.5v23.5t-1 37t-1 37v23.5v107q0 4 1 15t1 15t-1 13.5t-1 13.5t1 20.5t1 20.5q0 12 -1 24.5t-1 24.5q-2 16 -3 39t-1 39q0 27 8 42t19.5 23.5t23.5 10.5t23 2h72.5h61h37t-1.5 0h18.5t18.5 -2h17 q10 0 20 1t21 1q10 2 19 2h20q16 0 31.5 -1t31.5 -1q10 0 42 2t42 2t19.5 -1t29.5 -3q55 -4 93 -7t66 -7.5t47 -11.5t40 -17q14 -6 26.5 -14.5t26.5 -16.5q12 -8 26.5 -14t24.5 -15q10 -8 18.5 -16t18.5 -18q18 -18 28.5 -32.5t18.5 -37.5q6 -16 8.5 -21.5t12.5 -19.5 q12 -23 21.5 -56.5t9.5 -62.5q0 -6 -1 -24.5t-3.5 -40t-5.5 -43t-5 -29.5q-2 -4 -5 -14.5t-8 -22.5t-8 -23.5t-5 -13.5q-10 -23 -36 -53.5t-65 -48.5q-23 -10 -22 -21q0 -6 12 -10q2 -2 20.5 -11t24.5 -15q8 -6 16.5 -12.5t16.5 -12.5q41 -29 58.5 -69t27.5 -74 q8 -29 13 -57.5t5 -92.5q0 -10 -2 -25.5t-12 -66.5q-6 -31 -10 -51.5t-10.5 -36.5t-17.5 -31.5t-30 -40.5q-29 -35 -62.5 -64.5t-92.5 -45.5q-2 0 -21.5 -4.5t-47.5 -9.5t-55.5 -9t-45.5 -4q-16 0 -33.5 1t-34.5 1q-6 0 -27.5 -1t-27.5 -1h-111q-6 0 -18 1t-27.5 1t-29 1 t-19.5 1q-25 0 -50.5 -2t-49.5 -2q-6 0 -19.5 1t-29 2t-28.5 2t-20 1h-14t-24 -2q-12 0 -23.5 -1t-15.5 -1q-29 0 -45.5 15.5t-24.5 34t-11 35.5t-3 24q0 2 1 31.5t3 66.5t3 70.5t1 46.5q0 8 -1 32.5t-1 52t-1 53t-1 36.5q0 8 1 33.5t2 55t2 56.5t1 37zM563 1161h-17t-30 -4 q-25 -4 -48.5 -13t-33.5 -32q-2 -4 -4 -16.5t-4 -25.5t-3 -24l-1 -10q0 -41 8 -66.5t22.5 -38.5t34 -17.5t41.5 -4.5q16 0 29.5 1t28.5 1q6 0 26.5 -1t26.5 -1q18 0 44 6.5t49.5 20.5t39.5 37.5t16 56.5q0 16 -4 36.5t-18 37.5q-4 4 -25.5 21.5t-64.5 27.5q-8 0 -23.5 2 t-33 3t-34 2t-22.5 1zM596 610q-8 0 -26.5 -2t-38 -4t-36 -4t-20.5 -4q-16 -6 -33.5 -22.5t-25.5 -36.5q-6 -16 -5 -36t-1 -36q-2 -4 -3 -16.5t-1 -16.5q0 -10 2 -28.5t4 -28.5q2 -12 5 -24.5t12 -23t27.5 -17.5t51.5 -9h70q10 -2 19 -2h19q6 0 28 2t28 2q29 4 38 6t31 13 q35 14 59.5 37.5t24.5 89.5q0 43 -25.5 82.5t-64.5 56.5q-10 4 -29.5 8t-41 7t-41 5t-27.5 2z" />
<glyph unicode="C" horiz-adv-x="894" d="M33 799q0 12 2 22t6 43q6 39 10 77t15 75q16 57 45.5 108.5t42.5 67.5l16 20q16 21 41 47.5t52.5 53t47.5 39.5q33 20 68 35.5t72 27.5q45 14 77.5 22.5t62.5 11.5t59.5 4t66.5 1q2 0 16.5 -1t30.5 -2t29.5 -2t17.5 -1q27 -6 37 -21.5t10 -62.5q0 -20 -2 -40.5t-2 -41.5 q0 -4 1 -16.5t1 -26.5t1 -26.5t1 -18.5q0 -33 -6 -47q-18 -25 -51 -25q-10 0 -31 4q-16 2 -30.5 4.5t-30.5 2.5q-45 0 -85 -12.5t-73 -30t-56.5 -38t-35.5 -34.5q-4 -4 -13.5 -21.5t-20.5 -37t-21.5 -38t-12.5 -24.5q-8 -23 -11 -64.5t-3 -99.5q0 -25 7 -65.5t25.5 -90 t49 -100.5t76.5 -92q20 -20 49.5 -33.5t57.5 -20.5t49.5 -9.5t27.5 -2.5q8 0 31.5 2.5t31.5 6.5q4 0 15.5 3t15.5 3q29 0 38 -21.5t9 -42.5q0 -4 -1 -22.5t-1 -24.5q0 -4 2 -23.5t2 -23.5q0 -8 -3 -35.5t-3 -36.5v-36q0 -14 -4 -29.5t-31 -30.5q-14 -10 -29.5 -12t-31.5 -2 q-4 0 -23.5 1t-41 1t-41 1t-21.5 1q-14 2 -26.5 3t-26.5 3q-27 4 -43.5 7t-29.5 7.5t-27.5 10.5t-39.5 18q-20 8 -40.5 19.5t-55.5 37.5l-49 43q-16 16 -35.5 28.5t-36.5 29.5q-8 6 -14 13t-14 15q-35 41 -52.5 74t-40.5 76q-23 49 -40 94t-23 113q0 4 -2 19.5t-3 34 t-2 33.5t-1 19t2 23.5t2 25.5t-1 27t-1 27z" />
<glyph unicode="D" horiz-adv-x="1366" d="M82 813q0 8 1 36t1 38v37.5t-1 58.5t-1 59.5v40.5v17.5t1 28t1 27.5v20q0 6 -1 26.5t-2 43t-2 43t-1 28.5q0 27 8 63.5t37 46.5q4 2 30.5 3.5t58.5 2.5t60.5 2t38.5 1q6 0 21.5 -1t34.5 -1q16 -2 31.5 -3t21.5 -1q31 0 61.5 4t61.5 4q4 0 21.5 -1t21.5 -1t16 1t16 1 t18.5 -2t18.5 -2h27q25 0 54.5 -6.5t35.5 -10.5q6 -2 12.5 -4t12.5 -4q12 -4 24.5 -6t24.5 -6q8 -4 15 -9.5t16 -9.5q8 -4 15 -4t15 -4q6 -4 13.5 -7t13.5 -7q8 -4 16 -6t17 -7q6 -4 37.5 -24.5t72.5 -57t84 -90t74 -120.5q2 -4 9 -21.5t16.5 -39t16.5 -40t9 -22.5 q2 -10 6 -33t8.5 -47.5t6.5 -46t2 -29.5q0 -6 -1 -26.5t-1 -26.5q0 -10 2 -38t2 -38q0 -12 -1 -22.5t-2 -21.5t-5.5 -28.5t-10.5 -46.5q-4 -25 -7 -40t-6 -25t-5 -16.5t-6 -14.5q-4 -10 -8.5 -17.5t-8.5 -17.5t-8 -22.5t-8 -22.5q-6 -10 -13.5 -20.5t-15.5 -20.5 q-8 -12 -14 -24.5t-14 -24.5q-4 -6 -19.5 -22.5t-32 -36t-32 -36t-17.5 -18.5q-23 -20 -55.5 -40.5t-48.5 -28.5q-16 -6 -30.5 -11.5t-31.5 -9.5l-43 -18q-16 -6 -35.5 -10t-37.5 -9q-29 -6 -54.5 -10t-60.5 -6t-85 -2h-130h-6q-10 0 -36 1t-55.5 2t-56 2t-39.5 1h-61 q-12 0 -34.5 1t-44 8.5t-37 21.5t-15.5 41q0 8 2 33.5t2 33.5q0 14 -1 48t-2 71t-2 67.5t-1 39.5q0 4 1 36.5t1 65.5q2 37 3 77t1 79q0 6 -1 19.5t-2 28.5t-2 28.5t-1 19.5t2 28.5t2 30.5v29zM582 1092q-10 0 -28.5 -1t-39.5 -4q-16 -4 -22.5 -6t-16.5 -12 q-18 -16 -31.5 -35.5t-17.5 -75.5v-17v-27.5v-27v-18.5q0 -8 -1 -29.5t-2 -46t-2 -47t-1 -30.5v-66t1 -75.5t2 -74.5t5 -63q2 -23 7 -43t25.5 -35.5t64.5 -25.5t122 -10h24.5t24.5 2q29 4 74 20t68 29q43 27 70.5 73t43 94t21.5 88t6 52q0 10 -1 42t-5 48t-7 29.5t-8 29.5 q-2 10 -3 19.5t-5 19.5q-6 12 -14 23.5t-16 23.5q-6 8 -15 25q-16 27 -28.5 38t-38.5 28q-4 2 -14.5 10t-21.5 17t-21.5 16.5t-14.5 9.5q-18 10 -46 16t-54.5 10.5t-50 5.5t-33.5 1z" />
<glyph unicode="E" horiz-adv-x="1024" d="M539 1444q6 0 32.5 2t34.5 2t36 1t38 1q6 0 24.5 -1t39 -2t39 -2t26.5 -1q10 0 41 2t41 2q37 0 53.5 -18.5t16.5 -49.5q0 -6 -1.5 -30.5t-1.5 -32.5q0 -6 1.5 -19.5t2.5 -29t2 -28.5t1 -19q0 -18 -3.5 -25.5t-19.5 -28.5q-8 -10 -11 -13t-16 -7q-12 -4 -22 -7t-27 -3 q-8 0 -30.5 1t-30.5 1q-4 0 -17.5 -1t-28 -1t-27.5 -1t-19 -1q-14 0 -23 2q-14 0 -26.5 2t-26.5 4t-26.5 2h-26.5q-86 0 -117 -18.5t-31 -82.5q0 -37 1 -61.5t7.5 -40.5t20.5 -25.5t39 -13.5q35 -4 45 -5t31 -1q6 0 21 1t32.5 2t34 2t22.5 1q4 0 17.5 -1t29 -3t28.5 -3 t19 -1q20 0 41 2t41 2h30.5t27.5 -4q4 -4 20.5 -18.5t16.5 -42.5q-2 -14 -3 -25q0 -10 -1 -19.5t-1 -13.5q-2 -25 -2 -37v-45q0 -12 -1 -18t-3 -23q-2 -10 -5 -22.5t-12 -23.5t-25.5 -19t-47.5 -8h-104q-6 0 -26.5 1t-27.5 1q-4 0 -21 -1t-22 -1q-6 0 -31.5 3t-33.5 3 q-16 0 -30.5 -2t-31.5 -2h-16q-10 0 -23.5 -3.5t-19.5 -7.5q-14 -6 -21.5 -17t-10.5 -24.5t-4 -25.5t-1 -19q0 -49 2 -82.5t17.5 -54t49.5 -30t95 -9.5q10 0 42 1t42 1q8 0 33.5 -1t36.5 -1h21.5t32.5 1t32.5 2t21.5 1q10 2 21.5 2h21.5q8 0 39 -6t45 -33q10 -23 12.5 -47 t2.5 -39v-14q2 -14 5 -28.5t5 -28.5v-53q0 -10 -1 -21.5t-8.5 -22t-21.5 -17.5t-39 -7q-4 0 -13 1t-20 1q-10 2 -21 2h-16q-4 0 -17 -1t-30 -1q-16 -2 -29.5 -3t-19.5 -1q-4 0 -17 1t-30 1q-16 2 -29.5 2h-19.5q-2 0 -28.5 -1t-59.5 -1q-35 -2 -64.5 -3t-37.5 -1 q-10 0 -35 1t-54 3q-29 0 -54 1t-36 1h-65q-20 -2 -39 -2h-27t-25.5 2t-33.5 16q-12 10 -22.5 33t-10.5 45q0 6 1 27.5t1 28.5q0 18 -2 35.5t-2 35.5v37q0 6 -1 18.5t-1 27.5t-1 27.5t-1 18.5q0 27 1 61.5t1 61.5q0 6 1 26.5t1 26.5v16.5t-1 26t-1 25.5v18q0 8 -1 37t-1 39 v141v17.5t2 17.5q0 6 2 27.5t2 28.5q0 10 -3 42.5t-3 43.5q0 25 2 48t2 46q0 4 1 19.5t1 32.5t1 32.5t1 19.5q0 6 -1 20.5t-2 32t-2 32t-1 20.5q0 47 3 63.5t7 22.5q4 10 20.5 30.5t51.5 20.5q10 0 39 -1t39 -1q6 0 22.5 1t35 1t35.5 1t23 1t20.5 -1t30 -1t30 -1t20.5 -1h76 z" />
<glyph unicode="F" horiz-adv-x="937" d="M692 1436q6 0 29.5 2t32.5 2q14 0 26.5 -1t26.5 -1q6 0 30.5 1t32.5 1q25 0 39.5 -9.5t21.5 -22.5t8 -26.5t1 -21.5q0 -4 -1 -15.5t-1 -24.5t-1 -25.5t-1 -18.5t1 -28.5t1 -30.5q0 -35 -18.5 -50.5t-22.5 -17.5q-16 -10 -35.5 -10t-40.5 -2q-12 0 -24.5 -1t-24.5 -1 q-8 0 -34.5 2t-35.5 2q-8 2 -16 1t-16 1q-10 0 -17.5 1t-17.5 1q-4 0 -17.5 -1t-17.5 -1h-16.5t-25.5 1t-25.5 1h-18.5q-16 0 -33.5 -3t-23.5 -7q-16 -8 -27.5 -33t-11.5 -84q0 -66 19.5 -88.5t29.5 -28.5q14 -6 42 -11t56 -5q6 0 20.5 1t30 1t29.5 1t21 1q8 0 37.5 -3 t39.5 -3q8 0 35 4t37 4q31 0 40 -6t13 -11q6 -6 10.5 -20t4.5 -27q0 -10 -2 -21t-2 -24v-43q0 -8 -3.5 -31.5t-3.5 -31.5q-2 -10 -1 -19.5t-3 -19.5q-12 -45 -63 -45h-141q-8 0 -33 1t-33 1q-70 0 -96.5 -11.5t-38.5 -21.5q-10 -10 -14.5 -15t-10.5 -22q-10 -25 -12 -42 t-2 -70q0 -4 -1 -14.5t-1 -23t-1 -23.5t-1 -17v-72q0 -8 -1 -31.5t-1 -31.5q0 -6 1 -26.5t1 -27.5q0 -4 1 -16t1 -16v-45q0 -16 -6 -38t-43 -26q-6 -2 -25.5 -1t-25.5 1t-18.5 -1t-28 -1t-29 -1t-19.5 -1q-4 0 -21.5 1t-21.5 1t-21.5 -1t-21.5 -1q-23 0 -36 8t-19 18.5 t-7 20.5t-1 14q0 2 1 17.5t2 34l2 37t1 24.5q0 20 -1 39.5t-1 40.5q0 10 -1 27.5t-1 38v39v28.5v25.5t1 41t1 40v26.5q0 6 1 19.5t2 30t2 30.5t1 20q0 10 -1 20.5t-1 20.5q-2 33 -3 65t-1 62q0 14 1 54.5t2 85.5t2 85t1 56v23.5t-1 38t-1 38v23.5q0 8 1 35.5t1 38.5v10 q0 8 -3 36.5t-3 39.5q0 10 5 26.5t9 24.5q12 27 37 32t92 5q6 0 28.5 -1t31.5 -1q6 0 29.5 1t31.5 1q14 0 27.5 -1t27.5 -1q6 0 20.5 1t31 1t31 1t20.5 1q10 0 42 -2t42 -2h104z" />
<glyph unicode="G" horiz-adv-x="1366" d="M45 829q0 8 2 26.5t4 39t4 39t4 29.5q2 10 7.5 30.5t12.5 43t14 43t13 30.5q20 37 39 64.5t39 52.5t46 48t50.5 40.5t42 29t23.5 15.5q14 8 33.5 16t34.5 17q23 12 46 22t46 17q2 0 20.5 4t44 8t54 7t55.5 3q10 0 44 2t44 4q10 0 20.5 -1t20.5 -1q8 0 36.5 2t39.5 2 q14 0 49 -1t59 -1q45 -2 75 -5t51.5 -9t36.5 -15.5t34 -23.5q23 -16 32 -32.5t9 -45.5q0 -8 -1 -33.5t-1 -35.5v-29q0 -10 2 -39t2 -39q0 -16 -12.5 -33.5t-40.5 -17.5q-4 0 -14.5 1t-21.5 2t-20.5 3t-11.5 2q-10 2 -18.5 4t-18.5 4t-21.5 2t-21.5 2q-10 0 -22.5 2t-24.5 4 l-31 7q-12 2 -24 5t-25 5q-12 2 -22.5 2h-46.5q-4 0 -24.5 1t-29.5 1q-6 0 -20 -2t-28.5 -4t-27 -5t-14.5 -3q-10 -2 -21.5 -5.5t-21.5 -7.5t-19 -5t-20 -5q-16 -4 -29.5 -12t-27.5 -19q-53 -35 -71.5 -56t-30.5 -46q-8 -14 -13.5 -23.5t-8.5 -17.5t-6 -17.5t-7 -25.5 t-7 -29.5t-4.5 -30t-2.5 -40t-1 -60.5q0 -12 2 -20t4.5 -15.5t4.5 -15.5t2 -15t4 -16q2 -4 3 -8t3 -8q4 -14 7 -28.5t7 -26.5q6 -12 13.5 -23.5t15.5 -21.5q6 -10 12 -16.5t13.5 -14.5t17.5 -19.5t29 -29.5q16 -18 47.5 -37t65.5 -35t60.5 -27.5t32.5 -13.5q2 0 20.5 -2 t40 -3t40 -2t22.5 -1q8 0 22.5 1t29 6t26.5 15.5t19 26.5q4 12 7 42t3 40q0 37 -1 50t-5 30q-4 18 -9.5 30.5t-17.5 19.5t-35.5 11t-64.5 4q-16 0 -29.5 13.5t-13.5 42.5q0 8 1 28.5t2 42t2 39.5l1 17q0 4 -1 22.5t-1 22.5q0 45 21.5 63.5t37.5 18.5q6 0 25.5 -2t25.5 -2h68 q8 0 33.5 -2.5t34.5 -2.5q6 0 22 1t34.5 3.5t36 3.5t23.5 1q33 0 62.5 -10.5t42.5 -45.5q4 -14 5 -42.5t1 -84.5v-16t1 -25.5t1 -24.5v-18q0 -25 -1 -50t-1 -50q0 -6 1 -19.5t1 -28.5t1 -28.5t1 -19.5q0 -14 -1 -27.5t-1 -25.5q0 -4 1 -21.5t1 -22.5q0 -4 -2 -22t-2 -25 q0 -4 1 -21.5t1 -23.5q0 -2 -1 -22.5t-2 -45t-2 -46t-1 -25.5q-2 -35 -4 -51.5t-6 -28.5q-10 -16 -33 -33.5t-45 -21.5q-4 0 -22.5 -1t-43 -2t-49.5 -1h-39h-16.5h-25.5h-25.5h-18.5q-8 0 -33.5 -2t-36.5 -2h-4q-4 0 -25.5 3t-47 6t-48 6t-26.5 3q-41 8 -81 20.5t-81 28.5 q-16 6 -30.5 11.5t-30.5 11.5q-4 2 -27.5 17.5t-53.5 33.5t-56.5 35.5t-34.5 23.5q-4 2 -13.5 9.5t-19.5 14.5t-19 14l-8 7q-4 2 -18 18.5t-30.5 37t-33 43t-24.5 39.5q0 2 -10.5 23.5t-22.5 48t-23.5 50t-13.5 29.5q-12 37 -15 51.5t-7 44.5q-4 14 -7.5 29t-5.5 31 q-4 16 -4 32.5v32.5q0 4 -2 16.5t-3 26t-2 25.5t-1 18z" />
<glyph unicode="H" horiz-adv-x="1366" d="M84 1321q0 18 2 49t12 43q10 14 34 18.5t26 4.5q6 0 28.5 -1t28.5 -1q4 0 20.5 -1t20.5 -1t20.5 2t20.5 2t14.5 -1t14.5 -1h34h20.5t20.5 -2q6 -4 20.5 -17.5t14.5 -46.5q0 -20 -2 -31q0 -2 -1 -25.5t-2 -52t-2 -53.5l-1 -24q0 -4 1 -28t2 -52.5t3 -53t2 -26.5 q2 -37 12.5 -58.5t25.5 -31.5t32.5 -12t34.5 -2h102q6 0 21.5 -1.5t33 -2.5t34 -2t22.5 -1q23 0 58.5 4.5t64.5 18.5q45 25 53 58.5t8 49.5v21.5t-1 33t-1 34v22.5t1 29.5t1 29.5t-1 24.5t-2 39t-2 39t-1 26.5q0 23 1 38.5t11 25.5l14.5 14.5t26.5 10.5q12 0 19 -3 q6 -2 16 -2h9t13 2q6 0 12.5 1.5t10.5 1.5q16 0 25.5 -1.5t13.5 -1.5q2 0 12 -2t14 -2q10 0 20.5 2t20.5 5q8 2 23 2q43 0 66.5 -10.5t23.5 -67.5q0 -6 -1 -21.5t-2 -34t-2 -35t-1 -22.5q0 -4 1 -15.5t1 -24.5t1 -24.5t1 -17.5q0 -8 -1 -27.5t-2 -42t-2 -43t-1 -28.5 q0 -6 1 -19.5t1 -30t1 -30.5t1 -20t-1 -19.5t-1 -29t-1 -29t-1 -19.5v-16t1 -26.5t1 -27v-18.5v-23.5t-1 -37t-1 -38v-24.5v-75q0 -8 -1 -33t-1 -33t1 -31.5t1 -29.5q0 -31 -2 -61t-2 -58q0 -8 1 -28.5t2 -43t2 -44t1 -30.5v-80q0 -23 -13.5 -44t-52.5 -21q-6 0 -28.5 1 t-28.5 1t-21.5 -1t-32 -1t-32.5 -1t-22 -1q-23 0 -53.5 4t-47.5 25q-2 4 -12 27.5t-10 41.5q0 6 1 24.5t2 40t2 42t1 28.5q0 6 -1 31t-1 33t1 34.5t1 37.5v24.5t-1 39t-2 37.5t-1 23q-4 39 -20.5 51.5t-18.5 14.5q-2 0 -13.5 2t-23.5 4q-16 2 -35 6q-6 2 -28.5 1t-28.5 -1 q-4 0 -19.5 1t-19.5 1h-66q-6 0 -29.5 1t-31.5 1q-10 0 -48 -3t-61 -15q-16 -10 -27.5 -25.5t-17.5 -32t-9 -30.5t-3 -21q0 -8 1 -16t1 -18q0 -4 -1 -18.5t-1 -18.5q0 -6 1 -25.5t1 -25.5t-1 -21.5t-1 -32t-1 -32t-1 -21.5v-19.5t1 -28.5t1 -28.5v-19.5q0 -59 -12.5 -87 t-59.5 -30q-8 -2 -38.5 0t-41.5 2h-25.5t-41 -1t-41 -1h-27.5q-47 0 -53 33q-2 2 -5 22.5t-3 28.5q0 6 1 23.5t1 36t1 36t1 25.5q0 23 -1 43t-1 43q0 6 1 22.5t1 35t1 35.5t1 26q0 6 -1 30.5t-1 53t-1 56.5t-1 38q0 4 2 29.5t2 29.5q0 6 1 26.5t2 45t1 47.5v29q0 8 -1 33.5 t-2 53t-2 52.5t-1 35q0 8 1 27.5t2 41t2 41t1 27.5q0 6 -1 21.5t-1 32t-1 31.5t-1 21v107z" />
<glyph unicode="I" horiz-adv-x="512" d="M76 946q0 6 1 19.5t2 30t2 29.5t1 19q0 23 -2 46.5t-2 46.5q0 8 3 36.5t3 36.5t-1 27.5t-3 42.5t-3 42t-1 28q0 27 15 56.5t40 33.5q4 0 18.5 -1t18.5 -1q8 0 35.5 1t36.5 1q20 0 40.5 -1t41.5 -1q4 0 21 1t24 1q16 0 24 -6.5t17 -16.5q12 -16 18 -27.5t6 -35.5 q0 -8 -1 -36t-1 -38q0 -8 1 -33.5t1 -36.5q0 -6 -1 -19t-1 -29.5t-1 -31t-1 -20.5q0 -35 2 -72t2 -71v-18.5t-1 -27t-1 -26.5v-18v-78v-17.5t-1 -28t-1 -26.5v-18t1 -24.5t1 -38t1 -38t1 -26.5v-26.5t-1 -44.5t-1 -43v-26q-2 -14 -3 -27.5t-1 -27.5q0 -4 1 -16.5t1 -26.5 t1 -26.5t1 -18.5v-168q0 -8 3 -34.5t3 -37.5q0 -29 -20.5 -44t-42.5 -15q-4 0 -24.5 2t-26.5 2q-10 0 -41 -2t-41 -2q-6 0 -28 2t-28 2q-4 0 -22.5 -2t-22.5 -2q-33 0 -48 19.5t-17 31.5q-2 4 -2 23.5v21.5q0 16 1 29.5t3 28.5q2 20 3 39.5t1 39.5q0 12 -1 45t-1 71t-1 72 t-1 48q0 4 2 17.5t2 17.5q0 6 -3 25.5t-3 25.5q0 8 1 30.5t3 49.5t3 50.5t1 33.5q0 37 -3 72.5t-3 70.5v84z" />
<glyph unicode="J" horiz-adv-x="724" d="M287 840q0 4 1 20.5t1 20.5q0 10 -1 21t-1 24q-2 16 -3 27.5t-1 22.5v24.5v35.5q0 6 -1 23.5t-1 36t-1 36t-1 23.5v19.5t1 29t1 29.5v20q0 8 -1 25.5t-1 37t-1.5 37t-1.5 23.5q0 41 31 55.5t94 14.5q4 0 12.5 -1t18.5 -1q10 -2 19.5 -3t13.5 -1q6 0 19.5 1t29.5 3t29.5 3 t17.5 1q20 0 45 -16.5t25 -49.5q0 -8 -2 -37.5t-2 -39.5q0 -6 1 -22.5t1 -35t1 -35t1 -22.5v-19.5t-1 -30t-1 -30.5v-20t2 -29t2 -29q0 -10 -1 -17t-1 -16q0 -4 1 -17t1 -17q0 -6 -1 -26.5t-1 -27.5v-22.5t1 -35.5t2 -36.5t1 -23.5v-20.5t-1 -32t-1 -33v-21.5t-1 -19.5 t-1 -28.5t-1 -29.5t-1 -20.5q0 -8 1 -36t1 -36q0 -12 -1 -23.5t-1 -21.5v-61q0 -10 -2 -38t-2 -44q-4 -37 -6.5 -57.5t-5.5 -35t-9 -27.5t-18 -34q-29 -51 -52.5 -81t-60.5 -50q-20 -10 -52 -19.5t-50 -13.5q-6 -2 -23.5 -3t-36 -2t-34 -2t-17.5 -1h-67h-23.5t-37 -1t-37 -1 h-25.5q-41 0 -57.5 29.5t-16.5 66.5q0 4 1 20.5t2 35t2 36t1 25.5q4 29 5 44t1 26q0 41 27.5 47t109.5 6q10 0 16.5 1t22.5 5q23 6 39.5 16.5t32.5 47.5q4 10 9 28.5t9.5 38t6.5 36.5t2 26v47q0 23 2 45t2 45q0 8 -2 34.5t-2 34.5t2 34t2 34v31z" />
<glyph unicode="K" horiz-adv-x="1193" d="M74 469q0 6 3 26.5t3 26.5q0 10 -1 18.5t-3 18.5q0 10 -1 33.5t-1 38.5q0 8 1 15t1 13q2 6 5 29t3 29q0 14 -2 27.5t-2 27.5q0 4 1 20.5t1 20.5q0 10 -1 21.5t-3 21.5q0 6 -1 31.5t-1 54.5t-1 55.5t-1 32.5v17.5t1 28t1 26.5v18t-1 25.5t-1 42t-1 43t-1 29.5q0 6 1 27.5 t1 27.5q0 8 -2 30.5t-2 28.5q0 29 13 47.5t42 18.5h10t17 -2q8 -2 14 -2h10l35 2q4 0 16.5 1t24.5 1q6 0 14 -1t13 -1q20 4 45.5 6t29.5 2q27 0 33 -4t16 -17q10 -10 15.5 -19t5.5 -26q0 -10 -4 -30v-20.5t-1 -35t-1 -36v-21.5q0 -8 2 -37t2 -39v-22.5t-1 -36t-1 -36.5v-24 v-14t4 -27q2 -10 7 -22t24 -12q8 0 15 5t13 9q20 18 36 34.5t31 36t34.5 46t50.5 69.5q14 18 27.5 37t27.5 39q6 10 11.5 18.5t13.5 18.5q4 6 15 21.5t23.5 34t25 33.5t16.5 22q4 6 9 13t11 11q4 4 29.5 18.5t56.5 14.5q6 0 24.5 -3t24.5 -3q8 0 37 3t37 3q10 0 39 -2t39 -2 q4 0 17.5 1t17.5 1q12 0 33.5 -6t21.5 -41q0 -10 -6 -28.5t-29 -45.5q-8 -10 -17.5 -21.5t-17.5 -21.5q-6 -6 -18 -23.5t-25.5 -37t-26 -38t-18.5 -24.5q-16 -23 -36.5 -44t-36.5 -44q-6 -10 -13.5 -19.5t-15.5 -19.5t-12.5 -18t-20.5 -31q-10 -16 -22.5 -29.5t-22.5 -29.5 q-8 -10 -14 -21.5t-15 -21.5q-16 -23 -23 -39.5t-7 -48.5q0 -16 4 -30.5t12 -31.5q2 -6 9 -20.5t15.5 -30.5t15.5 -30.5t11 -20.5l12 -37q8 -16 17.5 -29.5t19.5 -30.5q16 -27 29.5 -54t28.5 -56q14 -25 29.5 -49.5t27.5 -50.5q8 -16 13 -26.5t10.5 -19t9.5 -16.5t12 -20 q2 -6 10.5 -22.5t17.5 -35t17 -35t12 -22.5q23 -37 29 -50.5t6 -29.5t-4 -25q-12 -23 -39 -22q-6 0 -29.5 2t-31.5 2q-4 0 -17.5 -1t-28 -1t-27.5 -1t-19 -1q-8 0 -35 2t-37 2q-6 0 -31.5 -3t-34.5 -3q-27 0 -38 16q-4 4 -13.5 18.5t-18.5 33t-17.5 35t-10.5 22.5 q-4 6 -13 30.5t-13 32.5q-4 4 -7.5 9.5t-7.5 11.5t-8 18q-4 4 -6 8.5t-4 8.5q-4 8 -7 16t-8 16q-8 18 -17 36t-19 36q-2 4 -9.5 15.5t-15.5 24.5t-15.5 24.5t-9.5 17.5q-8 12 -13 25.5t-13 25.5q-16 27 -34.5 46.5t-39.5 19.5q-31 0 -41 -27t-12 -49q0 -4 1 -21.5t1 -21.5 q0 -8 -3 -38t-3 -40q0 -4 1 -15.5t1 -24.5t1 -24.5t1 -17.5q0 -4 -1 -21.5t-1 -23.5l1 -15q1 -16 2 -33t2 -33.5t1 -18.5q0 -6 2 -17.5t2 -15.5q0 -25 -16.5 -50.5t-38.5 -29.5q-6 -2 -16.5 -2t-20.5 -2q-4 0 -18.5 1t-18.5 1q-8 0 -36 -2t-36 -2q-6 0 -26.5 2t-26.5 2 t-23.5 -3t-23.5 -3q-10 0 -16.5 2t-10.5 4q-6 4 -17 19.5t-11 27.5t2 19l1 17q1 17 2 37.5t2 38t1 19.5q0 10 -1 35t-2 53.5t-1 54v35.5v109z" />
<glyph unicode="L" horiz-adv-x="937" d="M360 1444q35 0 54.5 -19.5t19.5 -54.5q0 -8 -3 -39t-3 -41q-2 -6 -1 -29.5t1 -31.5q0 -16 -1 -30.5t-1 -31.5q-2 -16 -2 -30.5v-28.5v-123q0 -6 2 -28.5t2 -28.5v-22q0 -21 1 -48t1 -49.5v-24.5q0 -10 -2 -38.5t-3 -61.5t-3 -61.5t-2 -40.5q0 -8 1 -29t3 -44.5t4 -46 t2 -30.5q2 -37 10.5 -58.5t40.5 -31.5q10 -4 23.5 -4h60.5q8 0 33 -1t33 -1q10 0 38.5 2t39.5 2q4 0 15 -1t23.5 -1t23.5 -1t17 -1t32 2t34 2q23 0 35 -7t18 -18.5t7 -21.5t1 -17v-23t-2 -26q0 -6 -4 -32.5t-4 -36.5t4 -42t4 -42q0 -31 -15 -52.5t-73 -21.5h-16t-26.5 1 t-27 1h-18.5q-27 0 -53.5 -1t-52.5 -1q-6 0 -23.5 1t-37 1t-37 1t-25.5 1q-16 0 -33.5 -1t-34.5 -1q-4 0 -22.5 1t-24.5 1q-4 0 -25.5 -1t-27.5 -1q-4 0 -17.5 1t-27.5 1t-26.5 1t-18.5 1q-4 0 -16.5 -1t-26.5 -2t-26.5 -2t-18.5 -1q-31 0 -48.5 13.5t-25.5 31.5t-9 35.5 t-1 25.5q0 6 1 23.5t2 37t2 37t1 25.5v119v17.5t1 28t1 26.5v18q0 23 -1 45.5t-3 44.5q-2 16 -2 31.5v32.5v25.5v41t1 42t1 30.5q0 8 1 29.5t1 25.5v16.5t-1 27t-1 26.5v18q0 18 1 38t1 40q0 6 -1 22.5t-2 35t-2 36t-1 25.5q0 6 2 30.5t2 33.5q0 4 -2 22.5t-2 24.5v55 q0 8 1 30.5t1 30.5t-2 37t-2 39q0 6 3 17.5t10 22.5t19.5 18.5t30.5 7.5h127h26.5t24.5 2q10 0 21.5 1t21.5 1z" />
<glyph unicode="M" horiz-adv-x="1536" d="M84 797q0 6 2 31.5t2 35.5v17.5t1 30t1 29.5v17q0 6 -1 27t-1 29q0 4 1 21.5t1 21.5q0 6 -1 25.5t-3 25.5v68q0 12 -2 41.5t-4 62.5t-3 59.5t-1 30.5q0 23 8 35t33 29q14 10 33 10h12h2l2 -2h4h6h19.5t32 1t29.5 1h17h7q4 0 7 1t7 1q8 0 20 2q18 0 31.5 -2t27 -14.5 t30 -37t42.5 -67.5q14 -23 35 -52.5t35 -51.5q6 -10 11 -20.5t12 -20.5q6 -10 14 -20.5t16 -20.5q6 -8 24.5 -34t24.5 -34q18 -27 45 -61.5t48 -61.5q16 -23 37.5 -47t39.5 -24q23 0 39.5 22.5t26.5 40.5q4 6 14.5 20.5t21.5 31t21.5 31.5t14.5 22l12 20l12 20 q10 16 21.5 31t21.5 31q4 10 9.5 18.5t9.5 16.5q10 20 20 38.5t21 37.5q12 25 22 49t25 47q10 14 20 33q4 8 8.5 15t8.5 13q4 4 20.5 15.5t38.5 11.5q6 0 20.5 -1t32 -1t31.5 -1t20 -1q14 0 27.5 2t26.5 2q6 0 23.5 -2t21.5 -2q29 0 48 -21.5t19 -42.5q0 -4 -2 -29.5 t-2 -33.5q-2 -29 -2 -56.5v-56.5v-137q0 -4 -1 -17.5t-3 -27.5t-3 -27.5t-1 -19.5q0 -10 1 -36t3 -55.5t3 -55t1 -38.5q0 -8 -1 -37.5t-1 -39.5t1 -37t2 -57.5t2 -58.5t1 -40v-28.5t-1 -43t-1 -44v-29.5v-27q0 -6 -2 -20.5t-4 -32t-4 -32.5t-2 -21t2 -20.5t3 -31t3 -32 t2 -21.5q0 -4 -1 -21.5t-1 -23.5v-20q0 -35 -25.5 -52.5t-72.5 -17.5h-19.5t-28 1t-27.5 1h-19h-58q-4 0 -22.5 -1t-24.5 -1q-12 0 -29.5 12.5t-17.5 46.5q0 6 -2 27.5t-2 28.5q0 4 1 17t1 27.5t1 28t1 19.5q0 10 -1 37.5t-1 36.5q0 10 2 40.5t2 40.5q0 14 -1 28.5t-1 29.5 q0 8 2 34.5t2 36.5v70q0 4 -2 18.5t-2 18.5q0 10 -11 22.5t-24 12.5q-29 0 -53.5 -24.5t-34.5 -39.5q-14 -16 -26.5 -32.5t-28.5 -32.5l-31 -31t-22 -29q-31 -45 -47.5 -57t-44.5 -12q-10 0 -25 8q-18 10 -24.5 16t-22.5 29q-8 12 -21.5 29.5t-28 36t-29.5 36t-26 29.5 q-6 6 -12 11t-10 12q-6 6 -11.5 13t-11.5 15q-33 47 -51 65.5t-35 18.5q-10 0 -23.5 -4t-19.5 -10q0 -2 -10 -20.5t-10 -63.5v-109q0 -10 1 -42.5t1 -43.5q0 -6 -2 -19t-3 -28.5t-3 -29t-2 -19.5q0 -10 1 -36.5t1 -57.5t1 -57.5t1 -38.5q0 -6 1 -30t1 -30q0 -33 -22.5 -46 t-43.5 -13q-4 0 -19.5 1t-31.5 3q-16 0 -32.5 1t-22.5 1q-4 0 -16.5 -1t-26.5 -1q-12 -2 -24.5 -3t-18.5 -1q-37 0 -47.5 9t-20.5 26q-8 16 -10 23t-2 20v22.5t1 36t1 36.5v23q0 8 -1 34t-1 34q0 35 3 66.5t3 64.5v23.5t-1 38t-1 38v25.5v80q0 8 -1 36.5t-1 39.5q0 23 2 42 t2 42q0 4 -1 20.5t-1 22.5z" />
<glyph unicode="N" horiz-adv-x="1323" d="M74 1300q0 6 -3 30t-3 32v24.5t4 22.5t14 21.5t27 11.5q4 0 20.5 -3t22.5 -3h12q6 2 18 2h15h16l4 -2h12h8.5t14.5 2h27q10 0 32.5 -1t32.5 -5q4 -2 8 -3.5t9 -3.5q10 -4 19 -2t19 -2t22.5 -14t14.5 -12q6 -8 25.5 -36t39 -59.5t37 -59.5t21.5 -34q8 -8 17 -20 q6 -10 11 -18.5t11 -16.5q14 -25 23.5 -39t15.5 -24.5l10 -17.5t8 -17q10 -20 25.5 -44t32.5 -44q29 -43 55.5 -88.5t48.5 -92.5q4 -8 19.5 -34.5t19.5 -36.5q8 -12 18.5 -27.5t14.5 -15.5q16 0 17 29.5t1 58.5q0 6 1 27.5t1 27.5q0 10 -1 19.5t-1 19.5q0 8 2 31.5t2 31.5 t-3 37t-3 39q0 4 1 16.5t2 26t2 25.5t1 18t-1 20.5t-2 30t-2 29.5t-1 21v29.5v45v44v30.5q0 4 -2 25.5t-2 29.5q0 23 12.5 34t20.5 16q4 2 14.5 2h40.5h54h14t22 -2q10 0 21.5 -1t15.5 -1q10 0 20.5 1t20.5 1q4 0 18.5 2t18.5 2q16 0 34.5 -17.5t18.5 -58.5q0 -6 -1 -18.5 t-2 -28t-2 -28.5t-1 -19v-18.5t1 -30t1 -28.5v-20v-24.5t-1 -40t-1 -39.5v-27v-67v-30.5t-2 -31.5q0 -6 -1 -22.5t-2 -34.5t-2 -35.5t-1 -23.5t1 -20.5t1 -31t1 -32t1 -21.5q2 -33 1 -78t-1 -80q0 -39 1 -93t1 -95q0 -8 -1 -15.5t-1 -13.5q-2 -10 -3 -19t-1 -20 q0 -6 1 -27.5t1 -27.5q0 -8 2 -28.5t4 -44t4 -45t2 -29.5t-1 -19.5t-8 -23t-22.5 -19.5t-43.5 -8h-16.5t-16.5 2q-4 0 -19.5 -1t-19.5 -1q-8 0 -36 2t-36 2q-6 0 -24.5 -2t-24.5 -2q-35 0 -56.5 26.5t-37.5 61.5q-6 14 -11.5 22.5t-9.5 14.5t-10 14.5t-14 22.5 q-18 25 -34.5 51.5t-31.5 52.5q-29 53 -50 88t-23 39q-6 10 -13.5 19.5t-15.5 19.5q-6 10 -12.5 21.5t-14.5 21.5q-10 14 -20.5 28.5t-20.5 29.5l-24 43q-10 16 -21.5 34.5t-21.5 34.5q-12 20 -22.5 41l-20.5 41q-4 8 -9.5 15.5t-11.5 13.5q-6 4 -16 11t-19 7q-2 0 -12 -5 t-14 -34q0 -6 -1 -20.5t-2 -31.5t-2 -32.5t-1 -21.5t1 -27.5t1 -30.5q0 -4 -1 -24.5t-1 -26.5v-47q0 -4 -1 -23.5t-1 -25.5v-13.5t2 -19.5t2 -39.5v-46.5q0 -6 2 -32.5t2 -34.5q2 -8 1 -35t-1 -37q0 -14 2 -21q0 -8 4 -33.5t4 -33.5q0 -25 -22.5 -44.5t-30.5 -21.5 q-4 -2 -19.5 -1t-19.5 1q-6 0 -29.5 -4t-32.5 -4q-4 -2 -22.5 -2h-22.5q-8 0 -35.5 -2t-35.5 -2q-25 0 -38.5 5t-17.5 9q-20 14 -22 26.5t-2 25.5v21v31.5v33v22.5t1 22.5t1 35t1 36t1 23.5t-1 28.5t-1 30.5v51q0 4 1 18.5t1 30t1 29t1 19.5q0 4 -2 27.5t-2 29.5 q-2 14 -2 27.5v25.5q0 41 1 81t3 79q4 33 4 40v17q0 29 -3 57.5t-5 57.5v24.5t1 39t1 39v26.5q0 6 -1 23.5t-1 38t-1 38t-1 25.5q0 4 1 22.5t1 22.5t-1 17.5t-1 17.5v26z" />
<glyph unicode="O" horiz-adv-x="1449" d="M45 756q0 33 10 73q2 10 7.5 34t11.5 48.5t11 46t9 27.5q2 4 7 17.5t12.5 29t12.5 27.5t7 14q4 10 11.5 18.5t13.5 18.5q2 4 8 15.5t14 25.5t14.5 26.5t10.5 16.5q8 10 18 20.5t19 20.5q10 10 18 22.5t19 22.5q10 10 20 17.5t20 15.5t19.5 16t19.5 17q12 10 41 25t50 24 q10 4 21 7t22 7q14 4 27 11t28 12q10 2 37.5 7t57.5 8t53.5 6t27.5 3q6 0 22.5 -2t35 -5t34.5 -6t23 -3q27 -4 52 -7t50 -14q2 -2 24.5 -12t48 -22.5t47 -22.5t25.5 -12q8 -4 22.5 -16.5t30 -26t30 -27.5t24.5 -23q10 -10 18.5 -21t18.5 -22q12 -16 28 -28 q14 -16 23.5 -30.5t19.5 -39.5q6 -12 11.5 -24.5t9.5 -24.5q10 -20 19.5 -38.5t19.5 -39.5q14 -33 20 -76q2 -12 6.5 -50t7.5 -81t5 -79.5t2 -45.5q0 -10 -2 -28.5t-5 -39t-7.5 -39t-6.5 -26.5q-4 -10 -9 -30.5t-11 -42t-12.5 -42t-10.5 -28.5q-10 -25 -26.5 -58.5 t-57.5 -89.5q-6 -10 -23.5 -29.5t-36.5 -39t-38.5 -36.5t-30.5 -24q-14 -10 -29.5 -15t-31.5 -13q-10 -6 -18.5 -12.5t-18.5 -10.5q-2 -2 -18.5 -9t-37 -14t-38 -14.5t-19.5 -7.5q-14 -4 -28.5 -5t-30.5 -5q-10 -2 -18.5 -4t-16.5 -4q-37 -6 -65 -6h-24.5t-34 1t-34 2 t-22.5 1q-18 2 -45 10q-14 2 -27.5 4t-27.5 6q-23 4 -39 12q-20 10 -27.5 13.5t-30.5 9.5q-14 4 -26.5 9t-24.5 14q-14 10 -26.5 20t-26.5 20q-31 23 -51.5 37.5t-35.5 28.5t-30.5 33.5t-38.5 50.5q-12 16 -20 26.5t-14.5 19.5t-12.5 20.5t-14 29.5q-6 14 -14.5 26.5 t-14.5 24.5q-6 14 -12 35t-10 41.5t-7.5 38l-5.5 27.5q-2 16 -4 46t-4 61.5t-3 59.5t-1 44zM381 737q0 -4 1 -16t1 -25.5t1 -25.5l1 -13q2 -18 8 -36.5t10 -36.5q6 -25 11.5 -41.5t9.5 -26.5t8 -20.5t12 -22.5q12 -23 32 -44t38 -38.5t32.5 -28t18.5 -12.5q8 -4 17.5 -4 t19.5 -4q6 -2 11 -4t12 -4q12 -4 20 -6q20 -4 27.5 -5t29.5 -1q4 0 18.5 -1.5t18.5 -1.5h27t33 3q12 2 30.5 10t37 19t33.5 20.5t22 15.5q16 12 32.5 30.5t29.5 35t22.5 30t11.5 17.5q4 6 9 27.5t24 88.5q6 29 8 46.5t2 31.5q0 16 -1 32.5t-1 33.5v26v17.5t-2 17.5 q0 2 -6.5 18.5t-13.5 37t-15 39t-14 28.5q-10 16 -22.5 27.5t-22.5 25.5q-10 12 -20.5 25.5t-22.5 24.5q-6 6 -23.5 14t-36 16t-34 15.5t-17.5 7.5q-6 2 -22.5 4t-33 3t-31.5 1h-20h-27t-24 -4q-20 -4 -31.5 -7t-19.5 -7.5t-15 -8.5t-20 -12q-23 -14 -36 -22.5t-22 -15.5 t-16.5 -14t-15.5 -20q-16 -16 -36.5 -50t-26.5 -48q-10 -18 -12.5 -39.5t-6.5 -44.5q-4 -16 -7 -32.5t-5 -32.5v-13v0z" />
<glyph unicode="P" horiz-adv-x="1236" d="M82 725v31.5t4 27.5q0 8 1 15.5t1 13.5q2 4 0 20.5t-2 20.5q0 8 1 30.5t1 30.5t-3 36t-3 36v44t2 44q0 8 -1 30.5t-1 31.5v28q0 8 -2 27.5t-3 42t-3 43t-2 29.5q0 53 11 74.5t44 39.5q12 6 19.5 9.5t14.5 5.5t17 2h27q4 0 24.5 2t26.5 2h16.5h25.5h25.5h18.5q2 0 12.5 1 t23.5 1t24.5 1t15.5 1t27.5 1t50 2t48 2t25.5 1q16 0 35 -1t37 -1q45 -2 73.5 -3t51 -4t46.5 -10.5t58 -19.5q23 -8 36.5 -13t25.5 -11.5t24.5 -13.5t32.5 -19q35 -20 49.5 -29.5t30.5 -23.5q18 -16 39.5 -44t41 -59t34 -61.5t20.5 -53.5q4 -23 5 -44t5 -44q6 -29 7.5 -58.5 t1.5 -57.5q0 -68 -13.5 -110t-29.5 -81q-10 -25 -17.5 -41t-7.5 -18q-8 -12 -16.5 -22.5t-18.5 -22.5t-17 -24.5t-18 -24.5q-14 -16 -31.5 -28.5t-54.5 -37.5q-33 -23 -54 -35t-46 -19t-57.5 -13.5t-83.5 -14.5q-14 -2 -48 -4t-46 -2q-6 0 -19.5 1t-30 3t-31 3t-20.5 1 h-28.5t-32.5 -2q-33 -6 -42 -12t-20 -17q-16 -16 -19 -24t-7 -35q-2 -14 -3 -20.5t-1 -10.5q0 -2 1 -12t3 -23.5t3 -25.5t1 -19q2 -8 2 -14v-24q0 -6 2 -30t2 -30q0 -29 -4 -46t-18.5 -28.5t-43 -15.5t-77.5 -4q-6 0 -20.5 1t-31 1t-31 1t-20.5 1t-25.5 -2t-25.5 -2 q-16 0 -34.5 21.5t-18.5 56.5q0 10 1 37.5t2 59.5t2 59.5t1 39.5q0 10 -2 42t-2 42t1 40t1 40q0 8 -1 35t-1 35t1 33.5t2 53.5t2 53.5t1 35.5v43zM553 1165q-6 0 -11 -1t-28 -7q-27 -8 -38 -13t-25 -28q-10 -16 -16.5 -28.5t-9.5 -32t-3 -49v-80.5v-35q0 -4 1 -18.5t3 -18.5 v-23.5t4 -23.5q4 -16 20.5 -47t38.5 -45q2 -2 41 -15.5t103 -13.5q4 0 20.5 1t34 3t33.5 4t20 4q10 4 19.5 9.5t19.5 9.5q23 10 30 13t15 13q4 4 8.5 10.5t8.5 12.5q8 10 16 17.5t14 17.5q4 6 4.5 12t4.5 12q10 35 13 61.5t3 67.5v11q0 4 -6 18t-12.5 30.5t-11.5 30.5l-5 13 q-6 10 -12 16t-16 17q-18 16 -30.5 26t-27 17.5t-32 11.5t-44.5 10q-18 4 -33.5 4t-66.5 2q-4 0 -23.5 2t-23.5 2z" />
<glyph unicode="Q" horiz-adv-x="1449" d="M45 764q0 2 1 12t3 22.5t4 24t2 15.5l5 22q6 21 12 46.5t12 47t6 25.5q6 16 13.5 31.5t13.5 31.5q4 8 7 15.5t8 14.5t11.5 18.5t16.5 27.5q2 4 9 15.5t14 23.5t13.5 23.5t10.5 15.5q6 10 14 17.5t17 17.5q2 2 8 10t12 16.5t12 16.5t11 10q10 8 18 14.5t16 12.5t15.5 13 t15.5 13q14 10 43 28.5t57 29.5l37 12q16 6 30.5 13t31.5 12q14 4 43.5 9t60.5 8t55 5l25 2h6l13 -2q12 -2 25 -4t25.5 -4t14.5 -2q35 -4 71 -10.5t70 -20.5q16 -6 31.5 -14t32.5 -17q18 -10 37.5 -17t38.5 -17q10 -8 25.5 -21.5t30.5 -29t28.5 -28t17.5 -16.5 q10 -10 18.5 -22t18.5 -23q6 -6 13 -12t14 -14q14 -14 22 -26.5t18 -35.5q4 -12 9.5 -23.5t9.5 -23.5q6 -16 14 -29.5t17 -29.5q14 -29 24 -70t15 -92q0 -6 2 -35t3 -60.5t3 -59t2 -29.5q0 -47 -20.5 -141.5t-63.5 -194.5q18 -4 33.5 -4h64.5q2 0 17.5 -4.5t15.5 -32.5 q0 -8 -2 -38t-2 -40q0 -6 2 -25.5t2 -23.5q0 -6 -1 -24.5t-1 -24.5q0 -4 2 -22.5t2 -22.5q0 -31 -15.5 -37t-33.5 -6q-16 -4 -25 -4q-41 -8 -92 -9q-33 0 -56.5 4.5t-43 13.5t-40 23.5t-46.5 36.5q-8 -4 -14.5 -5t-14.5 -5q-10 -4 -18.5 -11.5t-18.5 -11.5 q-16 -10 -31.5 -15t-31.5 -11q-12 -6 -24.5 -11.5t-27.5 -9.5q-2 0 -19 -4t-37.5 -7t-39 -7t-20.5 -4q-16 -2 -32.5 -3t-33.5 -1h-13t-26.5 1t-33 2t-29.5 3q-10 2 -21.5 5t-21.5 5q-16 4 -29.5 5t-28.5 5q-16 4 -29.5 11.5t-29.5 13.5q-14 4 -26.5 8t-26.5 10q-23 8 -43 25 q-10 6 -17.5 13t-17.5 13q-8 6 -16.5 11.5t-18.5 11.5q-29 20 -57.5 50t-52 59.5t-39 53t-19.5 30.5q-4 10 -9 18t-9 16q-8 20 -23 41q-16 33 -26.5 82t-15.5 96.5t-6 86t-1 55.5q0 4 -1 22.5t-1 24.5zM1059 791q0 18 -2 26q0 6 -7.5 25.5t-14.5 40t-15 38t-10 21.5 q-10 16 -24.5 30.5t-27.5 31.5q-10 12 -19 23t-21 22q-12 10 -25.5 16t-30.5 14q-23 10 -37 16.5t-31.5 9.5t-44 4t-69.5 1q-12 0 -18 -2q-10 -2 -17.5 -4t-17.5 -4q-16 -4 -23 -6q-6 -2 -17.5 -8.5t-23.5 -13.5t-22.5 -14l-16.5 -11q-25 -18 -47 -46t-33 -47q-6 -8 -10 -16 t-10 -16q-12 -18 -16.5 -26.5t-8.5 -35.5q-2 -10 -3 -20.5t-3 -20.5q-8 -45 -10 -59.5t-2 -24.5q0 -6 1 -19.5t2 -26.5t2 -25.5t1 -16.5l5 -19q5 -18 10.5 -40.5t10.5 -41.5l5 -18q4 -10 10 -23t21 -38q8 -14 23 -31.5t32.5 -34t34 -30t22.5 -15.5q10 -6 19.5 -7t19.5 -5 q8 -2 14.5 -4t12.5 -4q16 -6 35.5 -10t78.5 -4q25 0 41.5 1t27.5 4t20.5 7t23.5 12q-29 29 -44 49.5t-15 40.5q0 2 3 11.5t9 21.5t13 23.5t16 19.5q12 8 20 12q12 10 16.5 13.5t12.5 3.5q20 0 36.5 -7.5t39.5 -27.5q8 -8 17 -15.5t21 -7.5q2 0 4.5 1t4.5 1q6 4 14 27l8 25 q2 6 2 11t2 11q4 20 8 29q2 10 10.5 46t8.5 60q0 16 -1 33.5t-1 34.5v29z" />
<glyph unicode="R" horiz-adv-x="1150" d="M78 788v40t2 42q0 51 4 100.5t6 100.5v32.5t-1 51.5t-1 50.5v33.5t-2 41t-2 41q0 20 1 44t9 43t25.5 31.5t48.5 12.5q6 0 26.5 -2t26.5 -2t27.5 1t27.5 1h16.5t27 -1t26.5 -1h19h67q8 0 36 1t38 1q16 0 39.5 1t40.5 1q6 0 24.5 -1t39 -2t39 -2t24.5 -3q6 0 20.5 -4 t30.5 -8.5t30.5 -8.5t22.5 -6q6 -4 20.5 -10t31 -14.5t29.5 -14.5t15 -6q25 -14 50.5 -34.5t35.5 -30.5q2 -2 11.5 -15.5t20.5 -29t20.5 -28.5t11.5 -15q2 -4 10 -20.5t16.5 -39t15.5 -49.5t7 -49q0 -4 -1 -22.5t-1 -22.5q0 -10 2 -41t2 -41q0 -16 -4 -44t-11 -58.5 t-16.5 -59.5t-19.5 -49q-6 -12 -18.5 -28.5t-25.5 -33t-25.5 -32t-20.5 -23.5q-27 -29 -43.5 -46t-24.5 -27.5t-10 -18.5t-2 -18q0 -23 11 -35t26 -23q33 -25 67.5 -42t44.5 -21t17.5 -5t17.5 -5q23 -14 27 -33t4 -29t-1 -22.5t-1 -22.5q0 -6 2 -26.5t2 -26.5q0 -4 -1 -17.5 t-2 -28t-2 -26.5t-1 -18q0 -4 1 -21.5t1 -21.5q0 -25 -12.5 -38.5t-27.5 -21.5t-28.5 -10t-17.5 -2q-33 0 -63.5 10t-56.5 23.5t-42 27t-22 17.5q-23 18 -63 54t-68 71q-4 6 -10.5 13t-12.5 11q-16 14 -39 27q-4 4 -22.5 18.5t-22.5 18.5q-41 27 -60.5 32t-41.5 5 q-8 0 -17.5 -4.5t-13.5 -6.5q-14 -10 -19.5 -18t-11.5 -23q-10 -20 -12 -33.5t-2 -56.5q0 -10 1 -19t5 -42q2 -6 6 -31.5t4 -34.5q0 -29 -17.5 -43t-37.5 -14q-10 0 -21.5 2t-21.5 4t-20.5 3t-20.5 1q-2 0 -20.5 -1t-22.5 -1q-10 -2 -20.5 -2h-26.5q-8 0 -37 -1t-37 -1 q-18 0 -30.5 8.5t-19.5 19.5t-9 23.5t-2 20.5q0 12 2 24.5t4 24.5q2 10 2 20.5v20.5v16.5t-1 25.5t-1 24.5v17.5q0 20 1 40.5t3 43.5q2 27 3 44t1 26q0 23 -2 47t-2 47v26.5t-1 38t-1 38v26.5t1 34.5t1 36.5q0 4 -1 16.5t-1 27t-1 26.5t-1 18zM504 1137q-6 0 -16.5 -4.5 t-20.5 -8.5q-16 -8 -21.5 -14t-13.5 -23q-10 -27 -13 -37t-3 -28q0 -6 1 -19.5t1 -30t1 -30.5t1 -20t-1 -19.5t-1 -29t-1 -29t-1 -19.5t1 -22.5t2 -34.5t2 -34.5t1 -22.5q2 -14 7 -33t30 -27q8 -4 32.5 -5t26.5 -1h11.5t27.5 4q14 4 21.5 6t25.5 11q8 4 14.5 6t14.5 6 q6 4 12 11t14 11q6 8 13.5 13.5t13.5 11.5q14 10 22.5 22.5t32.5 55.5q10 20 25.5 57t15.5 94q0 14 -5 37t-17 46.5t-35 45t-55 31.5q-33 10 -45.5 12t-34.5 2q-2 0 -15.5 1t-29 3.5t-21.5 3.5z" />
<glyph unicode="S" horiz-adv-x="894" d="M786 1253q0 -6 1 -28.5t1 -28.5q0 -14 -4 -28.5t-20 -24.5q-8 -6 -24.5 -11.5t-32.5 -5.5q-6 0 -11.5 1t-25.5 8q-8 2 -31 4t-47.5 4t-45.5 4l-20 2q-14 0 -28.5 -4t-36.5 -17q-12 -6 -27.5 -21t-15.5 -52q0 -23 13 -49.5t28 -42.5q8 -6 26.5 -19.5t39 -29t35.5 -28.5 l15 -12q6 -4 11.5 -11t11.5 -11q4 -4 10 -6t13 -6q4 -4 21 -21.5t22 -23.5q12 -10 25 -20.5t26 -22.5q35 -35 45 -46.5t20 -27.5q14 -25 27.5 -49.5t23 -53t14.5 -65.5t5 -88q0 -39 -2 -67.5t-12 -51.5q0 -2 -6.5 -16.5t-13.5 -30.5t-13 -30l-6 -15q-6 -10 -20.5 -28.5 t-24.5 -30.5q-29 -35 -63 -63t-38 -30l-19 -9q-18 -9 -43.5 -20.5t-53 -21.5t-46.5 -14q-6 0 -23 -1t-36.5 -2t-38 -2t-24.5 -1q-10 0 -18.5 -1t-16.5 -1q-6 0 -20.5 1t-31 3t-30.5 4t-21 2q-47 4 -73.5 8t-57.5 21q-23 12 -29 22t-6 25q0 6 1.5 28.5t1.5 28.5 q0 14 -1.5 26.5t-1.5 24.5q0 4 1.5 16.5t2.5 26t2 24.5t1 17q0 4 -2 22.5t-2 24.5q0 35 30.5 41t69.5 6q14 0 34.5 -2t49.5 -12q8 -4 15 -6t18 -4h13q13 0 29.5 -1t31 -1h18.5q8 0 27.5 2t39.5 12t35 31.5t15 62.5q0 16 -3.5 26.5t-7.5 25.5q-10 23 -19 35t-36 32 q-4 4 -22.5 21.5t-24.5 21.5q-4 4 -25.5 17.5t-27.5 17.5q-8 6 -27.5 22.5t-41 36t-40 37t-27.5 25.5q-14 10 -29.5 26.5t-27.5 36.5q-29 41 -37 63.5t-16 51.5q-8 27 -12.5 45t-7.5 33.5t-4 30t-1 32.5q0 33 1 53.5t3 35t6.5 25.5t8.5 23q10 29 29.5 68t62.5 76 q25 20 55.5 36.5t60 27t53 16.5t34.5 8q4 0 23.5 3t44 5t50 4t43.5 2q57 0 119 -10t86 -18q29 -10 38 -17.5t13 -23.5q2 -4 0 -22.5t-2 -25.5q0 -4 1 -23.5t1 -23.5v-43z" />
<glyph unicode="T" horiz-adv-x="1024" d="M6 1329q-2 4 -1 23.5t1 25.5q0 41 27.5 53.5t56.5 12.5q6 0 19.5 -1t30 -1t29.5 -1t19 -1h22.5t36 1t37 1h23.5t20.5 -1t32 -1t34 -1t22.5 -1t19.5 1t29.5 1t29.5 1t19.5 1t24.5 -1t22.5 -1q6 0 25.5 2t25.5 2q4 0 19.5 -1t19.5 -1t24.5 1t26.5 1t28 -2t28 -2q4 0 21.5 1 t21.5 1q10 0 39.5 -3t40.5 -3q6 0 29.5 3t31.5 3t14.5 -1t16.5 -5q12 -4 21.5 -9.5t15.5 -25.5q4 -10 4 -21.5v-54.5v-15.5t1 -24.5t1 -24.5v-17.5v-29q0 -4 1 -16t1 -16q0 -27 -18.5 -44.5t-45.5 -23.5q-10 -2 -20 -2h-47q-66 0 -98.5 -4t-55.5 -25q-2 -2 -14 -17t-17 -22 q0 -4 -3 -32.5t-5 -38.5q0 -6 -1 -25.5t-2 -41t-2 -41t-1 -25.5t2 -32t2 -34q0 -6 -2 -29.5t-2 -31.5q0 -16 2 -51t4 -68v-62q0 -8 2 -33.5t2 -35.5q0 -23 -3 -47.5t-3 -48.5q0 -4 1 -16.5t2 -27t2 -26.5t1 -18v-86q0 -6 -2 -29t-2 -29q0 -8 2 -33.5t2 -33.5 q0 -31 -25.5 -48.5t-70.5 -17.5h-57q-4 0 -24.5 -1t-26.5 -1t-28 3t-28 3q-4 0 -20.5 -2t-20.5 -2q-27 0 -36 16.5t-13 32.5q-4 14 -5 19.5t1 21.5v25q0 18 2 35.5t2 35.5v183q0 6 -1 24.5t-1 38t-1 37.5t-1 27q0 4 1 16t2 25.5t2 26t1 18.5q0 14 -1 26.5t-1 26.5 q0 8 3 32.5t3 32.5q0 6 -1 19.5t-2 29t-2 29t-1 19.5v21.5t1 33.5t1 34.5v22.5q0 8 -2 39t-2 41q0 4 1 13.5t1 13.5q0 2 -1 12t-5 22.5t-12 26t-25 23.5q-23 14 -58.5 17t-84.5 3h-20.5t-20.5 -2q-20 -4 -35 -4q-23 0 -52.5 21.5t-29.5 58.5v14q0 13 1 29t1 30.5v20.5v39z " />
<glyph unicode="U" horiz-adv-x="1366" d="M80 1362q0 8 2 14t12 29q8 16 18.5 29.5t39.5 13.5q10 0 18 -2t18 -4t21.5 -2h21.5q4 0 14.5 1t22.5 1q10 2 21.5 2h15.5t19.5 -1t34 -2t33 -3t18.5 -2q35 -16 34 -52q0 -10 -4 -30q0 -6 -1 -32t-2 -54.5t-1 -53v-30.5t1 -24.5t1 -39t1 -39t1 -24.5t-1 -19.5t-1 -30 t-1 -30.5t-1 -21q0 -6 1 -28.5t1 -30.5q0 -4 -1 -15.5t-2 -23.5t-2 -23.5t-1 -17.5t1 -24.5t1 -39t1 -39t1 -26.5q0 -4 -1 -19.5t-1 -19.5q0 -2 2 -20.5t4 -30.5q0 -20 2 -31q0 -12 4.5 -35.5t8.5 -47t8 -44t8 -26.5q12 -23 32.5 -45.5t43.5 -32.5q35 -18 81 -25.5t68 -7.5 q39 0 82 12q29 8 52.5 20.5t52.5 47.5q14 20 22 33.5t12.5 26t5.5 24.5t1 31q0 6 1 20t2 30.5t2 31t1 20.5t-1 29.5t-1 29.5v54q0 4 2 19.5t2 19.5q0 8 -2 31.5t-2 31.5q0 18 1 42t3 40q0 6 2 18.5t3 25.5t2 25.5t1 16.5t-2 25.5t-3 46t-3 46t-2 27.5t1 26t1 41.5t1 40.5 t1 28v15t-1 24.5t-1 24.5v18q0 29 5 46t13 27q8 14 19.5 19.5t48.5 5.5h31h6q2 -2 4 -2h4h4h8q6 0 25.5 1t41 2t40 2t26.5 1q23 0 33 -6t21 -17q6 -10 15 -28.5t11 -40.5v-72q0 -6 -1 -28.5t-1 -28.5v-37l1 -12q1 -11 1 -24v-25.5v-14.5q0 -4 -2 -22.5t-2 -24.5t1 -27.5 t1 -27.5q0 -10 -3 -44t-3 -44v-14.5t2 -24.5q2 -23 3 -42.5t1 -41.5v-42t-1 -58.5t-2 -58.5t-1 -42q0 -8 -2 -33.5t-2 -34.5q0 -4 1 -19t1 -19v-12q0 -13 -1 -27.5t-1 -27.5v-17t-2 -21.5t-6 -38.5l-8 -53q-6 -29 -17.5 -51.5t-32.5 -52.5q-12 -18 -19 -29.5t-14.5 -19 t-16.5 -14.5t-25 -19q-20 -16 -32.5 -25.5t-25 -17t-26 -13.5t-35.5 -16q-16 -8 -26.5 -13.5t-20.5 -8.5t-22.5 -6t-33.5 -7q-39 -10 -71.5 -14t-93.5 -4h-19.5h-29h-29h-19.5q-33 0 -75.5 5t-83.5 11t-73 12t-44 11q-14 6 -27.5 13t-30.5 15q-29 14 -47 24.5t-29.5 19.5 t-19.5 17.5t-16 20.5q-23 27 -31 36t-20 34q-16 27 -24.5 43t-14.5 39q-4 16 -8.5 35.5t-8.5 37.5q-8 35 -13 72t-7 74q0 8 1 36.5t1 37.5q0 16 -1 32.5t-1 32.5q0 4 1 22.5t1 22.5t-1 21.5t-1 23.5t1 29.5t1 30.5q0 16 -1 34.5t-1 34.5q0 14 1 27.5t1 30.5v69q0 8 1 35 t1 35q0 6 -1 18.5t-2 27.5t-2 28.5t-1 19.5v23.5t1 37t1 38v24.5v84z" />
<glyph unicode="V" horiz-adv-x="1110" d="M201 502q-4 16 -9.5 31.5t-9.5 31.5q-4 10 -8 27.5l-8 35t-7 31t-3 17.5q-4 10 -5 22.5t-4 22.5q-4 16 -9 33.5t-9 33.5l-6 43q-2 8 -7 35t-7 37q-4 23 -11.5 47.5t-11.5 46.5q-4 16 -6 30.5t-6 31.5q-2 6 -6.5 31.5t-8.5 33.5q-2 10 -5 21.5t-5 21.5q-4 12 -5 25.5 t-5 26.5q-4 16 -7 30.5t-7 30.5t-10.5 44t-6.5 54q0 35 23.5 51.5t44.5 16.5q4 0 22.5 -2t24.5 -2t30.5 2t32.5 2q4 0 21.5 -1t23.5 -1q4 0 22.5 1t22.5 1q23 0 42.5 -10.5t25.5 -26.5q2 -6 4 -19.5t5 -28.5t6 -28.5t6 -19.5q8 -33 17 -62.5t15 -62.5q0 -6 3 -24.5t6.5 -38 t6.5 -38t5 -26.5t3 -15.5t3 -17.5q2 -12 2 -24.5t4 -26.5q4 -16 10 -33.5t11 -34.5q4 -12 5 -24.5t5 -22.5q4 -16 7 -31.5t7 -31.5q4 -18 5 -37t5 -35q2 -10 5.5 -21.5t7.5 -21.5q4 -16 6 -31.5t6 -31.5q2 -12 6 -31t9 -36t11.5 -28.5t16.5 -11.5q6 0 10 6q2 2 5 12.5 t5 14.5q6 12 15.5 46t19.5 69.5t17.5 64.5t7.5 31q4 18 6 36.5t6 36.5q2 8 9.5 43t16.5 72t16 67.5t7 35.5q4 16 7.5 29.5t7.5 27.5q2 6 4 23.5t5 37t5 37t4 23.5q4 20 10 39.5t11 40.5q2 10 3 19t3 20q8 49 18 74.5t51 25.5h12.5t18.5 -2q10 0 17.5 -1t11.5 -1t11 1t15 1 q10 2 16.5 2h10.5h25h2l2 -2h2h8q4 0 22.5 3t24.5 3q29 0 48.5 -10t23.5 -25q2 -2 5 -17.5t3 -27.5q0 -27 -12 -57q-10 -31 -13.5 -46.5t-9.5 -54.5t-12 -75.5t-17 -73.5q-10 -33 -21 -65.5t-16 -67.5q0 -25 -6 -49q-2 -10 -5 -19.5t-7 -19.5t-4 -22.5t-4 -22.5 q-2 -6 -4 -13.5t-4 -15.5q-4 -8 -8.5 -28.5t-9.5 -43t-9 -43t-6 -26.5q-4 -14 -9 -27.5t-10 -26.5q-4 -10 -9 -35.5t-10 -55t-10 -56.5t-7 -37t-6.5 -26.5t-8.5 -34t-7 -33.5t-5 -23l-25 -79q-4 -14 -6 -27.5t-6 -26.5q-2 -14 -10 -33q-2 -8 -3 -16t-5 -16 q-4 -20 -10.5 -27.5t-24.5 -23.5q-25 -18 -34 -21.5t-32 0.5h-16t-26.5 -1t-27 -1h-18.5q-14 0 -27.5 1t-27.5 1q-4 0 -25.5 -2t-25.5 -2h-64q-6 0 -12 -1t-10 -1q-8 -2 -25 -2q-23 0 -37 7t-30 30q-14 20 -27.5 54t-24 73t-19.5 80t-13 77q-2 10 -3 21.5t-6 21.5 q-4 14 -4 19.5t-4 17.5q0 6 -6 30l-8 32q-4 16 -8 45z" />
<glyph unicode="W" horiz-adv-x="1662" d="M631 686q10 33 16 53.5t9 32.5t5.5 19.5t6.5 13.5q4 25 5 35t7 34l2 25q0 39 -9 86t-22 100l-14 82l-19 62q-4 29 -6 47t-10 72q-4 23 -6 32t-4 25l26 27l35 8q49 -4 87 -7t65 -3l37 4h35l24 -7q14 -16 18.5 -21t10.5 -17q4 -29 6 -39.5t6 -36.5l19 -72l10 -94 q6 -23 10 -38t8 -34.5t9.5 -46.5t13.5 -70q14 -53 23 -98t14 -86q2 -12 4 -23.5t4 -25.5t5 -35.5t9 -58.5q8 -47 12 -63.5t9 -43.5q8 -23 9 -30t3 -27l8 -16l12 2q16 39 20.5 50t8.5 25q4 23 5 32t9 32q2 27 3 36t6 25q0 6 3 22.5t7 35t7 35t3 22.5q8 31 13 51.5t10.5 44 t10.5 54t15 79.5q8 27 13.5 44.5t8.5 30.5t6 24.5t7 29.5q4 16 6 27.5t5 23t6 27t8 39.5q2 14 7 34.5t10 42t9 43t6 36.5l15 20l16 8q33 2 46 3.5t42 3.5l39 4q8 0 68 -6h21t38 2q14 -10 19.5 -15.5t17.5 -19.5l4 -23q0 -16 -5 -43.5t-16 -68.5q-6 -29 -10 -46.5t-7 -33 t-6 -33.5t-9 -47q-8 -35 -11.5 -46t-9.5 -34q-2 -16 -4 -25.5t-10 -37.5q-4 -16 -7 -28.5t-14 -49.5l-9 -45t-16 -78t-20.5 -88t-19.5 -78q-10 -35 -18.5 -61.5t-15.5 -53t-12 -56.5t-9 -69q-6 -29 -10.5 -46t-7.5 -30.5t-5 -26.5t-6 -34q-6 -18 -10 -30.5t-7.5 -24.5 t-8.5 -28.5t-11 -43.5l-10 -37l-17 -22q-20 -10 -32.5 -16.5t-21.5 -9.5t-19.5 -4t-24.5 -1l-57 2h-102.5t-77.5 -2l-27 -4q-16 0 -29.5 4t-31.5 14l-19 21q-6 16 -13 41.5t-13.5 51.5t-11.5 46.5t-7 28.5q-10 29 -12 40t-11 33q-8 25 -10 33t-6 25l-16 14l-15 -16 q-6 -16 -9 -22.5t-9 -22.5q-6 -27 -8 -37t-13 -35q-6 -23 -10 -37t-6 -23.5t-3 -16.5t-3 -15q-6 -29 -9 -39t-9 -35l-27 -35l-41 -18q-35 4 -49.5 5t-48.5 1l-68 -4l-59 4q-23 -2 -31 -2h-31q-14 10 -20 14t-19 15l-28 47q-16 82 -29.5 149.5t-24.5 120.5l-45 170l-24 146 q-10 39 -16.5 63.5t-10.5 42.5t-9 36.5t-11 47.5q-6 20 -10.5 36.5t-9.5 36t-10 47t-13 70.5q-12 53 -19.5 87t-13.5 63t-13.5 60.5t-19.5 82.5l-6 43l2 25l9 15t11 16l21 6q18 -2 26.5 -2t26.5 2l29 -6h47t35 4q27 -2 39 -2t41 -2l32 -19l21 -33q8 -37 13 -59.5t8 -37.5 t4.5 -26.5t3.5 -27.5q4 -18 5 -33.5t11 -64.5q14 -47 29.5 -104.5t27.5 -110.5q6 -18 9.5 -29.5t6.5 -24t6 -27t7 -38.5q4 -23 7 -37t6 -26.5t6.5 -28t9.5 -39.5q6 -25 9 -40.5t5 -26.5t4 -21.5t4 -24.5q4 -25 6 -35t13 -35l6 -24l18 -17q10 14 14.5 25.5t14.5 48.5 q8 20 9 28.5t5 31.5q6 18 9 30.5t5.5 23.5t4.5 23.5t6 30.5z" />
<glyph unicode="X" horiz-adv-x="1193" d="M20 1393q0 20 14.5 35.5t35.5 15.5q4 0 14 -1t20 -1q10 -2 20.5 -3t14.5 -1q10 0 35 1t53 3q29 0 53.5 1t34.5 1q12 0 31 -2t35 -19q6 -6 16.5 -21.5t19.5 -33.5t18 -35.5t14 -25.5q6 -16 12 -30.5t14 -29.5q4 -10 11.5 -20t13.5 -21q8 -14 17 -31.5t11 -21.5 q14 -29 36 -54.5t40 -25.5q12 0 23 17q14 23 27.5 44t23.5 44q6 10 19.5 35.5t17.5 31.5q4 8 9 14.5t9 12.5q2 4 9.5 17.5t16.5 28.5t17 29.5t12 22.5q4 6 6.5 13.5t6.5 13.5q4 10 22.5 26.5t34.5 20.5q2 0 14.5 1t27.5 1h28.5h17.5q6 0 30.5 -2t31.5 -2q6 0 28.5 2t28.5 2 q4 0 22.5 -1t24.5 -1q4 0 18.5 1t18.5 1q8 0 25.5 -6t17.5 -37q0 -16 -6 -30.5t-10 -24.5q-10 -18 -21.5 -35t-24.5 -33q-10 -16 -20 -31.5t-20 -31.5q-23 -35 -42.5 -72t-41.5 -72q-10 -16 -20.5 -31.5t-20.5 -31.5q-16 -20 -25.5 -33.5t-17 -25t-13.5 -24t-16 -32.5 q-6 -10 -18.5 -30.5t-24.5 -41t-23.5 -36t-13.5 -17.5q-4 -4 -7 -8t-5 -8q-2 -2 -5 -14.5t-3 -16.5q0 -10 6 -20.5t14 -20.5q18 -23 29.5 -38t23 -30.5t23.5 -36t33 -51.5q16 -25 35.5 -58.5t35.5 -57.5q10 -18 23.5 -36t25.5 -38q2 -4 8.5 -15.5t12.5 -24.5t12 -25.5 t10 -16.5q2 -4 16.5 -27.5t24.5 -40.5q10 -18 23.5 -35.5t26.5 -33.5q6 -10 18 -33t12 -47q0 -12 -5 -24.5t-27 -12.5q-4 0 -20.5 1t-23.5 1q-8 2 -37.5 1t-39.5 -1q-8 0 -38 2t-40 2q-8 0 -34 -2t-34 -2q-12 0 -28.5 5t-38.5 28q-12 12 -24.5 31.5t-24 38t-19.5 34 t-10 21.5q-4 6 -12.5 18t-17.5 26.5t-18 27t-12 18.5q-8 12 -14 25.5t-14 25.5q-2 4 -8.5 14.5t-14.5 21.5t-14 22.5t-8 15.5q-4 6 -18.5 23.5t-22.5 17.5q-12 0 -21.5 -14.5t-15.5 -28.5q-4 -10 -21.5 -44t-37.5 -73q-23 -45 -54 -100q-10 -20 -16 -40t-16 -40 q-10 -25 -31 -51q-16 -16 -30.5 -19.5t-57.5 -3.5q-6 0 -22.5 1t-22.5 1q-4 0 -21.5 -1t-21.5 -1t-23.5 1t-23.5 1q-10 0 -38 -3t-36 -3q-37 0 -57.5 18.5t-20.5 30.5q0 16 8 31.5t21 38.5q10 14 16 27.5t16 27.5q6 10 14.5 21.5t14.5 21.5q29 43 56.5 86t50.5 90 q8 16 14 31.5t16 30.5q6 12 13.5 24t15.5 25q6 10 11 21.5t12 21.5q10 25 30 51q12 16 18.5 25.5t22.5 37.5q4 6 20.5 31t16.5 35q0 8 -6 17.5t-12 19.5q-2 2 -9.5 14t-15.5 26.5t-15 27t-7 14.5q-4 6 -6.5 13t-6.5 13t-7 11.5t-7 11.5q-6 10 -11 21.5t-12 21.5l-18 31 q-37 59 -58.5 98t-43.5 88q-6 12 -11.5 24.5t-13.5 24.5q-8 14 -17.5 27.5t-19.5 27.5q-10 12 -16 24.5t-15 25.5q-23 33 -31 49.5t-8 36.5z" />
<glyph unicode="Y" horiz-adv-x="1236" d="M438 422q-2 10 -3 20.5t-3 20.5q-2 12 -2 24.5t-4 24.5q-4 10 -9 19.5t-9 19.5q-4 8 -7.5 16t-7.5 17q-4 10 -9 18t-9 19q-14 29 -29.5 66.5t-28.5 66.5q-8 16 -16 30.5t-18 30.5q-10 18 -16.5 36.5t-16.5 37.5q-10 18 -21.5 36.5t-21.5 39.5q-10 16 -18.5 35.5 t-16.5 35.5q-4 10 -7 18.5t-7 18.5q-10 20 -21.5 38.5t-21.5 39.5q-10 16 -16.5 34.5t-14.5 35.5l-10 20t-17.5 33.5t-16.5 32t-9 16.5q-4 4 -5 7t-6 7q-4 6 -4 12.5t-4 12.5q-8 16 -10 23.5t-2 21.5q0 18 17.5 29.5t33.5 11.5h10.5t14.5 -2q8 0 14 -1t10 -1q6 0 19.5 1 t30.5 1q16 2 29.5 2h17.5q8 0 31.5 -1t31.5 -1q12 0 21 2q8 2 14 2q4 0 22.5 -3t28.5 -7q20 -8 27.5 -19.5t21.5 -40.5q10 -18 16.5 -36.5t14.5 -36.5q10 -23 27.5 -52.5t29.5 -52.5q18 -47 35 -88q14 -35 28.5 -68.5t20.5 -44.5q29 -55 39 -65t21 -10q10 0 18 8t12 16t9 21 l12 18q0 2 6 15.5t12 30t12.5 31.5t8.5 19q4 10 7 21.5t7 21.5q6 14 13.5 27.5t13.5 30.5q6 12 11 26.5t11 26.5q2 6 7.5 18.5t12.5 25.5t13 25.5t8 18.5q18 47 30.5 69.5t16.5 26.5q12 14 37 19.5t33 5.5q6 0 12 -1t15 -1q23 -2 47 -2h88q8 0 35.5 2t38.5 2q23 0 43 -4 t20 -23q0 -4 -6 -27.5t-25 -60.5q-10 -18 -17 -37.5t-18 -38.5q-4 -10 -9 -19t-9 -19q-8 -16 -17.5 -39t-17.5 -39q-23 -51 -50.5 -107.5t-47.5 -91.5q-10 -14 -19.5 -28.5t-17.5 -30.5q-10 -23 -19.5 -46.5t-19.5 -45.5q-6 -10 -12 -20.5t-10 -20.5q-4 -8 -7.5 -15.5 t-7.5 -15.5q-8 -16 -16 -29.5t-14 -30.5l-7.5 -15l-7.5 -15q-41 -82 -54 -131t-13 -68q0 -6 1 -25.5t1 -25.5q0 -4 -1 -16.5t-1 -26.5t-1 -26.5t-1 -18.5q0 -4 1 -15.5t2 -24.5t2 -24.5t1 -17.5v-16.5t-1 -25.5t-1 -24.5v-17.5t2 -28.5t2 -28.5q0 -25 -16.5 -47.5 t-43.5 -22.5q-4 0 -21.5 3t-21.5 3t-21.5 -1t-19.5 -1h-71q-8 0 -40 -2t-42 -2q-16 0 -28.5 9t-22 21.5t-14.5 26t-5 21.5q0 4 2 26.5t4 28.5q0 6 -1 29.5t-1 29.5q0 10 3 41t3 41q0 4 -2 22.5t-2 20.5q-2 8 -2 16.5v18.5v72z" />
<glyph unicode="Z" horiz-adv-x="1110" d="M737 0q-6 0 -24.5 -1t-40 -1t-40 -1t-26.5 -1q-6 0 -23.5 1t-37 2t-36.5 2t-24 1q-16 0 -30.5 -1t-30.5 -1q-31 -2 -66.5 -2h-66.5q-10 0 -41 1t-41 1q-6 0 -21.5 -1t-33 -2t-34 -2t-22.5 -1q-25 0 -47 16.5t-24 18.5q-12 10 -14.5 20t-2.5 25q0 4 -1 19.5t-1 19.5 q0 35 7.5 50t25.5 40q10 16 20.5 30.5t20.5 30.5q10 18 25.5 44t25.5 44q8 16 18.5 29.5t20.5 30.5q6 8 16.5 25.5t21.5 38t22.5 41t21.5 36.5q14 29 30.5 53.5t32.5 52.5l19 37q4 6 14 23.5t21.5 37t21.5 37t15 23.5q20 39 38 70q4 4 18.5 23.5t18.5 25.5q2 4 9.5 18.5 t11.5 18.5q25 35 45 70.5t20 52.5q0 35 -67 34q-14 0 -28.5 -2t-29.5 -2q-6 0 -27.5 2t-27.5 2q-18 0 -37.5 -2t-38.5 -2q-10 0 -39.5 4.5t-40.5 4.5q-4 0 -17 -1t-28.5 -3.5t-30 -3.5t-20.5 -1t-20.5 3.5t-28.5 19.5q-6 6 -17.5 21.5t-11.5 25.5q0 8 2 36t2 38q0 4 -2 21.5 t-2 21.5v59q0 4 2 24.5t13 30.5q4 4 16 7.5t19 3.5h26q2 0 2 -2h2h11q8 0 33.5 3t33.5 3q12 0 24.5 -1t24.5 -1q8 0 37 3t39 3q4 0 16.5 -1t25.5 -1t24.5 -1t17.5 -1q8 0 35.5 1t38.5 1q20 0 39.5 -1t40.5 -1q6 0 29.5 1t31.5 1q6 0 32.5 -2t35.5 -2q6 0 25.5 2t25.5 2 q4 0 17.5 -1t17.5 -1q6 0 24.5 2t22.5 2q6 0 24.5 -2t24.5 -2q12 0 25.5 1t27.5 1h23q4 0 11 1t15 1q10 2 16.5 2h10.5q25 0 41 -8t16 -54q0 -33 -3 -63.5t-19 -56.5q-4 -4 -7.5 -9.5t-7.5 -9.5l-12 -18q-4 -8 -10 -15.5t-10 -15.5q-6 -10 -12.5 -21.5t-10.5 -23.5 q-10 -18 -21.5 -35.5t-21.5 -34.5q-4 -6 -13 -22.5t-19.5 -34.5t-20.5 -34.5t-15 -22.5q-4 -6 -7 -12.5t-7 -10.5q-4 -8 -9 -16t-9 -17q-6 -10 -13.5 -21t-15.5 -22q-4 -4 -11 -16t-15.5 -26.5t-15.5 -27t-11 -18.5q-10 -14 -20.5 -28.5t-20.5 -28.5q-4 -6 -11.5 -20.5 t-16.5 -31t-17 -30.5t-10 -20q-10 -16 -18.5 -29.5t-16.5 -30.5q-4 -10 -9.5 -19t-9.5 -20q-6 -8 -11 -16t-9 -16q-4 -6 -15.5 -27t-15.5 -27q-12 -20 -20.5 -35.5t-8.5 -29.5q0 -29 43 -35q6 0 24.5 1t25.5 1q6 0 25.5 -2t41 -3t40 -3t26.5 -2q6 0 22.5 1t36 3t36.5 3t23 1 q4 0 24 -2t26 -2q4 0 27.5 1t25.5 3q6 0 12 1t12 1q8 -2 15 -2h14q4 -2 17.5 -13.5t17.5 -15.5q4 -6 7 -25.5t3 -23.5q0 -6 -2 -30.5t-2 -32.5q0 -6 1 -23.5t1 -37t1 -37t1 -23.5q0 -31 -16.5 -54.5t-57.5 -23.5h-19t-28.5 1t-29 1h-19.5h-168z" />
<glyph unicode="[" horiz-adv-x="641" d="M383 721q0 -45 -2 -107.5t-2 -107.5q0 -6 1 -24.5t2 -38t2 -38t1 -26.5q0 -6 -1 -23.5t-1 -37t-1 -37t-1 -25.5v-16.5t1 -26.5t1 -26.5v-18.5q2 -12 7 -24.5t28 -12.5h24q16 0 29.5 -2t30.5 -2q4 0 15 1t15 1q16 0 25.5 -7t15 -16.5t6.5 -19.5t1 -18q2 -14 2 -25.5v-50.5 q0 -6 1 -28.5t1 -31.5q0 -29 -8.5 -45t-38.5 -16q-6 0 -23.5 1t-24.5 1q-6 0 -30.5 -1t-32.5 -1q-18 0 -36.5 1t-37.5 1q-8 0 -33.5 -1t-33.5 -1q-4 0 -16.5 1t-26 1t-24.5 1t-17 1h-35q-57 0 -66.5 21.5t-9.5 56.5q0 6 2 30.5t4 32.5v16.5t1 20.5t1 19v10q0 4 -2 20.5 t-2 20.5t1 21.5t1 21.5v65q0 4 -1 19.5t-1 19.5q0 6 1 20.5t1 31t1 32t1 21.5q0 16 -2 32.5t-2 32.5q0 6 2 27.5t2 30.5v47q-2 4 -1 24.5t1 24.5q0 23 -2 46.5t-2 45.5v80q0 10 -1 39t-1 37q0 10 1 34.5t3 53t3 54.5t1 36t-1 36.5t-2 56.5t-2 56.5t-1 38.5v15.5t1 25t1 24.5 v17q0 8 -2 38t-2 40q0 12 1 26.5t5 29t14.5 23.5t28.5 9q4 0 18.5 -2t18.5 -2t19.5 1t19.5 1q29 0 56.5 -2t56.5 -2q6 0 18 1t25.5 1t26 1t18.5 1q31 2 61 0h43q10 0 25.5 -5t19.5 -9q10 -8 12.5 -18.5t2.5 -32.5q-2 -4 -1 -14.5t1 -14.5q0 -12 -2 -24.5t-2 -24.5 q0 -10 1 -20.5t3 -20.5v-45q0 -29 -12.5 -32t-34.5 -1h-95q-45 0 -51 -13.5t-6 -23.5v-22.5v-35t-1 -36t-1 -23.5v-108q0 -2 1 -11.5t1 -11.5v-186z" />
<glyph unicode="]" horiz-adv-x="641" d="M250 606q0 45 2 107.5t2 107.5q0 6 -1 24.5t-2 38t-2 38t-1 26.5q0 6 1 23.5t1 37t1 37t1 25.5v16.5t-1 26.5t-1 26.5v18.5q-2 12 -7 24.5t-28 12.5h-25q-16 0 -29.5 2t-29.5 2q-4 0 -15.5 -1t-15.5 -1q-16 0 -26.5 7t-14.5 16.5t-5 19.5t-1 19q-2 14 -2 25v50 q0 6 -1 28.5t-1 31.5q0 29 8.5 45t38.5 16q6 0 23.5 -1t23.5 -1t31 1t33 1q18 0 36.5 -1t37.5 -1q8 0 33.5 1t33.5 1q4 0 16.5 -1t25.5 -1t24.5 -1t17.5 -1h35q57 0 66.5 -21.5t9.5 -56.5q0 -6 -2 -30.5t-4 -32.5v-16.5t-1 -21.5t-1 -19v-9q0 -4 2 -20.5t2 -20.5t-1 -21.5 t-1 -21.5v-65q0 -4 1 -19.5t1 -19.5q0 -6 -1 -20.5t-1 -31t-1 -32t-1 -21.5q0 -16 2 -32.5t2 -32.5q0 -6 -2 -27.5t-2 -30.5v-47q2 -4 1 -24.5t-1 -24.5q0 -23 2 -46t2 -46v-80q0 -10 1 -38.5t1 -37.5q0 -10 -1 -34.5t-3 -53t-3.5 -54.5t-1.5 -36t1.5 -36.5t2.5 -56.5 t2 -56.5t1 -38.5v-15.5t-1 -24.5t-1 -24.5v-17.5q0 -8 2 -38t2 -40q0 -12 -1 -26.5t-5.5 -29t-14.5 -23.5t-28 -9q-4 0 -18.5 2t-18.5 2t-19.5 -1t-19.5 -1q-29 0 -56.5 2t-56.5 2q-6 0 -18.5 -1t-25.5 -1t-25.5 -1t-18.5 -1q-31 -4 -61 0h-43q-10 0 -25.5 5t-19.5 9 q-10 8 -12.5 18.5t-2.5 33.5q2 4 1 14t-1 14q0 12 2 24.5t2 24.5q0 10 -1 20.5t-3 20.5v45q0 29 12.5 32t34.5 1h95q45 0 51 13.5t6 23.5v22.5v35t1 36t1 23.5v108q0 2 -1 11.5t-1 11.5v186z" />
<glyph unicode="_" horiz-adv-x="1024" d="M1044 -256h-1064v102h1064v-102z" />
<glyph unicode="`" horiz-adv-x="598" d="M311 1421q4 0 18.5 2t18.5 2q35 0 53.5 -9t28.5 -27q8 -14 14.5 -43t6.5 -35q2 -6 1 -12.5t1 -10.5q0 -6 7 -22.5t9 -22.5v-20q0 -10 6 -41q4 -10 5 -21.5t1 -15.5q0 -16 -12 -23.5t-16 -7.5q-8 -4 -14.5 -4t-30.5 2h-46q-10 -2 -38.5 -1t-38.5 1q-14 0 -25.5 4t-19.5 25 q-4 6 -5.5 12t-5.5 12t-8 11.5t-8 11.5q-6 8 -11 15t-9 16q-8 16 -14.5 30.5t-14.5 28.5q-4 12 -11.5 24.5t-15.5 22.5q-14 18 -18 27.5t-4 19.5q0 14 7 28.5t19 18.5q4 2 25 2h29h8h2q0 -2 2 -2h4h10q8 0 14.5 1t14.5 1q10 2 31 2q4 0 15 -1t15 -1z" />
<glyph unicode="a" horiz-adv-x="1024" d="M115 907q0 12 6 31.5t14 28.5q6 4 24.5 11t26.5 11q20 6 40 11.5t38 11.5q33 10 44 14t34 8q33 4 76 9.5t100 5.5t123 -9.5t117 -31.5q35 -14 66.5 -35t47.5 -37q4 -6 9.5 -13.5t11.5 -13.5q4 -4 11 -10t11 -12q10 -16 21.5 -48t11.5 -79v-34t-1 -51.5t-1 -52v-34.5 q0 -6 2 -33t2 -35q0 -6 -1 -27.5t-1 -27.5t1 -29.5t1 -32.5q0 -6 -1 -19t-1 -28.5t-1 -30t-1 -20.5q0 -8 1 -36.5t3 -37.5v-23.5t-1 -36.5t-1 -36.5v-23.5t2 -25.5t2 -26.5q0 -37 -29.5 -51t-68.5 -14h-55h-20.5t-31 -1t-31 -1h-20.5q-16 0 -22 10t-8 14t-2 9.5t-5 9.5 q-6 10 -16 10q-4 0 -11 -5t-14 -9q-14 -12 -30.5 -19.5t-38.5 -15.5l-24.5 -7t-24 -4t-31.5 -2t-45 -1q-10 0 -26.5 1t-35 3t-36 4t-25.5 4q-12 2 -31.5 8t-40 15.5t-40 19.5t-31.5 20q-4 4 -16.5 17.5t-26 28t-24.5 28.5t-15 23q-8 12 -20.5 45.5t-16.5 46.5q-4 23 -3 44 t-1 44q0 10 -1 20.5t-1 20.5q0 16 2 27.5t12 35.5q10 27 17.5 41.5t27.5 34.5l8 8t9 8q10 10 17 20.5t17 20.5q8 8 22.5 17.5t30 18.5t29 15.5t19.5 8.5q8 2 16 3t16 5q23 8 38.5 12t37.5 8q12 2 24.5 2.5t24.5 0.5q10 2 21.5 4t21.5 2q4 0 15.5 -1t15.5 -1t22.5 2t22.5 2 q10 0 15 -2q2 0 11 -2t15 -4h12q4 0 18.5 -3.5t18.5 -3.5q16 0 30.5 10.5t14.5 24.5q0 12 -14 29.5t-39 28.5q-20 8 -46 11t-42 3q-4 0 -19.5 -1t-35 -2t-35.5 -2t-18 -1q-18 -4 -37 -9.5t-37 -11.5q-8 -2 -19.5 -4t-15.5 -2q-4 -2 -10 -2t-11 -2q-10 -2 -17 -6t-17 -8 q-8 -4 -37 -13.5t-39 -9.5q-23 0 -39 12.5t-16 36.5q0 8 2 35t2 35q0 4 -1 19.5t-1 19.5t1 18.5t1 18.5v24zM473 430q-4 0 -10 -2t-14 -4q-6 -4 -29 -8t-29 -8q-18 -6 -34.5 -24.5t-16.5 -47.5q0 -16 9 -39t38 -37q4 -2 16.5 -6t25.5 -8t24.5 -7t17.5 -3q4 0 22.5 3t34.5 7 q27 2 36 4t32 14q16 10 33.5 24.5t17.5 51.5q0 10 -5 23.5t-24 27.5q-12 8 -42.5 22.5t-47.5 14.5q-6 0 -13 -1t-13 -1q-4 0 -14.5 2t-14.5 2z" />
<glyph unicode="b" horiz-adv-x="1150" d="M72 1288q0 8 1 30.5t1 29.5q0 4 -2 20t-2 21q0 4 2 13t8 18.5t17.5 16.5t27.5 7h14.5t20.5 -2t20 -2h15q4 0 13 1t13 3q4 0 13.5 -1t13.5 -1l12 1t26.5 2t28 1h19.5q33 0 42 -10.5t15 -28.5q4 -16 5 -24.5t1 -36.5q0 -4 -2 -25t-2 -27v-16t-1 -25.5t-1 -26v-18.5t2 -28.5 t2 -30.5q0 -16 -2 -33.5t-2 -34.5q0 -80 49 -80q10 0 15 3q16 4 29.5 8t27.5 8q10 4 18.5 4t18.5 2q10 4 19.5 7t19.5 7q6 2 18 3t24.5 2.5t24 1.5h13.5q16 0 35.5 -2.5t38 -5.5t32.5 -7l21 -6q14 -4 26.5 -12t24.5 -15q14 -8 29.5 -13t27.5 -13q8 -6 14.5 -11.5t12.5 -11.5 l16 -12t17 -12q12 -10 26.5 -25.5t26.5 -29t20 -24.5l8 -11q2 -4 8.5 -17.5t13.5 -30t12 -30t7 -17.5q0 -2 3.5 -14t7.5 -26.5t7 -28t3 -17.5q2 -14 2 -27.5t4 -29.5q2 -12 5 -24.5t5 -26.5v-6q0 -10 -1 -20.5t-1 -20.5v-54q-2 -14 -5 -27t-7 -30q-2 -10 -2 -21.5v-21.5 q-6 -49 -36 -99t-75 -114q-27 -39 -59 -65q-43 -31 -82 -48.5t-74 -25.5t-64.5 -9t-53.5 -1q-84 0 -130.5 14t-87.5 39q-10 4 -18 8t-18 4q-29 0 -50 -31q-10 -10 -16 -15t-23 -5q-6 0 -30.5 2t-30.5 2h-100q-4 0 -20.5 -1t-20.5 -1l-9 1q-8 1 -16 8t-15 21.5t-7 41.5v192 q0 6 1 19.5t1 29t1 29.5t1 20q0 27 -2 51.5t-2 51.5v16.5t1 26.5t1 26.5v18.5q0 8 -1 32.5t-2 51.5t-2 50.5t-1 33.5t1 36.5t1 56.5t1 56.5t1 36.5q0 6 1 22.5t1 36t1 37t1 23.5t-1 19.5t-2 30t-2 30.5t-1 20t1 20.5t1 31t1 32t1 21.5v57zM821 504l-1 12q-1 12 -2 26.5 t-2 25.5l-1 12q-2 8 -4 15t-4 13q-2 4 -5 20.5t-7 20.5q-2 4 -13.5 13.5t-15.5 13.5l-25 31q-6 4 -30.5 19t-34.5 19q-10 2 -19.5 2.5t-19.5 0.5q-6 0 -27.5 3t-29.5 3q-16 0 -31 -6q-8 -4 -15.5 -7.5t-17.5 -5.5q-6 -2 -11 -3t-11 -3q-16 -4 -31 -14q-2 -2 -9.5 -11.5 t-16.5 -20.5t-17 -22.5t-10 -15.5q-6 -10 -11.5 -27.5t-9.5 -36t-6 -34t-2 -21.5q0 -12 1 -24.5t3 -26.5q0 -2 -1 -11t-1 -11q0 -23 6 -49.5t17 -41.5q14 -20 40.5 -36.5t56 -28.5t56.5 -19.5t39 -7.5q6 0 21.5 3t33 7.5t32.5 8.5t22 8q6 2 17 10t23.5 17.5t22.5 18.5t14 13 l6 12q7 13 13 32.5t12 46t6 57.5z" />
<glyph unicode="c" horiz-adv-x="724" d="M31 578q0 29 7 62.5t17 66.5q27 90 59.5 135t69.5 82q51 53 96.5 70.5t55.5 21.5t22.5 4t22.5 4t19.5 6t19.5 6q10 2 21.5 2t21.5 2q10 0 19.5 2t19.5 2h19.5h29.5h30.5h20.5q33 0 51.5 -17t18.5 -44q0 -6 -1 -13t-1 -14q-4 -25 -4 -65.5v-81.5q0 -35 -4.5 -45t-30.5 -23 q-14 -8 -23.5 -9t-52.5 -1q-4 0 -16.5 1t-16.5 1h-8q-12 -2 -24.5 -8t-24.5 -12q-10 -4 -19.5 -6t-17.5 -7q-6 -4 -19.5 -17t-26.5 -31.5t-22.5 -40t-9.5 -44.5q0 -4 -1 -15t-1 -15q0 -2 1 -7.5t1 -7.5t-1 -7t-1 -7q0 -4 4 -21.5t4 -21.5q2 -8 11.5 -27.5t25 -41t37 -42 t49.5 -32.5q23 -10 40.5 -16.5t32.5 -10.5t32.5 -6t42.5 -2q23 0 39 -11.5t16 -52.5q0 -8 -3 -33.5t-3 -35.5q0 -4 1 -16.5t2 -26t2 -24.5t1 -17v-33q0 -20 -18.5 -38.5t-59.5 -18.5q-10 0 -19.5 1t-19.5 1h-41q-66 0 -129 12q-29 6 -37 8t-24 10q-27 12 -42.5 20.5 t-27.5 15.5t-23.5 15.5t-27.5 20.5q-29 23 -47.5 39t-30.5 32.5t-22.5 36t-24.5 48.5q-16 35 -27.5 69.5t-13.5 34.5q-4 12 -8 47t-4 88q0 4 -1 18.5t-1 30t-1 30t-1 20.5z" />
<glyph unicode="d" horiz-adv-x="1193" d="M795 1307v19t-2 20q0 4 -2.5 20t-2.5 23q0 10 3.5 15t11.5 13q10 12 18 18.5t31 6.5q6 0 20.5 -1t32 -2t31.5 -2t20 -1t20.5 1t31.5 1q16 2 30.5 2h18.5q16 0 28.5 -3t20.5 -20q2 -2 9 -20.5t7 -24.5t-3 -27.5t-3 -27.5v-111q0 -6 -1 -27.5t-1 -29.5q0 -6 1 -28.5 t1 -30.5q0 -4 -1 -19.5t-1 -19.5t2 -22.5t2 -22.5q0 -10 -1 -22.5t-1 -22.5q0 -4 1 -21.5t1 -24.5v-67q0 -6 -1 -27.5t-1 -27.5t1 -19.5t1 -28t1 -27.5t1 -20v-32q0 -4 -1 -16.5t-2 -27t-1 -26.5v-18q0 -8 2 -38t2 -40q0 -6 -1 -30t-1 -32t2 -34.5t2 -36.5q0 -6 -3 -28 t-3 -30t1 -37.5t1 -40.5q0 -6 1 -23.5t2 -35.5t2 -35.5t1 -23.5q0 -53 -11 -84t-52 -31q-6 0 -24.5 1t-38 1t-38 1t-26.5 1h-25.5t-27.5 -2q-4 0 -17.5 -1t-17.5 -1q-12 0 -18.5 4t-10.5 8q-4 6 -6 14.5t-8 16.5q-6 10 -19 10q-4 0 -10 -3t-10 -7q-6 -4 -25.5 -14.5 t-42.5 -18.5q-18 -6 -42.5 -10t-47 -7t-38.5 -4l-15 -1q-6 -2 -30.5 -1t-33.5 1l-16 2t-36.5 5t-37 6t-18.5 3q-23 4 -43 16q-8 4 -15.5 7.5t-15.5 7.5t-16 6t-17 6q-16 6 -34.5 17.5t-38 25.5t-35.5 30.5t-27 33.5q-4 8 -9 16t-11 18q-10 16 -23.5 38t-21.5 42 q-4 12 -7.5 26.5t-7.5 31.5q-2 6 -4 11t-6 11q-4 12 -6 24.5t-4 26.5q0 8 -2 31t-3 47.5t-2 44.5l-1 19q0 23 4 52.5t9 59t12 55t14 39.5q4 10 10 20.5t10 20.5q10 16 16.5 32t14.5 32q16 29 41.5 53.5t32.5 28.5q10 8 20 14t21 12q12 8 23 16.5t24 16.5q29 20 67 33 q20 8 34.5 12t28 6t27 2h33.5q6 0 26.5 2.5t26.5 2.5q35 0 84 -9.5t76 -19.5q4 -2 15.5 -9t23.5 -14.5t23.5 -12.5t17.5 -5q23 0 26 19.5t3 54.5q0 6 2 27.5t2 27.5q0 2 -2 13.5t-2 13.5v172zM586 735q-4 0 -17.5 1t-17.5 1q-12 0 -23 -2q-29 -4 -55.5 -11t-46.5 -28 q-4 -4 -9 -10t-9 -10l-13.5 -9t-11.5 -14q-2 -4 -8 -18t-8 -19q-29 -57 -29 -114q0 -45 15.5 -83t29.5 -54q4 -6 17.5 -15.5t27.5 -20t26.5 -18.5t16.5 -10q6 -2 23.5 -5t37 -5t36 -4t22.5 -2q14 0 26.5 2t30.5 10q29 10 72 30.5t67 63.5q8 14 10.5 23.5t4.5 42.5 q2 12 4 24.5t2 24.5q0 6 -3 24.5t-5 24.5q0 16 -2 27q-2 10 -12.5 37.5t-20.5 39.5q-8 10 -31.5 26.5t-36.5 25.5q-10 6 -17 8t-34 8q-10 2 -17 4t-18 4h-24z" />
<glyph unicode="e" d="M33 492q0 4 1 27.5t4 54t6 60.5t7 46q8 29 23.5 65.5t23.5 49.5q2 6 13.5 21t23.5 32.5t23.5 32t17.5 20.5q66 72 154 107.5t153 38.5h90q68 0 119 -16.5t58 -20.5q47 -23 84.5 -56.5t64.5 -65.5t41 -57.5t16 -27.5q6 -10 10.5 -22.5t8.5 -22.5q4 -8 6 -14.5t6 -14.5 q8 -23 14.5 -53.5t9.5 -62t4 -62.5t1 -51q0 -53 -25.5 -69.5t-48.5 -16.5h-65q-10 0 -35 -1t-53.5 -1t-55 -1t-37.5 -1q-6 0 -20 1t-31.5 1t-33 1t-21.5 1h-19.5t-30 -1t-30.5 -1h-21h-67q-14 0 -34.5 -4.5t-20.5 -26.5q0 -23 19.5 -42.5t47 -34.5t57 -25.5t48.5 -10.5 q6 0 25.5 1t25.5 1t24.5 -2t24.5 -2q4 0 21.5 1t21.5 1q12 0 41 6q16 4 31.5 3t31.5 2q14 4 26.5 7t25.5 7q86 33 112 33q33 0 45.5 -10.5t12.5 -28.5q0 -4 -1 -9.5t-1 -11.5q-2 -10 -2 -25.5v-66.5q0 -6 1 -29.5t1 -31.5q0 -16 -5.5 -24.5t-17.5 -18.5q-31 -25 -71 -43.5 t-107 -30.5q-29 -6 -44.5 -8t-24.5 -4t-16 -2h-18q-4 0 -17 -1t-27.5 -2.5t-28 -2.5t-19.5 -1l-12 1t-25.5 2.5t-25.5 2.5t-15 1q-57 4 -80.5 7t-45.5 9q-6 2 -27 10t-43.5 18.5t-43 19.5t-28.5 13q-6 2 -25.5 14.5t-43 33t-49 49t-46.5 63.5q-20 39 -33.5 82t-20.5 82 t-10 69t-3 40zM551 788h-16.5t-33 -3t-40 -8t-35.5 -15q-4 -2 -13.5 -10.5t-19.5 -19.5t-18 -23.5t-8 -24.5q0 -37 35.5 -43t76.5 -6q10 0 20.5 -1t20.5 -1q4 0 13.5 1t13.5 1t19.5 -2t19.5 -2q6 0 25.5 3t25.5 5q39 6 49 11t10 22q0 35 -20.5 57.5t-47 35.5t-49 18t-28.5 5 z" />
<glyph unicode="f" horiz-adv-x="598" d="M322 1452q8 0 32.5 2t32.5 2q6 0 19.5 -1t29 -1t28.5 -1t19 -1h35q37 0 53 -10q12 -6 20.5 -22.5t10.5 -33.5q0 -4 -1 -24.5t-1 -26.5t-1 -29.5t-1 -31.5t2 -34t2 -36q0 -23 -8 -30q-2 -4 -20.5 -15.5t-20.5 -11.5q-10 -6 -19.5 -7t-29.5 -1q-66 0 -88.5 -9.5 t-22.5 -44.5q0 -14 7.5 -28.5t15.5 -20.5q10 -10 35.5 -11t40.5 -1q4 0 22 2t23 2q23 0 35 -11t18 -24.5t7 -27t1 -19.5t-1 -20.5t-3 -30.5t-3 -31.5t-1 -21.5t1 -25.5t1 -25.5q0 -23 -7 -35.5t-18 -20.5q-10 -6 -16 -7t-37 -1q-35 0 -54.5 -8t-28.5 -20.5t-10 -29t-1 -30.5 q0 -8 -2 -31.5t-2 -32.5q0 -8 1 -27.5t1 -42t1 -42t1 -27.5q0 -25 -1 -49.5t-1 -48.5q0 -6 1 -21.5t1 -32t1 -32.5t1 -23q0 -4 -2 -15t-2 -15t2 -24.5t2 -27.5q0 -6 2 -29.5t2 -29.5q0 -31 -22.5 -59.5t-63.5 -28.5q-4 0 -18.5 1t-18.5 1q-16 0 -34.5 -2t-35.5 -2 q-6 0 -27.5 1t-27.5 1h-28q-6 0 -16.5 1t-22.5 11q-10 8 -15.5 19.5t-5.5 58.5q0 8 2 34t2 36v96q0 8 -2 37t-2 37q0 6 1 20.5t2 31.5t2 31.5t1 20.5q0 8 -1 38t-1 40v21.5t1 34t1 34.5v23q0 4 -1 12t-5 22q-10 27 -14 33t-21 13q-8 4 -16 7t-16 7q-12 8 -19.5 20.5 t-7.5 65.5q0 6 1 24.5t1 24.5q0 12 -1 23.5t-1 23.5q0 2 1 14.5t2 26.5t2 26l1 13q4 23 10 30t19 11q23 8 27.5 11t13.5 16q6 12 7 20t1 47q0 63 2 103.5t7 67t14.5 44t23.5 37.5t24.5 28.5t32.5 24.5q37 23 63 27t75 4z" />
<glyph unicode="g" d="M35 657q2 10 4 21.5t4 21.5q0 10 1 19.5t1 19.5q2 27 16.5 55.5t29.5 54t28.5 42t15.5 18.5q10 10 19.5 20.5t17.5 20.5q20 23 31.5 34t34.5 24q8 4 25.5 10t38 13t39.5 12.5t32 7.5h16t29.5 1t29.5 1h13q4 0 12 2t12 2q6 0 28 -3t28 -3q2 0 13 -2t24.5 -3.5t24.5 -2.5 l11 -1l21 -8q8 -4 15 -7t9 -3q10 -4 17.5 -11t17.5 -7t17 6q4 4 5 8t5 8q6 6 18.5 7t69.5 1q6 0 28.5 -1t28.5 -1q10 0 19.5 1t19.5 1h19q8 0 14 2q10 0 29 -12q14 -10 19 -16t5 -27v-76q0 -16 -2 -33.5t-2 -33.5q0 -14 1 -34t1 -34q0 -8 2 -34.5t2 -35.5q0 -10 -1 -39.5 t-1 -60.5t-1 -56.5t-1 -27.5q0 -39 2 -77t2 -76q0 -6 -1 -23.5t-1 -37t-1 -37t-1 -23.5q0 -8 1 -26.5t2 -40t2 -40t1 -26.5q0 -55 -6 -80t-20 -54q-12 -29 -23.5 -47t-32.5 -34q-2 -2 -15 -10.5t-29.5 -16.5t-30 -15.5t-15.5 -9.5q-20 -10 -49 -15t-33 -7h-13t-13 -2 q-6 0 -25.5 -4t-25.5 -6q-16 -2 -44 -3.5t-58 -1.5h-57.5h-43.5q-31 0 -44.5 1t-47.5 6q-23 4 -44.5 5t-43.5 5q-10 2 -21.5 4t-21.5 6q-41 10 -72 20.5t-52.5 26t-31.5 38t-10 58.5q0 16 1 32t1 32q0 8 -3 36.5t-3 39.5q0 27 11 45t46 18q20 0 54 -9t57 -19q8 -4 16 -9.5 t18 -9.5q6 -4 13.5 -5t13.5 -5q10 -4 17.5 -8t17.5 -7q10 -4 20 -5t21 -3q12 -4 23.5 -8t23.5 -6h24l50 -6h53q10 2 31 10q8 2 24 2q10 2 17.5 4t17.5 4q12 4 17 8.5t16 18.5q4 4 7 8t7 8q4 8 8 24.5t4 27.5q0 20 -12 24t-14 4q-10 0 -20.5 -7t-20.5 -11t-18.5 -6t-18.5 -7 q-25 -8 -34 -10t-19 -2q-8 0 -16.5 1t-16.5 1q-4 0 -13.5 -1t-13.5 -1q-8 0 -14 1t-14 3q-6 2 -13.5 2h-13.5q-4 0 -13.5 1t-20.5 3t-21.5 4.5t-12.5 2.5q-10 2 -19 5t-20 7q-8 4 -16 5t-16 5q-8 2 -14.5 5t-12.5 5q-12 4 -16 6q-10 4 -17.5 8.5t-29.5 24.5 q-10 10 -20.5 17.5t-20.5 17.5q-6 6 -10.5 11t-16.5 24q-4 8 -10 14t-13 15q-6 8 -11 16t-9 19.5t-10 28.5t-15 46q-18 61 -21 95t-3 67v20zM475 758q-6 0 -19.5 -4t-26.5 -10.5l-23 -11.5l-11 -5l-6 -7t-14 -16.5t-14.5 -17.5t-8.5 -10q-4 -8 -10 -37t-6 -37q0 -4 4 -25.5 t6 -23.5q2 -6 5 -12t7 -13q2 -4 3 -9t4 -9q4 -8 11 -13t13 -12q10 -8 16.5 -11t24.5 -13q8 -4 14.5 -7t14.5 -8q14 -6 37 -6t48 2t46 9q27 8 34 11t23 17q8 6 11.5 10.5t11.5 14.5q12 12 14 18q2 4 8 28.5t6 33.5q0 37 -8 61.5t-24 44.5q-18 27 -47 44.5t-31 17.5 q-10 4 -35 6t-39 0h-39z" />
<glyph unicode="h" d="M295 1446q6 0 25.5 1t23.5 1q29 0 45.5 -21.5t16.5 -35.5q0 -4 -1.5 -10.5t-3.5 -8.5v-18q0 -6 -1 -31t-1 -33q0 -6 1 -19.5t1 -28.5t1 -28.5t1 -19.5q0 -37 -6 -74q-2 -10 -3 -20t-1 -21q0 -6 2 -28.5t2 -30.5q0 -29 7.5 -34t13.5 -5q12 0 16 2q6 2 29.5 14.5t32.5 16.5 l32 8q14 4 28.5 6t25.5 4q2 0 13 1t25.5 2t25.5 2t13 1q16 0 33 -2t33 -4q20 -4 28.5 -6t28.5 -12q33 -16 51.5 -25.5t28.5 -16.5t16.5 -14.5t12.5 -17.5q4 -8 24.5 -30.5t26.5 -30.5l12 -31q18 -47 26.5 -81t8.5 -75q0 -6 -1 -23.5t-1 -38t-1 -38t-1 -25.5q0 -6 1 -19 t1 -27.5t1 -28t1 -19.5q0 -8 -1 -36.5t-1 -39.5v-45v-19.5t-1 -27.5t-1 -27.5v-19.5v-55q0 -6 -1 -29.5t-1 -32.5q0 -6 1 -32.5t1 -34.5q0 -20 -7 -30.5t-24 -27.5q-10 -10 -16 -13t-23 -3q-16 -2 -30 -2h-33q-4 0 -22.5 1t-24.5 1t-19.5 -1t-29 -2t-29.5 -2t-20 -1 q-14 0 -29.5 16.5t-15.5 52.5q0 10 1 18.5t1 18.5q0 4 -1 20.5t-1 22.5q0 4 2 24.5t2 27.5v61q0 8 2 31.5t2 29.5v22.5t-2 22.5q0 8 1 40t1 42q0 4 -1 27t-3 50.5t-5.5 53t-9.5 37.5q-2 4 -10 20.5t-10 18.5q-10 12 -33 23.5t-49 11.5q-14 0 -35.5 -4t-36.5 -14 q-12 -10 -28.5 -33t-22.5 -33q-16 -35 -23.5 -89t-7.5 -93q0 -10 2 -41t2 -41q0 -23 -1 -42.5t-1 -41.5q0 -4 1 -16.5t1 -26.5t1 -26.5t1 -18.5q0 -4 -2 -24.5t-2 -26.5q0 -4 2 -21.5t2 -21.5q0 -18 -8 -37t-22 -27q-12 -10 -39 -10q-6 0 -19.5 1t-30 1t-30.5 1t-21 1h-17 t-28.5 -1t-29 -1h-19.5q-16 0 -25.5 2t-21.5 18q-14 16 -16 25.5t0 32.5q2 6 1 27.5t-1 29.5q0 6 1 19.5t1 30t1 30.5t1 21q0 27 -1 60.5t-1 68t-1 68.5t-1 61v30q0 10 1 39t1 60.5t1 59.5t1 40v68q-2 4 -1 25.5t1 27.5v17t-1 27.5t-1 27v18.5q2 27 2 46v48q0 6 1 29.5 t1 32.5q0 4 -1 21t-1 22v21v33.5v34v21.5q0 10 -1 40t-1 40q0 27 1 49.5t8 40t22.5 27.5t44.5 10q8 0 37.5 -2t39.5 -2h66z" />
<glyph unicode="i" horiz-adv-x="468" d="M213 1380q8 0 31.5 2t31.5 2q63 0 79 -4t24 -8q16 -10 22.5 -27.5t6.5 -35.5q0 -8 -1 -34t-1 -34q0 -10 1 -42t1 -42q0 -16 -4.5 -23.5t-14.5 -23.5q-10 -14 -18.5 -18.5t-32.5 -4.5h-17.5t-27.5 1.5t-27.5 1.5h-19.5t-29.5 -2.5t-30.5 -2.5q-47 0 -63.5 2.5t-22.5 6.5 q-25 12 -28.5 35.5t-3.5 31.5q0 14 1 27.5t1 28.5q0 6 -1 27.5t-1 27.5v53q0 27 16 39t25 14l8 1t18 1t19.5 1t11.5 1q12 0 24.5 -1t22.5 -1zM172 1032q8 0 37 -4t37 -4q4 0 13 1t20 1q10 2 19 2h13h39q12 0 23.5 -8t19.5 -19.5t12.5 -22.5t4.5 -17q0 -4 -1 -21.5t-1 -24.5 v-32q0 -23 -1 -34t-4 -40q-2 -16 -3 -28.5t-1 -26v-30.5v-46q0 -6 -1 -18.5t-1 -28t-1 -28.5t-1 -19q0 -10 1 -37t3 -56.5t3 -56t1 -39.5q0 -4 -1 -16t-1 -25.5t-1 -26t-1 -18.5q0 -8 3.5 -36.5t3.5 -36.5q2 -16 2 -37v-76q0 -47 -20.5 -87t-63.5 -40q-8 0 -33 2t-33 2h-14 t-29 -2q-16 -2 -36.5 -3t-37.5 -1q-4 0 -16 1t-25.5 6t-23.5 16.5t-10 33.5l2 21q2 22 4 50t4 53.5t2 35.5q0 25 -1 48.5t-1 47.5q0 10 1 40t1 40t-2 41t-2 41v80q0 8 -1 33.5t-1 53.5t-1 53.5t-1 35.5q0 8 1 28.5t2 43t2 44t1 29.5q0 6 -1 19.5t-2 28t-2 27.5t-1 20 q0 20 12 39q10 14 25.5 21t64.5 7z" />
<glyph unicode="j" horiz-adv-x="512" d="M117 1325q0 4 3 17.5t19 23.5q4 2 20.5 7t22.5 5q4 0 14.5 -1t14.5 -1q10 0 40 2t40 2q6 0 28.5 -1t28.5 -1q4 0 16.5 1t16.5 1q31 0 46 -26.5t15 -48.5q0 -4 -1 -16.5t-1 -26t-1 -25.5t-1 -18v-25.5t2 -26.5q0 -4 1 -10t1 -10q0 -23 -10 -35t-24.5 -18.5t-30 -7.5 t-23.5 -1q-6 0 -24.5 2.5t-22.5 2.5t-13 -1.5t-13 -1.5t-15.5 1.5t-15.5 1.5q-8 0 -30.5 -2.5t-31.5 -2.5q-23 0 -34 4.5t-15 10.5q-2 0 -10 17.5t-8 39.5q0 10 1 20.5t1 20.5q0 2 -2 21.5t-2 21.5q0 4 -1 15.5t-1 24.5v25.5v18.5zM121 727q0 6 1 18.5t1 27.5t1 27.5t1 18.5 q-2 25 -2 45q-2 16 -2 29.5v15.5q-2 10 -4 21.5t-2 21.5q0 27 20.5 52.5t40.5 27.5q8 2 19.5 1t19.5 -1q4 0 19.5 -1t19.5 -3h43h16q2 0 2 -1t2 -1h2h19h9t11 2q6 0 12.5 1t8.5 1q27 0 39 -7t18 -22q4 -10 5 -21t1 -50v-53q0 -8 -1 -31t-2 -47.5t-2 -47t-1 -30.5 q0 -33 2 -64.5t2 -64.5v-156q0 -6 -1 -21.5t-1 -32.5t-1 -33.5t-1 -22.5v-19.5t2 -32.5v-145q0 -29 -2 -49.5t-8 -38.5q-2 -8 -4 -14.5t-6 -14.5q-4 -16 -8 -22q-2 -4 -17.5 -28.5t-27.5 -37.5q-20 -20 -65.5 -35.5t-106.5 -15.5h-99q-14 0 -23.5 1t-21.5 5q-29 8 -34 25.5 t-9 46.5q0 8 -1 15t-1 14q0 4 2 20t2 23q0 6 -3 29.5t-3 29.5v65q0 29 18.5 34t34.5 5q25 0 38 11.5t20.5 28t8.5 33.5t1 30v321v22.5t-1 35t-1 36v23.5z" />
<glyph unicode="k" horiz-adv-x="980" d="M68 1358q0 10 -1 17t-1 16q0 18 14 36.5t43 18.5h10t14 -2q8 0 14.5 -1t10.5 -1h21.5t33 1t32.5 2t22 1q8 0 15 1t15 1q35 0 54.5 -16.5t23.5 -30.5q2 -4 1 -22.5t-1 -24.5q0 -4 1 -17.5l2 -27t2 -25.5t1 -14q0 -6 -3 -29.5t-3 -32.5q0 -6 1 -19t1 -28.5t1 -29t1 -19.5 q0 -41 -1 -96t-1 -96q0 -16 2 -46t8.5 -60t16.5 -52.5t24 -22.5q4 0 16.5 4.5t14.5 6.5q8 4 18.5 18t19.5 29.5t17 28.5l7 14q2 2 7 16t10 30.5t9 32t4 19.5q4 31 8.5 48.5t13.5 25.5t27.5 10t49.5 2q16 0 26 -2q2 -2 6 -2h13q8 -2 16 -2q10 0 21.5 2t23.5 4q4 0 18.5 -1 t18.5 -1t17.5 1t17.5 1q18 0 29.5 -9t16.5 -20.5t7 -22.5t2 -16q0 -10 -3 -30.5t-5 -30.5q-4 -14 -10.5 -26.5t-10.5 -26.5q-4 -20 -8 -31q-4 -16 -12 -28.5t-14 -26.5q-4 -10 -5.5 -18.5t-5.5 -18.5q-4 -16 -12 -30.5t-18 -29.5q-20 -33 -32.5 -52t-19 -31.5t-8.5 -21.5 t-2 -19q0 -18 21 -52q4 -6 8 -11t8 -11q6 -12 12 -23.5t13 -23.5q4 -6 7 -11.5t7 -11.5q10 -16 17 -31.5t18 -29.5q12 -23 32.5 -51.5t30.5 -51.5q4 -6 5 -11t5 -11l19 -25q8 -10 12 -21.5t12 -21.5q4 -8 10.5 -15t12.5 -16q6 -10 11 -23t5 -22q0 -18 -9 -40.5t-25 -22.5 q-4 0 -14.5 1t-14.5 1h-162q-6 0 -26.5 -1t-26.5 -1q-18 0 -44 17.5t-42 50.5q-4 6 -12 22q-12 16 -17 25q-4 6 -13 26.5t-13 28.5q-6 18 -11.5 28.5t-9.5 20.5t-11 20.5t-18 28.5q-37 55 -49 69.5t-26 14.5q-25 0 -37.5 -20.5t-16.5 -44.5q-2 -16 -2 -40v-50q0 -4 -2 -20.5 t-2 -20.5q0 -8 2 -38t2 -40q0 -27 -17.5 -47.5t-27.5 -24.5q-4 -2 -14 -3t-22.5 -1h-23.5h-16q-6 0 -24.5 -1t-24.5 -1q-4 0 -18 1t-19 1q-8 0 -33.5 -2t-33.5 -2q-14 0 -29.5 15.5t-19.5 21.5q0 2 -1 13t-2 24.5t-1 24.5v14q0 4 1 13t1 13v23v27.5v41v42v28.5v80v20.5 t-1 30.5t-1 31.5v21.5t1 22.5t1 34t1 34t1 22.5q0 8 -1 27.5t-2 41t-2 42t-1 28.5t1 34t1 55.5t1 56t1 36.5q0 8 -1 32t-1 50.5t-1 50t-1 33.5v93q0 6 1 25.5t1 25.5v20.5t-1 31.5t-1 32.5v21.5v27z" />
<glyph unicode="l" horiz-adv-x="468" d="M66 330q0 8 1 36.5t1 39.5q0 8 -1 34.5t-1 36.5q0 8 3 38t3 40q0 6 -2 29.5t-2 31.5q0 18 1 37t3 37v113q0 6 -1 24.5t-1 39t-1 39t-1 26.5v49q2 16 5 33.5t3 34.5v14t-4 29q0 4 -2 18t-2 37q0 14 1 27.5t1 27.5q0 8 3 35t3 37q0 6 -3 30.5t-3 32.5v37q0 29 30.5 49.5 t65.5 20.5q6 0 31.5 -2t33.5 -2q6 0 28 2t28 2q59 0 74.5 -7t27.5 -24q10 -14 11 -19t1 -22q0 -8 1 -33.5t1 -33.5t-1 -28t-2 -41.5t-2 -40.5t-1 -28q0 -6 1 -22.5t3 -34.5t3.5 -34.5t1.5 -22.5q0 -8 -2.5 -36t-2.5 -38q0 -16 1 -33.5t1 -34.5q0 -6 -1 -19t-2 -28.5t-2 -29 t-1 -19.5t1 -18.5t1 -27.5t1 -27.5t1 -18.5q0 -10 -1 -41t-1 -41q0 -23 2 -47.5t2 -46.5q0 -2 -1 -13.5t-1 -25.5t-1 -26.5t-1 -14.5v-22.5t2 -22.5q0 -6 -1 -27.5t-1 -27.5t1 -24.5t1 -25.5q0 -8 -2 -36.5t-2 -38.5q0 -8 2 -37t2 -39q0 -4 -1 -21.5t-1 -23.5q0 -4 2 -23.5 t2 -25.5q0 -18 -24 -41q-16 -16 -29.5 -24.5t-30.5 -8.5q-10 0 -40.5 3t-40.5 3h-22.5t-35 -1t-35 -1h-22.5q-14 0 -21.5 5t-21.5 22q-8 10 -14.5 18t-6.5 19v16q2 10 3 31.5t1 31.5q0 6 -1 28t-1 28q0 4 1 17t1 28.5t1.5 29t1.5 19.5v35z" />
<glyph unicode="m" horiz-adv-x="1536" d="M608 375q0 4 1 23.5t1 25.5t-2 27.5t-2 29.5v74q0 25 -4 58.5t-27 58.5q-25 25 -55 24q-4 0 -28.5 -4t-36.5 -12q-31 -16 -39 -47t-13 -53q-2 -14 -3 -23.5l-2 -19t-1 -22.5v-34q0 -6 -2 -26.5t-2 -26.5v-51q0 -4 -1 -26.5t-1 -28.5t1 -19.5t2 -30t2 -30t1 -19.5 q0 -4 -1 -19.5t-1 -19.5q0 -18 1 -37.5t3 -40.5q2 -8 2 -24q0 -35 -18 -57.5t-57 -22.5q-6 0 -18.5 1t-28 1t-27.5 1t-19 1h-10t-20 -4h-58q-12 0 -24 2t-23.5 11.5t-18.5 30t-7 56.5q0 25 2 49.5t2 47.5q0 4 -1 13t-1 13t2 20.5t2 20.5t-1 16.5t-1 16.5t1 16.5t1 16.5 t-1 18.5t-2 31.5t-2 32.5t-1 21.5t1 20.5t1 32t1 34t1 22.5q0 4 -1 24.5t-1 26.5q0 4 1 20.5t1 20.5q0 6 -2 27.5t-2 29.5t2 36t2 38q0 4 -1 15.5t-1 23.5t-1 23.5t-1 17.5q-2 4 -1 18.5t1 18.5q0 6 -1 26.5t-1 26.5q0 33 21.5 62.5t41.5 29.5q4 0 21.5 -2t21.5 -4h88h14.5 t20.5 2h33q8 0 15 -2t18 -14q6 -8 9 -15.5l7 -17.5q8 -16 14 -16q4 0 8.5 3t8.5 7q33 29 74.5 45t84.5 20h17.5t28 -1t26.5 -1h19q33 0 62.5 -6t53 -15t40 -17.5t22.5 -12.5q10 -10 21 -20.5t24 -14.5q8 -6 20 -6q4 0 12.5 3t12.5 3q12 4 16 6t10 13q14 20 44 33.5t59 23.5 q18 6 29.5 8t21.5 4t22.5 2h32.5h33q6 0 32.5 -3t43.5 -9q25 -10 48.5 -25.5t41.5 -33t29.5 -30.5t13.5 -15q6 -10 9 -18.5t7 -18.5q4 -8 7.5 -14.5t7.5 -12.5q4 -10 6 -18.5t6 -18.5q4 -20 5 -31.5t1 -41.5q0 -6 1 -20.5t2 -31t2 -32t1 -21.5q0 -8 -1 -34.5t-1 -37.5v-31.5 v-41t1 -40t1 -30.5q2 -8 2 -16.5t2 -16.5q0 -4 -1 -19.5t-1 -19.5q0 -10 1 -41.5t1 -42.5v-36.5t1 -56t1 -56.5v-39q0 -25 -16 -56.5t-53 -31.5q-10 0 -18.5 2t-18.5 2q-4 0 -22.5 -1t-22.5 -1q-6 2 -24.5 2h-24.5t-31 -2t-35 -2q-14 0 -32.5 10t-22.5 39q0 6 1 29.5t1 31.5 q0 4 -1 15.5t-2 25t-2 24.5t-1 17t1 29t1 29q0 8 -1 33.5t-1 33.5t1 31t2 49.5t2 50t1 33.5q0 76 -9.5 119t-25.5 64.5t-37.5 27.5t-44.5 6q-20 0 -30.5 -4t-28.5 -16q-23 -16 -33 -31.5t-10 -64.5v-84q0 -8 -1 -31t-1 -48.5t-1 -49t-1 -33.5q0 -6 2 -29.5t2 -32.5 q0 -4 -1 -23.5t-1 -25.5q0 -4 2 -22.5t2 -24.5q0 -4 -1 -16.5t-1 -16.5q0 -6 3 -30.5t3 -30.5q0 -16 -3 -30.5t-9 -20.5q-4 -6 -18.5 -13.5t-24.5 -9.5q-4 0 -21.5 1t-21.5 1t-17.5 -1t-28 -3t-26.5 -3t-18 -1q-4 -2 -18.5 -1t-18.5 1t-21.5 -2t-21.5 -2q-43 0 -52.5 30.5 t-9.5 63.5v17.5t1 28t2 26.5t1 18q0 4 -1 16.5t-1 16.5q0 6 2 26.5t2 26.5q0 8 -2 30.5t-2 29.5v49z" />
<glyph unicode="n" d="M397 449q0 -4 -1 -17.5t-2 -28t-2 -26.5t-1 -19q0 -14 1 -52t3 -81t3 -82t1 -55q0 -29 -9 -45t-22.5 -25.5t-27.5 -12.5t-23 -3q-8 0 -37.5 1t-39.5 1q-4 0 -23.5 -2t-23.5 -2q-35 0 -58.5 2t-38 11.5t-19.5 27.5t-5 53q0 16 2 33.5t2 34.5v153v19.5t-1 30t-1 31v20.5v59 q0 6 -1 28.5t-1 28.5t1 19.5t1 28t1 28t1 19.5v27.5t-1 43t-1 44v28.5v23.5t1 37t1 37v23.5v49q0 27 6 44t14 26.5t16.5 13.5t14.5 6l37 -2q8 0 35.5 -2t38.5 -2q2 0 18 1t20 1q10 2 24.5 2h37.5q18 0 31.5 -1t21.5 -11q4 -6 5 -13.5t5 -15.5q4 -4 7.5 -9t7.5 -5t12 5 t17.5 11t16.5 13l7 6q4 2 24.5 10t24.5 10q20 10 42 12t38 2q6 0 29.5 -2t31.5 -2h41q20 0 57.5 -10t57.5 -20q4 -2 17.5 -11.5t26.5 -20.5t25.5 -21.5t16.5 -12.5q2 -2 11.5 -13t18.5 -24.5t17 -26t10 -14.5q4 -6 10.5 -22.5t12.5 -38t10 -45t4 -43.5q0 -4 -1 -17.5t-1 -28 t-1 -26.5t-1 -18v-20.5t1 -31t1 -31v-20.5v-24.5t-1 -39t-1 -39v-26.5q0 -6 1 -23.5t1 -38t1 -38t1 -25.5q0 -6 -1 -23.5t-1 -37t-1 -36.5t-1 -24q0 -8 1 -36.5t1 -38.5q0 -25 -4 -36t-8 -16q-4 -6 -16.5 -13t-22.5 -7q-6 0 -14 1t-15 1h-84q-6 0 -28.5 -1t-30.5 -1h-14.5 t-22.5 1t-22.5 2t-12.5 1q-23 8 -26.5 39t-3.5 78q0 10 3 43t3 43v17.5t1 32.5t1 32.5v19.5q0 8 -1 37t-1 39q0 23 1 46.5t1 45.5q0 10 -1 32.5t-5 50.5t-12.5 57.5t-22.5 52.5q-8 12 -25.5 27.5t-70.5 15.5q-16 0 -42 -9.5t-36 -17.5q-10 -6 -24.5 -27.5t-18.5 -31.5 q-6 -10 -9 -33t-5.5 -46.5t-4.5 -43t-2 -23.5v-32z" />
<glyph unicode="o" horiz-adv-x="1150" d="M551 -20q-12 0 -38 3t-52 7q-31 6 -66 12q-23 4 -51.5 17.5t-57 28.5t-52 30.5t-33.5 25.5q-2 2 -8.5 11.5t-14.5 18.5t-15 18.5t-9 13.5q-10 10 -18.5 19.5t-16.5 19.5q-10 14 -20.5 29.5t-16.5 31.5l-10 22q-9 21 -18 51t-17 62.5t-8 55.5q0 14 2 27.5t2 27.5 q0 6 -2 28.5t-2 28.5q0 16 3 46t5 36q0 2 5 14.5t10 27t10 25.5l4 11q8 16 17 29.5t19 27.5q16 23 25.5 37.5t17 22.5t12.5 13t13 11q4 4 9 7.5t11 7.5q10 10 19.5 20t19.5 21q10 10 19.5 16t19.5 14q2 0 16.5 7.5t31 16.5t30.5 16.5t16 9.5q47 23 89.5 29.5t91.5 6.5 q8 0 38.5 2.5t41.5 2.5q23 0 48 -4.5t48.5 -9.5t40 -10t20.5 -7q16 -6 28.5 -14.5t29.5 -16.5q10 -6 22 -11t23 -11q25 -14 51.5 -39t34.5 -33q10 -10 17 -22.5t18 -22.5q6 -8 12 -14.5t12 -14.5q6 -6 11 -13t10 -16q2 -2 13 -24.5t23.5 -57t22.5 -77.5t10 -84l-4 -70 q-2 -29 -4 -52.5t-4 -33.5q-4 -20 -13.5 -39.5t-17.5 -40.5q-8 -23 -13 -36t-10 -22t-9.5 -16.5t-12.5 -19.5q-6 -10 -18.5 -25.5t-25.5 -33t-24.5 -31.5t-17.5 -21q-6 -4 -20.5 -14t-28.5 -19.5t-25 -16.5l-12 -7q-12 -6 -24.5 -10t-24.5 -8q-10 -4 -17.5 -8.5t-15.5 -8.5 q-12 -6 -37.5 -13t-36.5 -9q-6 -2 -28.5 -4t-47 -3t-47 -2t-28.5 -1zM791 526q0 18 -9.5 53t-19.5 52q-4 6 -14.5 15t-20.5 19.5t-19.5 18.5t-11.5 10q-4 4 -26.5 14.5t-38.5 14.5l-11 1q-12 1 -24 3t-22 3l-11 1q-10 0 -25.5 -4t-29.5 -8t-24 -8l-11 -4q-33 -16 -43 -24.5 t-24 -25.5q-18 -23 -39 -55.5t-21 -79.5q0 -49 7 -75.5t18 -47.5q10 -23 28.5 -49t71.5 -55q23 -10 57.5 -15.5t38.5 -5.5q31 0 61.5 12.5t55.5 30t42 34t22 24.5q6 10 9 19t7 20q4 8 8 15t6 15q4 10 8.5 40t4.5 42z" />
<glyph unicode="p" horiz-adv-x="1193" d="M274 1028q6 0 25.5 2t26.5 2q4 0 19 -2t28 -16q6 -8 10 -15.5t10 -15.5q4 -4 10.5 -9t12.5 -5q4 0 19.5 7t39.5 23q14 10 29.5 15.5t32.5 11.5q33 10 49 12t47 2q8 0 35.5 2t38.5 2q2 0 19 -2t41 -6t50.5 -12t48.5 -20q8 -4 15.5 -8.5t13.5 -8.5q16 -10 33.5 -15 t34.5 -16q12 -8 28.5 -22t32.5 -31.5t30.5 -36t24.5 -30.5q12 -20 28.5 -57.5t22.5 -59.5q4 -10 4.5 -18.5t4.5 -16.5q2 -10 4 -17.5t6 -15.5q10 -33 12 -55.5t2 -32.5q0 -2 -2 -33.5t-4 -54.5t-1 -45t-3 -45q-4 -27 -12 -55.5t-18.5 -53t-19.5 -43t-11 -24.5 q-33 -55 -56.5 -79t-44.5 -40q-10 -8 -20 -15t-21 -16q-20 -16 -28.5 -21t-36.5 -18q-35 -14 -54.5 -21t-39 -10t-43 -4t-64.5 -1q-4 0 -18.5 1t-18.5 1h-43q-23 0 -33 2t-36 10q-25 6 -44.5 10t-29.5 4q-8 0 -30.5 -6t-29.5 -39q0 -2 -1 -12t-2 -20.5t-1 -19.5v-9 q0 -6 3 -24.5t3 -24.5q0 -29 -23.5 -46.5t-43.5 -17.5q-6 0 -12.5 1t-10.5 1q-14 4 -27.5 4h-27.5h-49q-6 0 -26.5 1t-26.5 1q-8 0 -16.5 -1t-18.5 -1q-18 0 -28.5 7.5t-14.5 16.5t-5 17t-1 10v17.5t1 29t1 29v19.5q0 10 -1 41.5t-1 42.5q0 4 1 16t1 25.5t1 24.5t1 18 q0 6 -1 22.5t-3 34.5t-3 35.5t-1 23.5q0 23 2 44.5t2 43.5v30v46.5v46v31.5v4q0 4 1 16.5t1 26.5t1 26.5t1 18.5q0 8 -2 33t-2 33t1 32.5t1 32.5v33q0 10 -2 42t-2 42t3 38t3 38q0 6 -2 27.5t-2 29.5q0 27 8 42t18.5 24.5t19.5 13.5t13 4h12.5t32.5 -2q8 0 34 1t34 1h30z M606 733q-29 0 -58.5 -9t-54 -22.5t-42 -28t-25.5 -26.5q-16 -23 -24.5 -67.5t-8.5 -94.5q0 -31 2 -55t11 -41q2 -4 11 -20.5t13 -20.5q8 -12 13.5 -15t21.5 -14q2 0 16.5 -6t31.5 -13t30.5 -13t15.5 -6q10 -4 23.5 -4.5t27.5 -0.5q37 0 67 6.5t40 12.5l7 4t16.5 10 t17.5 12.5t12 8.5q10 10 27.5 34.5t23.5 34.5q16 35 20.5 72t4.5 41q0 10 -4 27.5t-9.5 36t-10.5 33t-7 18.5q-10 16 -33.5 41.5t-54.5 40.5q-18 8 -56 16t-65 8z" />
<glyph unicode="q" horiz-adv-x="1193" d="M31 588q0 29 5 56.5t11 43.5q4 14 11.5 27.5t11.5 27.5q4 6 4 12.5t4 12.5q8 29 23.5 58.5t37.5 52.5q4 4 10.5 9t12.5 11q8 12 10 14q14 18 35.5 37t38.5 29q6 2 18 9t26.5 14.5t28 13.5t21.5 10l14 3q13 3 30 6t34.5 7.5t30.5 4.5q6 0 30.5 -1.5t32.5 -1.5 q6 0 29.5 1.5t29.5 1.5q41 0 86 -11q8 -2 38 -11t38 -13q6 -2 26.5 -12.5t26.5 -10.5q12 0 23 10q4 6 8 14.5t8 12.5t11.5 9t19.5 5q6 0 27.5 -2t29.5 -2h80q6 0 30 1t30 1q29 0 48 -23.5t19 -51.5q0 -8 -1 -33t-1 -33v-111q0 -6 1 -25.5t1 -41t1 -39.5t1 -27q0 -6 -1 -19 t-2 -27.5t-2 -28t-1 -19.5q0 -4 1 -16.5t2 -26.5t2 -26.5t1 -18.5q0 -4 -1 -17.5t-1 -28.5t-1 -29.5t-1 -20.5v-82q0 -6 2 -30.5t2 -33.5v-102q0 -23 -3 -45.5t-3 -44.5q0 -6 2 -28.5t2 -31.5v-100q0 -33 -4 -49t-10 -23q-4 -4 -19.5 -10t-29.5 -6q-6 0 -22.5 1t-22.5 1 q-8 0 -37 -1t-39 -1h-33q-4 0 -20.5 -1t-20.5 -1q-14 0 -38.5 7t-24.5 40v13.5t2 13.5q0 4 3 22.5t3 24.5q0 20 -6 41.5t-6 23.5q-4 8 -12.5 19.5t-37.5 11.5l-77 -6q-10 -2 -18.5 -4t-18.5 -4q-14 -4 -36 -5t-43.5 -2t-37.5 -1h-18h-20.5t-17.5 2t-22.5 4t-36.5 8 q-12 2 -20 5t-17.5 7t-22.5 10.5t-34 16.5q-39 18 -64.5 32.5t-47.5 30.5q-6 4 -19.5 19.5t-30 35t-31 40t-20.5 32.5q-8 16 -13 30.5t-9 29.5q-12 33 -19.5 55t-10.5 44t-3 47.5v62.5q0 6 -1 19t-2 27.5t-2 28t-1 19.5zM551 741q-4 0 -17.5 -2t-30 -6t-32.5 -9t-25 -9 q-10 -4 -32.5 -20.5t-32.5 -30.5q-6 -8 -11 -25.5t-10.5 -36t-8.5 -36t-3 -23.5v-19.5t2 -19.5q0 -4 -1 -16.5t-1 -16.5q0 -10 3 -20.5t18 -49.5q10 -27 19 -42t19.5 -25t20.5 -15.5t23 -11.5q29 -14 56.5 -24.5t55.5 -10.5h11.5t20.5 1t20.5 1h11.5q18 2 43.5 12.5t50 27 t44 40t26.5 56.5q0 2 2 18t3 35.5t2 36t1 18.5q0 4 -2 18.5t-4 31t-6.5 32.5t-6.5 25q-10 31 -30.5 52t-48 34.5t-58.5 20.5t-57 7q-4 0 -17.5 1t-17.5 1z" />
<glyph unicode="r" horiz-adv-x="681" d="M74 926q0 33 8 52t18.5 30.5t19.5 14.5t13 3t18.5 -1t18.5 -1h43q8 0 32.5 -1t30.5 -1t28 2t28 2q27 0 37 -13.5t10 -35.5q0 -27 8 -35t12 -8q8 0 15.5 5t13.5 11t10 11.5t11 11.5q6 6 18 16t30.5 20.5t39 17.5t41.5 7q14 0 31.5 -1t31.5 -7t24.5 -18.5t10.5 -32.5 q0 -10 -1 -17.5t-1 -15.5q0 -4 1 -16.5t1 -16.5t-1 -24.5t-1 -26.5q0 -4 1 -23.5t1 -25.5v-8t-2 -17v-61q0 -51 -17.5 -59.5t-64.5 -8.5q-20 0 -34.5 -4t-43.5 -14q-18 -8 -32.5 -15.5t-27 -20.5t-25.5 -33.5t-30 -57.5q-4 -8 -4 -13t-4 -22q-4 -16 -6 -26v-87q0 -6 1 -19 t1 -29.5t1 -30t1 -19.5q0 -8 -1 -35.5t-1 -35.5q0 -20 2 -29q0 -8 3 -30.5t3 -29.5q0 -23 -6 -45t-16 -34q-16 -18 -31.5 -21.5t-26.5 -3.5q-4 0 -16 1t-25.5 1t-25.5 1t-19 1q-6 0 -25.5 -1t-25.5 -1q-10 -2 -19 -2h-30q-14 0 -26.5 4t-22.5 31q-10 20 -10 47q0 6 1 19.5 t1 28.5t1 28.5t1 19.5v66q0 8 1 34.5t1 36.5q0 4 -1 16.5t-1 26t-1 25.5t-1 18q0 59 1 77t1 28t2 31.5t2 25.5q0 20 -2 40t-2 40t2 31q2 6 3 17t1 16q0 6 -2 27.5t-2 27.5v49q0 6 -1 31.5t-1 34.5v49z" />
<glyph unicode="s" horiz-adv-x="811" d="M49 748q0 14 1 27t3 28q4 43 10.5 67.5t30.5 53.5q29 35 62.5 62.5t85.5 41.5q10 2 28.5 6t39 7t40 6.5t31.5 3.5q8 0 32.5 -1t52.5 -3.5t52.5 -4.5t34.5 -4q14 -2 28.5 -5t28.5 -7q31 -10 66 -24.5t35 -40.5q0 -10 -2 -41t-2 -41q0 -8 2 -33t2 -33t-1 -19.5t-8.5 -22.5 t-21.5 -19.5t-41 -8.5q-14 0 -30.5 2.5t-39.5 8.5q-31 8 -43 9t-43 1q-10 0 -15 -1t-22 -9q-14 -6 -19 -11.5t-5 -21.5q0 -6 2 -11t11 -12.5t26.5 -17.5t50.5 -25q53 -27 84 -45t66 -53q8 -6 20 -18q10 -10 19.5 -16.5t19.5 -16.5q23 -20 34 -46t17 -61q4 -20 4 -30.5 t-2 -38.5q0 -6 1 -27.5t1 -28.5q0 -25 -10 -61.5t-33.5 -73.5t-60.5 -70.5t-88 -54.5q-35 -14 -62.5 -21t-53.5 -10t-53.5 -4.5t-60.5 -1.5q-29 0 -63.5 1.5t-71.5 5.5t-73.5 14t-69.5 29q-16 10 -31.5 26.5t-15.5 46.5q0 8 2 37t2 39q0 6 -1 33t-1 37q0 14 4 30 q4 14 20.5 27.5t44.5 13.5q4 0 27 -1t27 -1q16 -2 32.5 -6t32.5 -6q10 -2 20.5 -1t20.5 -1q8 0 33.5 -3t34.5 -3q31 0 53 12t25 15q4 4 9 19t5 24q0 41 -44 65.5t-110 48.5q-16 6 -34.5 16.5t-34 19.5t-25.5 16.5t-12 9.5q-6 4 -11.5 10t-9.5 10q-10 10 -18 17.5t-15 17.5 q-27 29 -42 70t-15 82z" />
<glyph unicode="t" horiz-adv-x="555" d="M72 1026q16 0 18 13.5t2 19.5q0 4 1 19.5t1 19.5l-1 11t-1 24.5t-1 25.5t-1 15q0 4 -1 18t-1 16q0 18 6 26.5t19 18.5q10 10 17 13.5t20 3.5q4 0 12 -1t12 -1q8 0 32.5 3t33.5 3q4 0 20 -1t21 -1q6 0 27.5 2t29.5 2q25 0 39 -12.5t20 -26.5t7.5 -27.5t1.5 -15.5 q0 -8 -2.5 -36t-2.5 -38q0 -6 1 -29.5t1 -29.5q0 -10 4.5 -23.5t26.5 -13.5q2 0 23 4q8 0 14 1t10 1q6 0 20.5 -3t20.5 -5q16 -8 21.5 -17.5t5.5 -27.5q0 -6 1 -28.5t1 -28.5q0 -8 -2 -37t-2 -39q0 -4 1 -18.5t1 -18.5q0 -43 -22.5 -51t-57.5 -13q-16 0 -29.5 -3t-23.5 -15 q-6 -8 -11.5 -34.5t-5.5 -37.5v-61q0 -4 -2 -15.5t-2 -15.5q0 -6 2 -12t2 -10l1 -9q1 -10 1 -21t1 -20.5t1 -11.5q0 -8 -2 -33.5t-2 -33.5q0 -63 13.5 -81t42.5 -22h34q23 0 27 -26.5t4 -47.5v-86q0 -8 1 -31.5t1 -31.5q0 -33 -16.5 -51.5t-40 -26.5t-48 -9t-40.5 -1 q-68 0 -109 3t-64.5 10t-35.5 19.5t-23 28.5q0 2 -12 22.5t-16 31.5q-4 12 -6 24t-7 25q-2 10 -5 18t-5 17q-2 8 -4 37.5t-2 52.5q0 8 1 37.5t1 39.5v20.5t-1 31t-1 32v21.5v39t1 60.5t1 60v41.5q0 23 -3 41t-24 28q-8 4 -17 6t-15 9q-14 10 -16.5 25.5t-2.5 21.5 q0 4 2 25.5t2 27.5v23.5t-1 38t-1 38v23.5q0 29 15.5 40t27.5 11h15z" />
<glyph unicode="u" d="M74 682q0 2 -1 13.5t-1 24.5t-1 25.5t-1 16.5q-2 25 -2 36t4 42v75q0 4 -1 20.5t-1 20.5q0 35 17 51.5t22 18.5q6 2 24.5 1t24.5 -1q10 0 18 1t19 1q10 2 18 2h18h27q4 0 6 -1t4 -1h2h2h7q6 0 28.5 3t28.5 3q4 0 14 -1t17 -5q4 -4 17 -22.5t13 -47.5q0 -6 -2 -28.5 t-2 -30.5q0 -6 2 -29.5t2 -29.5t-1 -19.5t-3 -29t-3 -28.5t-1 -20q0 -8 2 -33.5t2 -33.5q0 -16 -2 -31.5t-2 -32.5q0 -6 1 -26.5t1 -26.5t-1 -25.5t-1 -25.5q0 -31 8.5 -77t18.5 -64q4 -8 27.5 -33t70.5 -25q16 0 35.5 3t38.5 14q12 10 26.5 27.5t20.5 33.5q0 2 3 10.5 t7 18.5t7 19l3 9q0 2 1 14.5t2 27t2.5 26.5t1.5 14q0 4 -1.5 19.5t-1.5 19.5q0 10 1.5 19.5t1.5 19.5q2 6 1 27.5t-1 27.5q0 33 3 65t3 64q0 8 -1 29t-3 44.5t-3.5 44t-1.5 30.5q0 47 23 67.5t45 20.5h59q4 0 16.5 1t16.5 3q6 0 27.5 -1t27.5 -1t28 2t28 2q18 0 25.5 -6 t13.5 -16q10 -18 12 -29.5t2 -40.5q0 -6 1 -31.5t1 -34.5q0 -8 -2 -33.5t-2 -35.5q0 -20 2 -40t2 -42v-72q0 -10 1 -40.5t1 -41.5q0 -4 -1 -15t-1 -23.5t-1 -23.5t-1 -18q0 -18 1 -37.5t1 -39.5q0 -4 -1 -17.5t-1 -29t-1 -28.5t-1 -20q0 -20 1 -39.5t3 -39.5q0 -20 -1 -41 t1 -41q0 -12 1 -24.5t1 -23.5q0 -61 -21.5 -83.5t-74.5 -22.5h-17.5t-28 1t-27.5 1h-19q-8 0 -37 -2t-39 -2q-23 0 -36 7t-17 18q-4 6 -5 13t-6 13q-8 12 -16 12t-18 -10q-45 -35 -88 -47t-95 -12q-25 0 -70.5 4t-72.5 12q-10 4 -34.5 14.5t-33.5 16.5q-14 8 -25 20.5 t-22 22.5q-6 4 -12 9t-12 11q-10 8 -24.5 26.5t-29 50.5t-24.5 75t-10 100v55.5t2 55.5q0 6 1 16.5t1 14.5q0 12 -1 24t-1 23q0 14 1 26.5t1 24.5q0 6 -2 25.5t-2 25.5q0 4 1 17.5t1 17.5v2z" />
<glyph unicode="v" horiz-adv-x="894" d="M-4 967q0 4 2 21.5t10 25.5q4 4 22.5 12t28.5 8q4 0 19.5 -2t19.5 -2t16.5 1t16.5 1h14.5t20.5 -2q12 0 22.5 -1t14.5 -1h11t15 2h27q25 0 41 -10t27.5 -26.5t17.5 -35t10 -36.5q4 -10 5 -20.5t5 -20.5q4 -16 5.5 -22.5t1.5 -20.5q2 -16 4 -34t6 -34q2 -8 9 -30.5 t9 -30.5l6 -37q4 -14 8.5 -27.5t8.5 -30.5q4 -14 5 -28.5t5 -30.5q0 -6 3 -18.5t7 -25.5t8.5 -22.5t10.5 -9.5t10 13q4 8 5 15t5 36q2 16 5 30.5t8 28.5q2 12 3 23.5t3 21.5q6 45 18 88q2 10 4 19.5t4 19.5l6 37q4 12 6.5 23.5t6.5 21.5q4 12 6 24.5t6 24.5q4 10 5 17.5 t5 15.5q2 6 4 28.5t6 28.5q6 12 26 23.5t48 11.5h19.5t29.5 -2q16 0 29.5 -1t20.5 -1q4 0 20 2t20 2q12 2 27.5 3t28.5 1q37 0 44 -21.5t7 -37.5q0 -10 -1 -19.5t-3 -19.5t-11.5 -43t-19.5 -73t-20.5 -76.5t-14.5 -51.5q-2 -14 -4 -27.5t-6 -27.5q-4 -18 -10 -36.5 t-10 -37.5q-4 -18 -9.5 -37.5t-9.5 -38.5q-4 -16 -9 -29.5t-9 -29.5q-6 -18 -10.5 -37.5t-10.5 -40.5q-2 -8 -8 -26.5t-13 -40t-13.5 -41t-8.5 -27.5q-2 -10 -3 -18.5t-5 -18.5q-2 -10 -5 -18t-7 -19q-4 -10 -6 -22.5t-6 -22.5q-4 -12 -13.5 -23.5t-17.5 -23.5 q-12 -20 -18.5 -27.5t-22.5 -15.5q-14 -8 -23.5 -9t-34.5 3q-6 0 -28.5 -1t-30.5 -1q-10 0 -40 1t-40 1q-4 0 -17.5 -1t-17.5 -1q-18 0 -29.5 3t-21.5 11q-29 23 -46 62t-34 92q-10 31 -20 61.5t-21 61.5q-4 10 -20 65.5t-34.5 118t-34 115.5t-17.5 61q-12 35 -24.5 69 t-20.5 68q-6 23 -11.5 44.5t-9.5 43.5q-6 23 -12 50t-6 43z" />
<glyph unicode="w" horiz-adv-x="1366" d="M864 2q-4 0 -22.5 -1t-22.5 -1q-14 0 -22.5 4t-24.5 14q-25 18 -33 33t-20 60l-7 21t-10.5 33.5t-10.5 35t-5 22.5q-2 6 -2 12.5t-2 12.5q-2 4 -9 16t-14 12q-6 0 -14 -12q-4 -8 -10 -38.5t-8 -41.5q-4 -16 -8.5 -30.5t-8.5 -30.5l-6 -43q-10 -37 -19.5 -50.5 t-17.5 -17.5q-6 -4 -12 -6t-15.5 -3t-27.5 -2t-49 -1q-4 0 -16.5 -1t-26.5 -1t-26.5 -1t-18.5 -1q-41 0 -58.5 20.5t-33.5 55.5q-10 25 -14.5 35t-12.5 32q-8 27 -21.5 66t-23.5 67l-9 22.5l-9 22.5q-10 31 -16.5 62t-16.5 61q-4 14 -10.5 27.5t-12.5 30.5q-4 14 -9 27.5 t-11 27.5q-10 29 -20.5 57.5t-20.5 57.5q-4 14 -11.5 38.5t-14.5 49t-12 43t-5 20.5q-6 23 -10.5 45.5t-10.5 44.5q-10 25 -11 34t-1 22q0 20 9 33.5t21.5 20.5t24 10t15.5 3h16t25.5 -1t24.5 -1h18q6 0 29.5 2t31.5 2q51 0 65.5 -12t20.5 -27q8 -16 19.5 -46.5t17.5 -47.5 q6 -16 10 -32.5t10 -32.5q4 -12 8.5 -24.5t8.5 -25.5q4 -16 7 -31.5t7 -31.5q6 -20 17 -45q0 -2 6 -18.5t12 -37t12 -38t6 -19.5q4 -16 11.5 -43.5t19.5 -27.5q8 0 19.5 26.5t15.5 50.5q2 6 3 13.5t3 13.5q4 16 8 27q2 10 3 20t1 21q0 41 -14 84l-4 12l-4 12q-2 10 -2 19.5 t-2 19.5q-2 6 -7.5 21.5t-11.5 35t-12 37t-8 25.5q-6 14 -6 26q0 10 5 28t11 24q4 4 17.5 12t23.5 8q4 0 21.5 -2t23.5 -2q4 0 16.5 1t25.5 1t25.5 1t18.5 1h62q23 0 46 -9t40 -65q8 -25 11 -50t9 -50q4 -12 7 -23.5t7 -21.5q4 -14 8.5 -35.5t8.5 -32.5q4 -20 7 -40.5 t7 -40.5q2 -12 4 -23.5t4 -22.5q2 -10 3 -17t1 -17q2 -4 7.5 -23.5t5.5 -26.5q0 -10 2 -14q4 -8 6 -14q2 -12 6 -12q10 0 13 10t3 14q2 10 5.5 21.5t7.5 23.5q4 10 5 21.5t5 21.5q2 10 5 18.5t5 18.5q4 10 5 18.5t5 18.5q2 12 9.5 39.5t16.5 58.5t16.5 58.5t11.5 37.5l12 31 q2 10 8 43t12 43t30 23.5t50 13.5h60q6 0 25.5 -2t25.5 -2q8 0 31.5 2t31.5 2q23 0 36 -8t20.5 -18.5t9.5 -20.5t2 -14q0 -16 -11.5 -53.5t-17.5 -53.5q-6 -20 -13 -39.5t-15 -40.5q-10 -37 -19.5 -73.5t-21.5 -71.5q-10 -25 -19.5 -49.5t-17.5 -48.5q-4 -10 -11.5 -35 t-16.5 -53.5t-16 -54t-12 -36.5q-4 -12 -10 -24.5t-10 -24.5q-10 -23 -17.5 -46t-15.5 -48q-10 -29 -16 -55.5t-17 -55.5q-10 -27 -17 -41t-14 -23t-16.5 -14.5t-21.5 -11.5q-16 -10 -25.5 -11t-36.5 1h-90z" />
<glyph unicode="x" horiz-adv-x="980" d="M201 387q8 12 16 23.5t14 23.5q8 10 13.5 21.5t13.5 21.5q12 16 24.5 35.5t12.5 36.5q0 14 -7 28.5t-18 28.5q-10 16 -19 28.5t-20 29.5q-8 10 -14 22t-14 23q-6 10 -13.5 19t-15.5 20l-12 20l-12 20q-8 12 -16.5 23.5t-14.5 24.5q-8 14 -11.5 19t-13.5 19 q-8 10 -13 23.5t-13 26.5q-12 23 -16.5 32t-4.5 23q0 10 4 24.5t10 18.5q16 12 43 12q4 0 13.5 -1t19.5 -1q10 -2 19.5 -3t13.5 -1h180q16 0 27.5 -10t19.5 -23q8 -10 12.5 -22t10.5 -23q4 -8 10 -14t10 -14q4 -6 12.5 -19.5t16.5 -29t14 -27.5l6 -12q4 -8 8.5 -16.5 t8.5 -8.5q2 0 7 9t11 20.5t12.5 22.5t8.5 16q10 23 28.5 50t28.5 50q16 39 31.5 45t62.5 4h41h34h19.5t-2.5 0l37 -2q4 0 17.5 1t28 2t26.5 2t18 1q16 0 28.5 -12t12.5 -27q0 -8 -5 -25.5t-21 -39.5q-14 -18 -18.5 -25.5t-18.5 -30.5t-30.5 -51t-24.5 -41q-16 -23 -31.5 -42 t-28.5 -42q-6 -12 -12 -23.5t-12 -23.5q-6 -10 -12.5 -20.5t-12.5 -20.5q-25 -45 -31 -56t-6 -20q0 -8 4 -15t9 -17q18 -33 44.5 -78t45.5 -78q12 -27 19 -37t26 -37q12 -16 23 -34.5t22 -36.5q18 -35 29.5 -56.5t27.5 -40.5q10 -14 16.5 -25.5t6.5 -33.5q0 -18 -15.5 -29.5 t-38.5 -11.5q-8 0 -16 1t-16 1h-170q-4 0 -21.5 -1t-21.5 -1q-18 0 -27 4q-6 4 -19.5 17.5t-23.5 25.5q-2 4 -8 15.5t-12.5 24.5t-12.5 25.5t-8 16.5q-4 4 -14.5 19.5t-14.5 19.5q-4 6 -5 12t-5 13q-4 4 -7 10t-7 10q-4 2 -10.5 14.5t-10.5 12.5q-2 0 -8 -13.5t-10 -17.5 q-16 -23 -22.5 -35t-24.5 -47q-16 -25 -29 -47q-8 -10 -14 -31q-8 -18 -21.5 -34.5t-54.5 -16.5q-4 0 -16.5 1t-25.5 1t-25.5 1t-18.5 1q-18 -2 -31 -2q-12 -2 -21 -2h-12q-8 -2 -37.5 -3t-37.5 -1q-27 0 -44.5 13t-17.5 40q0 6 1 12.5t6.5 16.5t15.5 26.5t28 44.5 q8 14 20.5 33t20.5 33q10 18 20.5 36.5t20.5 37.5q31 55 58 100z" />
<glyph unicode="y" horiz-adv-x="937" d="M569 819q0 2 3 12.5t6.5 21.5t5.5 21.5t2 12.5q4 10 7 17t7 18l6 18q6 39 25 66q8 14 17 17t50 3q4 0 21.5 2t23.5 2q4 0 9.5 -1t13.5 -1q8 -2 14 -2h8h7.5t21.5 2h29q4 0 18.5 2t18.5 2q31 0 40 -23.5t9 -52.5t-12 -67q-2 -6 -7.5 -24.5t-12.5 -40t-13 -40t-8 -26.5 q-4 -14 -7.5 -22.5t-6.5 -16.5t-6 -16.5t-9 -20.5q-8 -18 -14.5 -38.5t-12.5 -41.5q-10 -39 -24.5 -84t-36.5 -108q-10 -31 -27.5 -73t-29.5 -73q-4 -10 -6.5 -20.5t-6.5 -20.5q-6 -12 -12 -23.5t-10 -23.5q-4 -10 -7.5 -18t-7.5 -17q-10 -27 -29.5 -61.5t-39.5 -56.5 q-20 -23 -32.5 -36.5t-20 -21.5t-13.5 -11t-12 -7q-41 -23 -75 -34t-68.5 -16.5t-71.5 -6.5t-84 -1q-16 0 -41 1t-47 12q-29 10 -34 20t-9 33q-4 12 -4 14q0 4 2 18.5t2 18.5q0 12 -1 24.5t-1 24.5q-2 6 -1 25.5t1 23.5t-1 17.5t-1 17.5q0 25 17.5 48.5t58.5 23.5 q8 0 28.5 -2t42.5 -4l58 -4q6 0 20 6t14 22q0 6 -1 11.5t-3 11.5q-4 10 -9 18.5t-9 18.5q-2 4 -3 7t-3 7q0 2 -10.5 26.5t-21.5 53.5t-22.5 55.5t-15.5 34.5q-6 16 -16 33q-2 6 -8.5 22.5t-12.5 35t-13 35.5t-9 24q-10 23 -23.5 45t-23.5 45q-4 8 -15.5 37.5t-15.5 40.5 q-6 14 -13.5 26t-13.5 29q-4 12 -7 24.5t-7 24.5q-4 10 -9 21.5t-10 21.5q-2 8 -2 29q0 10 4.5 31.5t28.5 27.5q4 2 17.5 1t17.5 -1t10 1t10 1q16 2 39 3t27 1q8 0 33.5 -2t34.5 -2q4 0 21 1t22 1l28 -6q16 -4 22.5 -7t12.5 -18q0 -2 8 -22.5t18.5 -45t18.5 -46t10 -25.5 q8 -25 14.5 -49.5t14.5 -50.5q2 -10 11.5 -39t19.5 -60.5t18 -57t8 -30.5q0 -4 3.5 -12t11.5 -8q6 0 10 10q4 8 12 39t17.5 65.5t16.5 67.5t9 45q2 10 2 19.5t2 19.5z" />
<glyph unicode="z" horiz-adv-x="811" d="M197 713q-8 0 -33 -3t-33 -3q-25 0 -41 11t-22 23t-7.5 25.5t-1.5 60.5q0 8 -3 34t-3 36q0 4 2 23.5t4 25.5v22.5t4 18.5q2 4 17.5 22.5t66.5 18.5h31h6q2 -2 4 -2h7h16q6 0 24.5 1t40 2t40 2t26.5 1q20 0 47 -1t45 -1q6 0 18.5 -1t28 -1t27.5 -1t18 -1q16 0 34 1t34 1 q33 2 58.5 2h56.5q12 0 24 -3t29 -21q10 -14 11 -23.5t-1 -28.5v-47q0 -41 -10 -63.5t-35 -63.5q-29 -41 -49 -80q-18 -35 -41 -71.5t-33 -46.5q-14 -18 -23.5 -29.5t-16.5 -23t-15 -24.5t-21 -38q-18 -35 -30.5 -61.5t-12.5 -51.5q0 -29 16.5 -34t30.5 -5q6 0 24.5 1 t25.5 1q4 0 17 1t17 1h15q2 0 13 -1t25.5 -1h27h14.5q23 0 47 -16t28 -45q2 -6 1 -28.5t-1 -28.5v-27q-2 -4 -4 -21.5t-2 -21.5q0 -14 2 -26.5t2 -24.5q0 -18 -8 -39t-18 -31q-4 -4 -18.5 -8t-55.5 -4q-6 0 -29.5 1t-31.5 1q-59 0 -140.5 1t-140.5 1h-20.5t-31 1t-30.5 1 h-20q-8 0 -31 -1t-47.5 -2t-47 -2t-30.5 -1q-16 0 -32.5 13.5t-20.5 25.5q-2 8 -2 30.5v28.5q0 35 7 55.5t19 43.5q2 4 8.5 16t13.5 26.5t13 26.5t10 19q8 12 15.5 23t13.5 24q8 10 13 23.5t12 25.5q4 10 10 18t12 19q8 10 15.5 19t13.5 20q6 10 10 21t10 22q4 4 6 8t7 8 q12 18 25 45t24 45q6 10 13 19.5t11 19.5q8 14 12.5 31.5t4.5 21.5q0 18 -17.5 21.5t-23.5 3.5t-30 -3t-32 -3h-28z" />
<glyph unicode="{" horiz-adv-x="724" d="M670 1454q23 0 39 -19.5t16 -56.5q0 -12 -1 -24.5t-1 -24.5q0 -6 1 -25.5t1 -23.5q0 -16 -6 -29.5t-45 -15.5q-4 0 -18.5 1t-18.5 1h-13.5t-19.5 -4q-20 -6 -48 -18.5t-40 -51.5q-4 -16 -4 -31.5t-4 -31.5q-2 -10 -4 -21.5t-4 -21.5v-4q0 -6 1 -30t1 -30q0 -4 1 -20.5 t1 -22.5t-4 -29.5t-4 -29.5q-2 -8 -2 -15.5t-2 -15.5q-2 -25 -10.5 -47t-18.5 -39l-60 -59q-8 -6 -22 -13.5t-29.5 -12.5t-28 -9t-18.5 -4h-14q-23 0 -23 -10q0 -2 6.5 -3t10.5 -1q8 -2 20 -3q10 -2 41 -14t41 -16q14 -8 31.5 -28.5t32 -45.5t25.5 -48.5t13 -35.5 q0 -16 3 -25q4 -16 4 -26q2 -4 1 -16.5t-1 -16.5q0 -8 4 -35.5t4 -36.5v-19t-1 -27.5t-1 -28v-19.5q0 -29 4 -37q2 -4 5 -9t5 -11q4 -4 4 -9t4 -10q8 -20 37 -39.5t62 -19.5q6 0 24.5 2t24.5 2q4 0 16 -3t17 -5q4 -2 12 -9t8 -28q0 -6 -2 -25.5t-2 -25.5q0 -4 3 -25.5 t3 -27.5q0 -31 -7 -42.5t-18 -19.5q-8 -4 -14 -5t-31 -1q-4 0 -18 -1t-18 -1t-18.5 1t-31.5 3q-16 2 -30.5 3t-20.5 1h-43q-14 0 -23.5 3t-37.5 16q-25 10 -48.5 19t-41.5 26q-8 6 -14.5 14t-12.5 14q-27 29 -40 46.5t-21 58.5q-2 6 -4.5 29.5t-4.5 50t-3 47t-1 24.5 q0 6 1 19.5t2 29t2 28.5t1 20q0 6 -3 23.5t-6 36.5t-6 35.5t-3 20.5q-8 31 -23.5 51.5t-27.5 26.5q-6 4 -19 8q-8 6 -13 13.5t-13 11.5q-6 4 -13.5 4h-29.5q-25 0 -38 8t-13 39q0 10 1 22.5t1 22.5q0 8 -4.5 36t-4.5 38q0 18 11.5 35.5t27.5 17.5q4 0 13.5 -1t13.5 -1 q25 0 46.5 11.5t35.5 25.5q2 2 20.5 24.5t30.5 57.5q8 20 9 33.5t1 56.5q0 6 1 18.5t2 26.5t2 27.5t1 19.5q0 16 -1 33.5t-1 34.5v14q2 16 5.5 32.5t7.5 35.5q4 20 6 40.5t12 39.5q6 10 20.5 27.5t20.5 23.5q8 8 15.5 13t15.5 11q27 25 34 30t23 13q29 10 60.5 14.5 t62.5 8.5q39 8 50 9t28 1q6 0 26.5 -1t26.5 -1q4 0 13.5 1t13.5 1z" />
<glyph unicode="}" horiz-adv-x="724" d="M223 276q0 6 -1 19.5t-1 30t-1 30t-1 19.5q0 8 4 31.5t6 31.5q2 16 3 32.5t6 33.5q8 25 18 39t31 32q8 10 15 18.5t15 16.5q4 4 17.5 11.5t29 14.5t32 12t28.5 5q2 0 7 -1t9 -1q8 0 12.5 4t4.5 9q0 2 -19 2q-8 0 -13 1t-11 3q-8 2 -15.5 5l-17.5 7t-19.5 6t-17.5 6 q-18 8 -36.5 32t-34 50.5t-25.5 50t-12 35.5q-2 6 -3 19q-4 16 -4 24q-2 4 -1 18.5t1 18.5q0 8 -4 33.5t-4 36.5v20.5t1 30.5t1 30.5v20.5q0 18 -4 29l-4 8t-9 17.5t-9 18.5t-7 11q-6 10 -11 13t-21 12q-4 4 -10.5 7t-12.5 5q-8 4 -21.5 5t-17.5 1t-19.5 -2t-19.5 -2 q-2 0 -11 2t-13 4q-12 2 -22.5 7t-10.5 32q0 4 2 22.5t2 24.5t-3 24.5t-3 24.5q0 25 7 50.5t44 25.5h47q8 0 27.5 -1t41 -3t42 -3t29.5 -1q18 0 28 -2q12 -2 24.5 -7t26.5 -10q20 -8 35 -13t24 -9t16 -10t18 -17q6 -6 11 -13t11 -13l14.5 -14.5t12.5 -14.5q12 -16 23.5 -47 t13.5 -66v-19t2 -20q0 -16 3 -32.5t3 -32.5q0 -4 -1 -19.5t-3 -32t-3 -31.5t-1 -19q0 -16 4 -33t6 -33q4 -12 4 -24.5t4 -24.5q4 -10 8 -19.5t8 -19.5q6 -10 12.5 -20.5t20.5 -18.5q4 -4 9 -5t10 -5q8 -4 14 -12.5t16 -12.5t52 -4q41 0 40 -37q0 -6 -1 -27.5t-1 -27.5 q0 -8 4.5 -37t2.5 -39q0 -23 -14.5 -38t-24.5 -15q-2 0 -12.5 2t-14.5 2q-41 0 -64.5 -21.5t-33.5 -37.5q-16 -23 -24.5 -38.5t-13.5 -30.5t-6 -35.5t-1 -53.5v-25.5t-2 -25.5q-4 -16 -4 -22.5v-10.5q0 -8 2 -32.5t2 -33.5v-19t-4 -28q-4 -10 -5.5 -18t-3.5 -19 q-2 -8 -2 -16t-2 -16q-10 -37 -17 -49.5t-18 -22.5q-16 -20 -23 -26.5t-26 -22.5q-8 -6 -15 -13.5t-15 -13.5q-10 -6 -32 -16t-48 -17q-16 -4 -30.5 -4t-31.5 -2q-16 -4 -30.5 -6t-30.5 -4h-18.5h-30h-29.5h-21q-6 0 -17 1t-22.5 7t-18.5 20.5t-7 41.5q0 14 2 26.5t2 26.5 q0 4 -2 24.5t-2 26.5q0 10 6 26.5t45 16.5q8 0 16.5 -1t18.5 -1q35 0 74 17.5t49 56.5q4 16 4 31.5t4 31.5q2 10 5 21.5t3 23.5v4z" />
<glyph unicode="&#xa1;" horiz-adv-x="555" d="M340 1440q43 0 61.5 -8.5t26.5 -24.5q2 -6 4 -19.5t3 -29t1 -29.5v-22v-21.5t-1 -33t-1 -33v-21.5q-2 -23 -2 -33t-4 -18q-8 -14 -29.5 -21.5t-33.5 -7.5q-8 0 -25 4h-17.5t-28.5 -1t-28.5 -1h-19.5q-4 0 -16.5 1t-16.5 1t-15.5 -1t-15.5 -1q-23 0 -40 11.5t-21 27.5v33 q0 8 -2 34.5t-2 35.5q0 4 1 25.5t2 46t3 46t4 25.5q6 27 24.5 31t28.5 4q12 0 23.5 -1t23.5 -1q4 0 21.5 1t21.5 1h70zM104 143q0 18 1 31.5t8 56.5q4 35 4 72t4 72q2 27 4 52.5t6 49.5q2 41 2 80t4 80q4 16 6 34.5t4 37.5v24t3 25q0 4 2 34.5t4 65.5t5 64.5t3 33.5 q2 10 3 17.5t3 17.5q2 14 6 28.5t15.5 24t33 15.5t60.5 6q43 0 60 -13.5t20 -19.5l2 -13t5 -29.5t5 -32t2 -17.5q2 -12 2 -24.5t2 -24.5q4 -25 7 -48.5t7 -47.5q4 -23 4 -47.5t2 -49.5q4 -43 8.5 -85t8.5 -85q4 -45 6 -89t8 -89l6 -67v-64q2 -16 5.5 -34.5t5.5 -34.5v-78 q0 -29 -12.5 -48.5t-41.5 -23.5q-6 0 -33.5 1t-37.5 1q-8 0 -33 1t-33 1t-40 -2t-42 -2q-37 0 -55.5 22.5t-18.5 51.5v69z" />
<glyph unicode="&#xa2;" horiz-adv-x="724" d="M580 731h-36t-36 -2q-2 0 -14.5 -5t-26.5 -10t-27 -10l-12 -6q-8 -4 -21.5 -16t-25.5 -30.5t-21.5 -40t-9.5 -44.5q0 -4 -1 -15t-1 -15q0 -2 1 -7.5t1 -7.5t-1 -7t-1 -7q0 -4 4 -21.5t4 -21.5q2 -10 11.5 -28.5t25 -40t37 -42t49.5 -32.5q23 -10 40.5 -16.5t32.5 -10.5 t32.5 -6t42.5 -2q23 0 39 -11.5t16 -52.5q0 -8 -3 -33.5t-3 -33.5q0 -4 1 -16.5t2 -26t2 -25.5t1 -18q-2 -10 -2 -15.5v-17.5q0 -23 -20.5 -40t-49.5 -17q-6 0 -26.5 1t-26.5 1q2 -10 2 -26.5v-27.5q0 -6 1 -26.5t1 -26.5q0 -29 -16.5 -43t-32.5 -14q-4 0 -23.5 3t-25.5 3 q-10 0 -22.5 -2t-24.5 -2q-23 0 -38.5 12t-15.5 51q0 8 1.5 23.5t1.5 34t1 35t1 24.5q-8 2 -23.5 9t-33 15.5t-32 15.5t-18.5 9q-12 8 -23.5 16.5t-23.5 18.5q-29 23 -47.5 39t-30.5 32.5t-22.5 36t-24.5 48.5q-16 35 -27.5 69.5t-13.5 34.5q-4 12 -8 47t-4 88q0 4 -1 18.5 t-1 30t-1 28.5t-1 19q0 31 7 65t17 67q23 74 49.5 116.5t59.5 77.5q12 14 30.5 31.5t43 35t55.5 32t69 20.5v16q-2 6 1.5 31t3.5 33q0 6 -3.5 29.5t-3.5 29.5q0 59 52 60q8 0 32.5 -4.5t32.5 -4.5q4 0 18.5 1t18.5 1q35 0 40 -21.5t5 -49.5q0 -10 -1 -17.5t-3 -17.5 q0 -6 -1 -29.5t-1 -32.5q16 0 39.5 -1t30.5 -3q2 0 9 -2t16 -9t16.5 -18.5t7.5 -29.5q0 -6 -1 -12t-1 -13q-4 -25 -4 -66.5v-80.5q0 -35 -4.5 -45t-30.5 -25q-14 -6 -21 -7t-30 -1z" />
<glyph unicode="&#xa3;" horiz-adv-x="1024" d="M547 526q0 -8 -4 -34.5t-4 -34.5q-2 -8 -2 -14.5t-5 -12.5q-6 -8 -8 -16l-6 -25q-2 -8 -8 -16q-6 -10 -11 -22.5t-12 -22.5q-8 -16 -10 -20.5t-2 -12.5q0 -10 12 -14q4 0 16.5 1t16.5 1q6 0 23.5 -2t23.5 -2h17q4 0 17 -2.5t17 -4.5h29q6 0 23.5 -2t36 -4t33.5 -4l16 -2 q12 0 32 4q2 0 22.5 1t45.5 3t46.5 3t23.5 1q4 0 21.5 3.5t23.5 3.5q16 0 22 -13.5t6 -23.5q0 -4 -1 -18.5t-1 -18.5v-29q0 -10 -2 -37.5t-2 -38.5q0 -4 3 -25.5t3 -27.5q0 -4 -2 -19.5t-6 -23.5q-6 -10 -26.5 -16t-49.5 -11h-13t-13 -2q-10 0 -18.5 -2t-18.5 -4h-45 q-4 0 -19.5 -1t-19.5 -1l-14 1q-13 1 -28 1t-27.5 1t-14.5 1q-23 4 -42 7.5t-42 7.5q-14 2 -27.5 2t-25.5 2q-23 2 -46.5 5t-45.5 5q-12 2 -19.5 2h-25.5q-4 0 -19.5 2t-19.5 2t-20.5 -1t-20.5 -1t-16.5 2t-16.5 2q-10 0 -18.5 -1t-18.5 -3h-37q-6 0 -28.5 -1t-28.5 -1 q-8 0 -41 -8q-20 -4 -37.5 -6t-24.5 -2q-10 0 -27.5 7t-17.5 40q0 4 1 23.5t1 25.5q0 10 -1 20.5t-1 20.5q-2 10 -3 20.5t-1 20.5q0 4 2 24.5t2 26.5q0 35 14.5 43t45.5 14q72 16 118 59.5t46 133.5q0 14 -1 24.5t-1 18.5q-2 8 -2 35q0 10 -5 26q-2 8 -3 15.5t-5 17.5 q-2 8 -3 15.5t-7 11.5q-4 0 -12 -1t-10 -1q-4 0 -17.5 2t-17.5 2t-12.5 -1t-12.5 -1q-4 -2 -11 -1t-11 1t-19.5 -2t-19.5 -2q-25 0 -32 20.5t-9 30.5q0 6 1 27.5t1 27.5v19.5t-1 29t-1 28.5v19q0 35 14 40t37 5q4 0 24.5 1t26.5 1q12 0 21.5 1.5t9.5 9.5q0 4 -2 8t-2 8 q-2 6 -1 12.5t-3 10.5v16q0 4 -3 11t-8 14q-6 16 -7 26t-1 39q0 4 -2 17.5t-2 17.5v9t2 11q0 4 -1 16.5t-1 16.5q0 2 1 12.5t2 20.5t2 19.5t1 11.5q0 10 6.5 27.5t13.5 36t14 32.5t11 20t14.5 20.5t24 31t28.5 31t28 24.5q25 18 42 26.5t44 18.5q29 10 39 14t32 9 q4 0 16.5 2t26 5t24.5 5t17 2q10 0 22.5 -1t24.5 -1q8 0 37 1t39 1q4 0 22.5 -2t24.5 -2q4 -2 7 -1t8 -1q4 0 18 -2t18 -4q8 -4 13 -5q2 -2 7 -1t7 1q8 0 25.5 -4t36 -9l37 -10t30.5 -9q16 -4 28.5 -13.5t12.5 -33.5q0 -4 -2 -16.5t-4 -26t-4 -25.5t-2 -18q-2 -12 -1 -24.5 t-3 -27.5q-2 -8 -4.5 -15t-4.5 -17v-4q0 -8 1 -15.5t1 -15.5q0 -18 -13 -32.5t-30 -14.5q-14 0 -24 3t-29 9q-4 2 -18.5 4t-29.5 4t-27.5 4t-14.5 2q-20 4 -29.5 6.5t-23.5 2.5h-15.5t-24.5 1t-24.5 1h-17.5q-29 0 -56.5 -8.5t-45.5 -28.5q-10 -12 -17.5 -34t-7.5 -34 q0 -8 2 -25.5t2 -21.5q4 -31 6 -44t2 -22q0 -6 7.5 -29.5t9.5 -31.5q2 -20 16 -20q2 0 8 1t8 1q4 0 15.5 -2.5t15.5 -2.5t20.5 1.5t20.5 1.5q6 0 13.5 1t13.5 1h35q4 0 23.5 1t27.5 1q45 0 58 -7.5t13 -44.5q0 -4 1 -15t1 -15t-2 -34t-2 -40q0 -6 3 -26.5t3 -28.5 q0 -18 -15 -29.5t-40 -11.5q-10 0 -18 1t-19 1q-4 0 -13 -1t-13 -1t-16.5 1t-16.5 1h-23q-4 0 -13 1t-13 1t-11.5 -1t-9.5 -1q-8 -2 -15 -2t-9 -4v-31q0 -8 2 -34t2 -34z" />
<glyph unicode="&#xa5;" horiz-adv-x="1236" d="M289 571q10 0 39.5 1t38.5 3q14 2 14 17q0 8 -25 49q-4 8 -15 34.5t-15 33.5q-8 14 -19 14q-6 0 -13 1t-11 1q-8 0 -13 2h-20q-18 4 -25.5 4h-21.5h-39t-25 -2q-16 -4 -20 -4h-8q-18 0 -34 9t-20 22q-4 8 -4 17t-2 56l-2 50q0 4 2 10t15 22q8 12 30 13q10 0 40 -1t38 -1 q37 0 37 16q0 6 -5 19.5t-12.5 28.5t-14.5 30.5t-11 21.5q-12 33 -17.5 44.5t-19.5 35.5q-16 27 -24.5 43.5t-24.5 59.5q-4 10 -17.5 34.5t-27.5 51t-25.5 48t-11.5 25.5q-2 4 -2 17q0 6 -2 10q0 8 7 18.5t13 14.5l17 4q8 2 14 4q6 0 27.5 -2t23.5 -2q8 0 25.5 1t37 1t36 1 t22.5 1h41l55 2q10 0 31 -8t29 -25q4 -6 14 -28.5t14 -28.5q2 -4 5.5 -13.5t3.5 -13.5q6 -16 11 -26.5t12 -22.5t16.5 -30.5t25.5 -47.5q4 -6 20.5 -48t43.5 -107l7 -13q7 -14 15 -30.5t15.5 -30.5t9.5 -16l20 -27q6 -6 15 -6q16 0 23 11t18 32q8 14 12 25.5t20 47.5 q12 31 17.5 44.5t17.5 44.5q12 25 18.5 40t11.5 26t8 20.5t9 23.5q2 6 8.5 17.5t12.5 24.5t12 25.5t8 16.5q10 27 18.5 45.5t24.5 46.5q12 23 39 26t68 3h31.5h25.5t27.5 -1t38.5 -1q6 0 17 1t24.5 2t24.5 2t16 1q35 0 48 -8t13 -25q0 -4 -6 -21.5t-6 -21.5 q0 -2 -11.5 -25.5t-24.5 -51t-25.5 -53t-14.5 -34.5q-23 -49 -50.5 -109.5t-68.5 -137.5q-8 -18 -8 -29q0 -18 35 -18q4 0 21.5 2t21.5 2q2 0 15 -1t27.5 -5.5t26 -13.5t11.5 -23q0 -6 -2 -24.5t-2 -23.5q0 -53 -2.5 -66t-10.5 -22q-10 -10 -21.5 -11t-15.5 -1h-65h-64.5 t-37 -1t-19.5 -2t-12 -3q-8 -4 -12.5 -10t-16.5 -29q-25 -45 -33 -62.5t-8 -27.5q0 -14 9 -16t14 -2q4 0 14 1t14 1q23 2 43.5 2h36.5q4 0 16.5 -1t25.5 -2t25 -3l11 -1q8 0 33.5 1.5t31.5 -1.5q14 -2 24.5 -15t10.5 -23q0 -4 -1 -15.5t-1 -15.5t1 -16.5t1 -25.5t1 -24.5 t1 -13.5q0 -10 -6 -21.5t-14 -15.5t-25.5 -5l-35 -2t-32.5 -1h-14q-4 0 -17 1t-26.5 2t-24.5 2l-11 1l-66 -4q-8 0 -32.5 1t-33.5 -1q-27 -2 -30 -23q-2 -2 -5 -16t-3 -25q0 -6 1 -25.5t3 -42t3 -43t1 -28.5v-9q0 -9 -1 -19.5t-1 -19.5v-11q4 -35 4 -43t-2 -17 q-2 -20 -12.5 -36.5t-26.5 -20.5l-62 2q-12 -2 -22 -2q-10 -2 -17.5 -2h-9.5q-41 2 -57.5 2t-42.5 -2q-4 0 -23.5 -2t-23.5 -2q-14 0 -36 11t-24 42t-4 76t-2 76v6l4 92l-4 37v20q-2 18 -16 22.5t-29 4.5q-8 0 -26.5 -1t-39 -3t-39 -3t-24.5 -1q-4 0 -23.5 2t-35.5 4h-88 q-18 4 -33.5 22.5t-18.5 22.5q-2 4 -2 27.5t2 42.5l-2 30q0 35 21.5 41t34.5 6q4 0 21.5 -1t21.5 -1q6 0 28.5 2.5t24.5 2.5t13.5 -1.5t25.5 -3.5q17 -2 37 -2z" />
<glyph unicode="&#xa8;" horiz-adv-x="598" d="M680 1280q0 -4 -2 -22.5t-2 -24.5v-37q0 -41 -8.5 -56.5t-32.5 -15.5q-4 0 -17.5 1t-17.5 1q-6 0 -24.5 -1t-24.5 -1h-47q-10 0 -39 1t-37 1h-29q-31 0 -37 11.5t-8 25.5v60q0 6 -2 32.5t-2 34.5q0 4 2 22.5t2 24.5q0 4 -2 18.5t-2 18.5q0 20 12.5 32.5t28.5 12.5 q6 0 27.5 -2t27.5 -2q16 0 33 1t33 1t31.5 -1t31.5 -1q6 0 24.5 1t25.5 1q8 0 17 -3t24 -15q10 -8 11 -13.5t1 -21.5q0 -4 1 -12.5t1 -12.5v-59zM-8 1413h6h2q0 -2 2 -2h2h6q4 0 14.5 1t20.5 1q10 2 20.5 2h14.5q6 0 27.5 -1t27.5 -1q8 0 36 2t36 2q39 0 39 -43v-33 q0 -4 1 -20t1 -21q0 -4 -1 -19t-1 -19t1 -18.5t1 -18.5t-1 -19.5t-1 -19.5v-21q0 -35 -37 -39q-6 -2 -29.5 -1t-32.5 1q-4 0 -17 -1t-27.5 -1t-27 -1t-18.5 -1q-4 0 -21.5 1t-21.5 1q-6 0 -23.5 -1t-23.5 -1q-25 0 -35 12.5t-12 16.5q-2 8 0 18.5t2 20.5q0 8 -1 30.5t-1 48 t-1 49t-1 34.5q0 31 19.5 46t35.5 15h19z" />
<glyph unicode="&#xa9;" horiz-adv-x="1705" d="M1583 725q0 -152 -56.5 -285t-154.5 -232t-231 -156.5t-289 -57.5q-141 0 -273.5 53t-232.5 149.5t-160.5 230.5t-60.5 296q0 156 58.5 290t158.5 231t232.5 152.5t279.5 55.5q158 0 291 -58.5t230.5 -157.5t152.5 -231.5t55 -279.5zM854 59q141 0 262 52.5t210 142.5 t140.5 211t51.5 258q0 135 -50.5 256t-138.5 212t-209 143t-262 52t-263 -52t-212 -142t-141.5 -211t-51.5 -258q0 -139 52.5 -261t142.5 -211t211 -140.5t258 -51.5zM1272 389q-98 -102 -198.5 -137t-203.5 -35q-127 0 -222 41t-159.5 110.5t-97.5 161t-33 193.5 q0 104 35 197.5t100.5 164t161 111.5t215.5 41q84 0 148.5 -18.5t113 -45t83 -56.5t57.5 -54l-178 -172q-47 47 -100.5 73.5t-125.5 26.5q-68 0 -117 -23.5t-79.5 -60.5t-45 -85t-14.5 -97q0 -119 70 -191.5t190 -72.5q45 0 81 10t63.5 24.5t46 30t31.5 27.5z" />
<glyph unicode="&#xaa;" horiz-adv-x="724" d="M109 1366q0 8 5 21.5t9 17.5t16.5 8t18.5 8q12 4 24.5 6.5t22.5 6.5q31 10 65.5 17t96.5 7q59 0 101 -10t68.5 -23.5t40 -26t15.5 -14.5q4 -4 6 -7t6 -7l7 -7l7 -7q8 -10 15.5 -33t7.5 -51v-20.5t-1 -32t-1 -31.5v-21q0 -4 1 -21.5t1 -21.5t-1 -17t-1 -17t1 -19.5 t1 -21.5t-1 -30t-1 -32q0 -4 1 -22.5t1 -22.5v-78q0 -4 1 -15t1 -15q0 -31 -33 -41q-10 -4 -20 -4.5t-47 -0.5q-6 0 -31 -1t-33 -1q-10 0 -15 6.5t-7 12.5q-4 10 -5 13t-6 3q-4 0 -14 -10q-4 -4 -8 -6l-8 -4q-35 -16 -57.5 -18.5t-51.5 -2.5q-39 0 -88 10.5t-82 38.5 q-4 2 -11 10.5t-15.5 17.5t-15.5 18.5t-9 15.5q-6 8 -13 29.5t-10 29.5q0 2 -1 14.5t-2 27t-2 26.5t-1 14v8q2 10 9.5 32t11.5 28q2 2 10 11t16.5 19.5t15.5 18.5t9 10q16 16 45 27.5t55 19.5q4 2 18.5 4t30 4.5t27.5 3.5t14 1h19q4 0 15.5 1t15.5 1t16 -2t16 -5 q4 0 12.5 -2t10.5 -2q8 0 16.5 4.5t8.5 14.5q0 8 -13 20q-16 20 -74 21l-65 -4q-8 0 -33.5 -7.5t-36.5 -9.5l-12 -3t-20 -7q-4 -2 -23.5 -8t-26.5 -6q-10 0 -17 3t-11 7q-10 6 -11 25q0 4 1.5 21t1.5 24v61v0zM258 1008q0 -25 16 -37q12 -10 36 -16.5t28 -6.5q8 0 16 2t19 4 q16 2 21 3t20 10q10 4 20 12t10 31q0 12 -8 20q-10 10 -32.5 20.5t-28.5 12.5q-2 0 -8.5 -1t-10.5 -1q-2 0 -8 1t-10 1q-10 -4 -19 -6q-4 -2 -12 -2q-4 0 -6 -2q-16 -4 -29.5 -13t-13.5 -32z" />
<glyph unicode="&#xab;" horiz-adv-x="724" d="M383 635q0 20 4 27q4 6 22.5 18t22.5 16q10 10 20.5 18.5t20.5 16.5q12 10 24.5 19.5t22.5 19.5q4 4 9.5 10t9.5 11q10 10 21 20l22 20l18 25q18 18 33 18q18 0 25.5 -13t9.5 -30q2 -4 1 -22t-1 -25q0 -8 -2 -31.5t-2 -29.5q0 -8 2 -36t2 -38q0 -35 -12.5 -49t-26.5 -22 q-10 -6 -18.5 -11.5t-18.5 -13.5q-14 -8 -14 -16q0 -10 15 -19.5t25 -13.5q23 -10 34.5 -20.5t11.5 -37.5v-18t-1 -26.5t-1 -27v-18.5t1 -19t3 -28.5t3 -30t1 -20.5q0 -29 -15.5 -35t-17.5 -6q-10 0 -18.5 6t-16.5 15q-12 10 -30.5 25.5t-32.5 25.5q-35 31 -61.5 50 t-43.5 32q-39 29 -45 42t-6 33v24.5t1 39t1 39v26.5q0 6 -1 29t-1 31zM311 350l1 -10t2 -22.5t2 -22.5l1 -10q2 -8 3.5 -15.5t1.5 -17.5q0 -16 -7 -23q-4 -4 -16 -10t-16 -6q-6 0 -14.5 7t-16.5 16q-2 2 -11.5 10t-20.5 18t-22 18l-10 9q-16 8 -24 14l-19 19q-4 4 -8 5t-8 5 q-6 4 -12 11t-15 11q-4 4 -24.5 16.5t-26.5 16.5q-16 10 -18 16.5t-2 32.5q0 10 2 39t2 39q0 23 -2 44.5t-2 43.5v27q0 23 5 31t30 28q18 12 41.5 30.5t46 37t41 35t26.5 26.5q16 16 33.5 34.5t32.5 18.5q16 0 24 -12t8 -29q0 -10 -2 -26.5t-2 -28.5q-6 -47 -6 -96 q0 -4 1 -20.5t1 -20.5q0 -23 -13 -38t-36 -32q-14 -10 -23.5 -16t-9.5 -14t6.5 -14.5t14.5 -10.5q10 -6 18 -11t17 -11q10 -6 17 -16.5t9 -26.5v-99z" />
<glyph unicode="&#xad;" horiz-adv-x="598" d="M168 674q6 0 27.5 2t29.5 2q6 0 27.5 -3t30.5 -3q4 0 22.5 2t24.5 2t30.5 -2t32.5 -2q10 0 41 1t41 1q16 0 25.5 -6t15.5 -13q8 -8 12 -18q0 -2 2 -19.5t3.5 -38t2.5 -38t1 -19.5q0 -6 -2.5 -24.5t-2.5 -24.5v-21.5t-2 -21.5q-4 -35 -27.5 -45t-37.5 -10q-4 0 -17.5 1 t-17.5 1q-12 0 -24.5 -1t-22.5 -1q-8 0 -32.5 1t-33.5 1q-6 0 -29.5 -1t-31.5 -1q-16 0 -31.5 1t-31.5 1q-6 0 -31 -2t-31 -2q-23 0 -40 11t-23 38q-2 6 -3.5 23.5t-2.5 37t-2 36t-1 18.5v18t1 29.5t2 29t4 17.5q4 12 19 25.5t38 17.5h45v0z" />
<glyph unicode="&#xae;" horiz-adv-x="1705" d="M846 1200q59 0 116.5 -3t104.5 -19q90 -29 128 -97.5t38 -134.5q0 -53 -17.5 -89t-42 -60.5t-53 -40t-51.5 -25.5q20 -14 36.5 -26.5t29 -31t21.5 -47t18 -71.5q14 -96 29.5 -162.5t49.5 -130.5h-258q-23 43 -32 92t-19 111q-10 70 -18 107.5t-28.5 56t-57.5 22.5t-103 4 v-393h-225v938h334zM737 834h99q51 0 80.5 3t50.5 15q23 12 32 35.5t9 46.5t-10.5 47.5t-39.5 36.5q-10 4 -20 6t-25.5 3t-41 1h-66.5h-68v-194zM1583 725q0 -152 -56.5 -285t-154.5 -232t-232 -156.5t-290 -57.5q-141 0 -272.5 53t-231.5 149.5t-160.5 230.5t-60.5 296 q0 158 58.5 291t157.5 230t231.5 152.5t279.5 55.5q158 0 292 -58.5t231.5 -157.5t152.5 -231.5t55 -279.5zM852 59q141 0 263 52.5t211 142.5t140.5 211t51.5 260q0 135 -50.5 255t-139.5 211t-210 143t-262 52t-262 -52t-211 -142t-141.5 -211t-51.5 -258 q0 -139 52.5 -261t142.5 -211t210 -140.5t257 -51.5z" />
<glyph unicode="&#xaf;" horiz-adv-x="598" d="M27 1272q0 20 7 31.5t16 16.5t20.5 6t19.5 1t32.5 -1t52.5 -2t52.5 -2t34.5 -1h21.5t21.5 2q18 2 35.5 4t36.5 2q8 0 33.5 -3t35.5 -3q6 0 29 3t31 3q23 0 45 -6t22 -43q0 -8 -4 -32.5t-4 -33.5q0 -4 1 -17t1 -17q0 -35 -20.5 -41t-40.5 -6q-6 0 -19.5 1t-30 2t-30.5 2 t-20 1q-4 0 -19.5 -2t-19.5 -4q-8 0 -29 -1.5t-25 -1.5t-16 1.5t-25.5 2.5t-26 2t-18.5 1t-28.5 -2t-28.5 -2h-39q-4 0 -22.5 -1.5t-24.5 -1.5q-29 0 -44 14.5t-15 33.5q0 4 3 23.5t3 25.5q0 12 -2 23.5t-2 21.5z" />
<glyph unicode="&#xb2;" horiz-adv-x="724" d="M600 725q6 0 17.5 -1t21.5 -5t18.5 -13.5t8.5 -25.5q0 -10 -1 -18.5t-1 -18.5q0 -4 1 -12t1 -13q0 -4 -1 -13t-1 -13t1 -11.5t1 -11.5q0 -14 -15.5 -30.5t-25.5 -20.5h-39q-8 0 -34 1t-34 1h-84q-4 0 -23.5 1t-25.5 1q-4 0 -16.5 -1t-16.5 -1h-78q-6 0 -29.5 1t-31.5 1 t-16.5 -1t-16.5 -1q-6 0 -25.5 1t-25.5 1q-4 0 -21.5 -2t-21.5 -2q-25 0 -35 5t-10 34q0 6 -2 23.5t-2 21.5q0 16 4 24.5t8 14.5q2 2 18.5 17.5t38 33t41 32.5t25.5 19q10 6 18.5 12.5t14.5 14.5l24 25q2 2 10.5 8t17.5 13t16.5 13.5t11.5 8.5q10 8 13 10t11 12 q4 4 16.5 14.5t16.5 14.5t8 10l8 12q2 4 5.5 6.5t7.5 6.5q16 16 32.5 36.5t24.5 36.5q4 4 8 17q4 4 6 8l4 8q4 12 7 17q2 6 6 14q4 10 4 20.5v20.5q0 2 1 8t1 8t-2 15.5t-8 30t-17.5 30.5t-29.5 20q-16 8 -33 13.5t-33 5.5q-25 0 -48.5 -11.5t-29.5 -15.5q-10 -8 -19 -25.5 t-9 -33.5q0 -4 1 -14.5t1 -14.5q0 -6 -5 -18q-2 -6 -2 -10q-4 -8 -17 -15.5t-30 -7.5q-10 0 -17 1t-17 1q-2 0 -11.5 -1t-13.5 -1t-17.5 1t-17.5 1q-25 0 -34 26.5t-9 45.5q0 8 1 15t1 15v13.5t2 15.5q0 2 4 19.5t13.5 41t25 51t39.5 52.5q23 20 49.5 33.5t51 21.5t44 11.5 t25.5 3.5q2 0 15.5 1t28.5 1h29.5h18.5q2 0 16.5 -3t31 -6.5t33 -7.5t22.5 -6q31 -12 59.5 -33.5t48.5 -44.5q18 -23 39 -63q8 -14 13.5 -36t8.5 -42t4 -35.5t1 -17.5q0 -12 -2 -33t-6.5 -43.5t-10.5 -45t-16 -40.5q-2 -6 -10 -18q-4 -8 -7.5 -15.5t-7.5 -15.5 q-4 -4 -7 -9.5t-7 -9.5l-12 -18q-4 -4 -7.5 -8t-7.5 -8t-12 -17q-4 -4 -20.5 -23.5t-20.5 -25.5l-21.5 -21.5t-54.5 -48.5q-2 0 -10 -8q-4 -4 -8 -6q0 -4 16.5 -3t20.5 1q6 2 27.5 0t29.5 -2q4 0 17.5 1t17.5 1h47z" />
<glyph unicode="&#xb3;" horiz-adv-x="724" d="M39 1264q0 12 4 20l8 16t34 38t67 53q47 27 89 36t93 9q55 0 117.5 -14.5t113.5 -63.5q29 -29 49.5 -68t20.5 -71q0 -10 -1 -36t-5 -36t-17.5 -37t-23.5 -41q-4 -4 -12.5 -11t-17.5 -16.5t-16 -16.5l-7 -7q0 -2 17 -11.5t21 -11.5q2 -2 11.5 -9t21.5 -19.5t23.5 -29.5 t19.5 -38q6 -16 13.5 -53t7.5 -66q0 -57 -31 -121.5t-109 -103.5q-33 -16 -56 -24.5t-45.5 -12.5t-48.5 -5t-58 -1q-20 0 -66.5 5t-99.5 34q-12 6 -23.5 14t-21.5 15q-18 10 -25.5 14t-22.5 18q-27 25 -33.5 34t-6.5 24q0 18 8 28q2 4 13 13.5t13 11.5l62 61q6 4 12 4h10 t11.5 -1t17.5 -9l20.5 -20.5t22.5 -20.5t13 -8l14 -8q2 -2 14 -6t26.5 -7t28 -6.5t19.5 -3.5q41 0 67.5 12.5t41 28t19.5 30.5t5 24q0 4 -1 13t-1 13q0 8 -7.5 21.5t-11.5 17.5q-16 23 -33.5 31t-46.5 18q-16 8 -24 9.5t-27 3.5q-29 4 -34 5t-11 5q-12 10 -14 22.5t-2 51.5 q0 29 6 40q4 10 17.5 18.5t23.5 10.5q6 2 11 1t11 1q6 0 11.5 2t11.5 4t16 2q27 8 51.5 30t24.5 50q0 27 -8 38t-12 16q-23 20 -45.5 25t-34.5 5q-10 0 -31.5 -3t-24.5 -5q-2 0 -24.5 -12.5t-44.5 -34.5q-8 -8 -14.5 -15.5t-12.5 -13.5l-12 -8t-16 -4q-14 0 -20.5 5 t-20.5 22q-4 4 -12.5 11t-12.5 9q-4 4 -15.5 17.5t-15.5 17.5q-8 6 -12 12.5t-4 18.5z" />
<glyph unicode="&#xb4;" horiz-adv-x="598" d="M127 1225q2 6 5 11t5 9q4 6 7 32t6 36q2 10 6 19t6 20q2 8 2 16t2 16q4 14 15.5 24.5t21.5 10.5q4 0 18.5 -2t18.5 -2h23.5t35.5 2q23 0 49 2q4 0 21.5 -2t21.5 -2q8 0 33 3t29 3q2 0 19 -6t17 -33q0 -16 -5 -30.5t-11 -24.5q-4 -8 -8 -13t-8 -14q-8 -10 -12.5 -22 t-12.5 -23q-6 -8 -18 -20q-4 -4 -6 -10t-7 -11q-4 -4 -15 -20t-15 -23q-4 -6 -5 -12t-6 -12q-12 -23 -30.5 -27t-53.5 -4q-6 0 -29.5 -1t-31.5 -1t-32.5 1t-32.5 1q-43 0 -44 37q0 18 15 41q4 10 5 13t1 14v4z" />
<glyph unicode="&#xb5;" d="M983 864q0 -8 -1 -34.5t-1 -34.5q0 -4 1 -16.5t1 -27t1 -26.5t1 -18q0 -4 -1 -21.5t-1 -21.5q0 -23 1 -44.5t1 -44.5v-16t-1 -26.5t-1 -26.5v-19q0 -20 1 -38.5t1 -38.5q0 -6 -1 -20.5t-2 -31t-2 -31t-1 -20.5q0 -12 1 -40.5t2 -61.5t2 -63.5t1 -43.5q0 -10 -1 -27.5 t-9 -32.5t-24.5 -26.5t-47.5 -11.5q-6 0 -20.5 1t-30.5 1t-31.5 1t-21.5 1q-10 0 -38 -2t-38 -2t-20.5 2t-16.5 18q-4 8 -5 15.5t-5 15.5q-2 4 -7 10.5t-10 6.5q-6 0 -13 -6.5t-13 -12.5q-27 -29 -70 -46t-67 -17q-10 0 -27.5 6t-24.5 8q-6 4 -21 18.5t-22 14.5 q-12 0 -12 -15q0 -4 2 -19t2 -19t-3 -22.5t-3 -25.5q0 -4 1 -17t2 -26.5t2 -24.5t1 -14q0 -16 -16.5 -34.5t-36.5 -18.5q-4 0 -20.5 2t-20.5 2q-10 0 -38 -4t-38 -4q-2 0 -9 1t-17 3t-17.5 3t-11.5 1q-6 0 -28.5 -2t-28.5 -2q-12 0 -23.5 11.5t-11.5 33.5v101q0 6 -2 30.5 t-2 32.5q0 10 3 42t3 42q0 6 -1 23.5t-3 38t-3 38t-1 25.5q0 16 1 33.5t3 36.5v19t-1 29.5t-1 31v20.5t1 20.5t1 31t1 30.5t1 20t-1 31t-1 31t1 25.5t1 25.5q0 4 -1 23.5t-1 25.5v41q0 6 -1 21.5t-1 33t-1 34t-1 22.5q2 16 2 32.5v32.5q0 4 1 24.5t1 27.5q0 4 -2 21t-2 24 q0 12 13 38.5t38 26.5h26q2 0 3 -2h2h12q10 0 18 1t19 1q10 2 18 2h19q4 0 22.5 -1t22.5 -1q6 0 28.5 2t28.5 2q23 0 30 -7t17 -24q10 -20 10 -38q0 -6 -2 -30t-2 -32q0 -18 1 -36.5t1 -35.5q0 -4 -1 -16t-2 -26.5t-2 -26.5t-1 -19q0 -8 1 -33.5t1 -33.5q0 -16 -1 -30.5 t-1 -31.5q0 -6 1 -26.5t1 -28.5q0 -4 -1 -24.5t-1 -26.5q0 -33 6 -64q4 -16 8.5 -37.5t8.5 -27.5q10 -29 39.5 -49.5t58.5 -20.5q35 0 65.5 12.5t49.5 47.5q4 6 9 18t9 24.5t7 22.5t3 12q4 10 5 41t1 70q0 6 1.5 28.5t3.5 30.5q0 4 -1 22.5t-1 22.5v14.5t4 22.5q0 8 1 21.5 t1 28v24.5v14q0 6 -1 30t-3 34q-2 16 -3.5 50t-1.5 50q0 12 2.5 19.5t10.5 17.5q16 29 31.5 34t25.5 5q4 0 20.5 -1t20.5 -1t13.5 1t19.5 1q10 2 18 2h13h53q4 0 23.5 1t25.5 1q20 0 37 -31q6 -10 7 -14t1 -18q0 -4 1 -14.5t1 -14.5v-72z" />
<glyph unicode="&#xb7;" horiz-adv-x="425" d="M57 627q0 12 4.5 34.5t32.5 22.5q4 0 21.5 -2t23.5 -2t32 3t36 3q8 0 35.5 -3t38.5 -3q4 0 17 1t17 1q14 0 29.5 -4t22.5 -12q10 -12 6 -62q0 -10 1 -43t1 -43q0 -8 -2 -32.5t-2 -32.5q0 -4 2 -20.5t2 -20.5q0 -23 -17.5 -37.5t-33.5 -14.5q-4 0 -21.5 2.5t-23.5 2.5 q-4 0 -17.5 -1.5t-28 -1.5t-27.5 -1t-20 -1q-8 0 -31.5 1t-31.5 1q-4 0 -13.5 -1t-13.5 -1q-16 0 -28.5 12.5t-14.5 26.5v25v19.5t-1 29.5t-1 30.5v20.5t1 20.5t2 31t2 31t1 20.5z" />
<glyph unicode="&#xb8;" horiz-adv-x="598" d="M276 63q8 -2 34 0.5t34 2.5q14 0 23 -19q4 -8 3 -16t1 -19q0 -10 2 -17t2 -18q0 -4 -1 -9t-5 -13q-4 -10 -5.5 -11t-1.5 -5t4.5 -11.5t14.5 -17.5q8 -4 14 -8t13 -8q2 -2 18 -21.5t16 -38.5q0 -8 -4 -29q-4 -23 -9 -39t-21 -26q-10 -8 -34 -21.5t-59 -13.5q-4 0 -18 2 t-18 2t-12.5 -1t-12.5 -1t-25.5 5t-31.5 9t-26.5 12.5t-16.5 35.5q0 10 3 21t3 22q2 10 1 18t3 18q6 33 41 33q4 0 14 -1t14 -1q14 0 26.5 10.5t12.5 26.5q0 6 -2 10t-10 17q-8 12 -17.5 46t-9.5 46q0 10 6.5 18t16.5 10h20z" />
<glyph unicode="&#xb9;" horiz-adv-x="724" d="M315 1106q0 8 -2 28.5t-18 20.5t-26.5 -5t-20.5 -13q-12 -8 -33.5 -19.5t-34.5 -11.5q-4 0 -16 9t-25.5 22.5t-24 32t-10.5 36.5q0 16 2.5 22.5t2.5 8.5q4 6 20 21.5t23 19.5q2 2 20 15.5t39.5 28.5t40 28.5t20.5 15.5q8 6 16.5 10t16.5 8q10 6 19.5 13.5t19.5 11.5 q8 4 32.5 9t43.5 5q23 0 45 -3t27 -5q8 -4 16 -12q6 -6 12 -16.5t6 -26.5q0 -4 -1 -16.5t-1 -16.5t1 -15.5t1 -15.5v-19t-1 -27.5t-1 -28v-19.5q0 -8 1 -33.5t1 -35.5v-23.5t-1 -37t-1 -37v-25.5q0 -4 1 -16.5t1 -16.5v-49q0 -4 1 -22.5t1 -24.5v-74q0 -4 -1 -19.5t-1 -19.5 v-17.5t2 -17.5q0 -8 -1 -35.5t-1 -38.5v-20t1 -30.5t1 -31v-20.5q0 -23 -15 -30t-32 -7q-10 0 -41.5 3t-42.5 3q-4 0 -23.5 -3t-25.5 -3q-29 0 -36 16.5t-7 38.5q0 6 2 32t4 34q0 4 -1 19.5t-1 21.5v16.5t1 26.5t1 26.5v18.5q0 4 2 18.5t2 18.5q0 6 -1 26.5t-1 28.5 q0 4 1 24.5t1 26.5q0 8 -1 36t-1 38q0 6 1 24.5t1 24.5v70z" />
<glyph unicode="&#xba;" horiz-adv-x="768" d="M414 1458q29 0 61.5 -8t38.5 -12q10 -4 17.5 -9.5t17.5 -9.5q14 -6 29 -14q23 -10 42 -32.5t50 -59.5q18 -23 37.5 -75t19.5 -99q0 -2 -1 -21.5t-3 -23.5q0 -23 -2 -36.5t-5 -25.5t-8.5 -26.5t-15.5 -38.5q-6 -16 -19.5 -34l-25.5 -34t-21 -27l-10 -12q-8 -6 -30.5 -21.5 t-24.5 -15.5q-8 -4 -15 -6t-16 -6q-10 -4 -20 -10q-8 -4 -23.5 -8.5t-23.5 -6.5q-4 0 -17.5 -1t-30 -2t-29.5 -2t-17 -1q-6 0 -24.5 2t-35.5 6q-18 2 -30.5 4.5t-22.5 5.5t-21.5 8t-29.5 15q-37 23 -49.5 32t-24.5 26q-4 4 -18.5 21.5t-18.5 23.5q-12 16 -23.5 39.5 t-18.5 48t-11 44t-4 25.5q0 4 1 19.5t1 19.5t-1 17.5t-1 17.5q0 29 6 52.5t18 49.5q2 4 9.5 15.5t15.5 24t16.5 23.5t12.5 15l5 5t19 16l25 24q10 10 26 21q33 18 56.5 29.5t42 16.5t36 7t40.5 2q4 0 23.5 1t25.5 1zM514 1126q0 12 -6 34t-12 32q-4 6 -19.5 21.5t-19.5 17.5 q-23 14 -49.5 18t-30.5 4q-2 0 -13.5 -2t-26.5 -7t-30.5 -14t-25.5 -22q-12 -14 -24.5 -33.5t-12.5 -48.5q0 -27 5 -45t9 -32q6 -16 17.5 -32t43.5 -32q12 -6 35 -9t25 -3q29 0 52.5 14t33.5 25q14 10 18 17t15 30q6 14 11 29t5 38z" />
<glyph unicode="&#xbb;" horiz-adv-x="724" d="M412 455q0 27 11 43t32 28q27 16 33 22.5t6 12.5q0 10 -17 23q-10 8 -20.5 12t-20.5 12q-16 14 -20 26.5t-6 20.5q0 4 1 21.5t1 21.5q0 6 -1 25.5t-1 26.5q0 4 -2 23.5t-2 23.5q0 14 -3 22q0 8 -2 15.5t-2 15.5q0 16 16.5 26.5t22.5 10.5q8 0 14.5 -4t18.5 -21 q4 -4 23.5 -20.5t25.5 -20.5q4 -4 20.5 -15t20.5 -15q6 -4 11.5 -9.5l9.5 -9.5l32 -24q18 -14 45 -27q25 -14 29 -22.5t4 -43.5q0 -4 -1 -15t-1 -25.5t-1 -27t-1 -16.5v-19t2 -20q4 -16 4 -22v-10t-1 -18.5t-1 -18.5q0 -10 -4 -22.5t-20 -22.5q-4 -4 -21.5 -15.5 t-21.5 -15.5t-22.5 -19.5t-39 -33t-38 -31.5t-17.5 -16q-20 -23 -27.5 -29t-17.5 -16q-6 -4 -13.5 -9.5t-15.5 -5.5q-14 0 -22.5 12.5t-8.5 28.5q0 10 3.5 41t5.5 41v105zM51 844q0 16 9.5 26.5t23.5 10.5t33 -19q23 -16 52.5 -42.5t51.5 -43.5q10 -8 20.5 -15t20.5 -16 q51 -37 64.5 -51t13.5 -41q0 -6 -1 -23.5t-1 -38t-1 -37.5t-1 -24q0 -8 2 -31.5t2 -31.5q0 -23 -7 -31t-26 -20q-4 -4 -19.5 -15.5t-31.5 -26t-31.5 -27.5t-19.5 -17l-25 -25q-10 -10 -19 -18t-20 -21q-12 -14 -26.5 -28.5t-24.5 -14.5q-29 0 -33 22.5t-4 33.5q0 4 1 15 t1 24.5t1 24.5t1 17q0 16 -1 33t-1 33q0 47 6.5 65.5t42.5 38.5q10 6 25.5 15.5t15.5 17.5q0 4 -10 11.5t-22.5 15.5t-23.5 14t-13 8q-4 2 -11.5 12.5t-7.5 30.5q0 6 1 28t1 28v39.5t-4 52.5t-4 30v11z" />
<glyph unicode="&#xbf;" horiz-adv-x="724" d="M186 1229q0 8 -2 38.5t-2 41.5q0 8 3 38.5t3 41.5q0 14 6.5 29.5t38.5 19.5q2 0 17.5 1t34 2t34 2t17.5 1q6 0 28.5 -1t28.5 -1q4 0 18.5 -2t18.5 -2h31q25 0 33 -7.5t12 -21.5q0 -6 -1 -25.5t-1 -25.5q0 -4 1 -16.5t1 -25.5t1 -25.5t1 -18.5t-2 -30.5t-2 -33.5 q0 -4 1 -19t1 -22q0 -14 -3 -24t-16.5 -17.5t-38 -10.5t-67.5 -3h-18.5t-16.5 2q-4 0 -14 1t-21.5 1t-20.5 1t-11 1q-4 0 -19.5 -2t-19.5 -2q-18 0 -29.5 8t-18 19.5t-8.5 23t-2 17.5t2 23.5t2 23.5zM244 899q2 14 3 20.5t1 14.5q0 4 -1 19.5t-1 19.5q0 37 5 49t21 20 q10 4 18.5 5.5t43.5 1.5q6 0 24.5 1t24.5 1q41 0 49 -8.5t12 -20.5q2 -6 7.5 -31.5t10.5 -56.5t9 -62.5t4 -50.5q0 -37 -9 -108.5t-26 -139.5q-10 -33 -17 -64.5t-7 -66.5q0 -20 4 -38.5t16 -34.5q16 -18 41 -27.5t47 -9.5q10 0 15 2q12 4 22 10t23 4q35 0 39 -39v-49v-30.5 t1 -39t2 -40t1 -29.5v-27q0 -16 -2 -25.5t-9.5 -16.5t-20.5 -13t-36 -14q-18 -8 -30.5 -13.5t-22.5 -7.5t-21.5 -3t-27.5 -1q-6 0 -26.5 1t-27.5 1q-4 0 -17 -1t-17 -1q-6 -2 -25.5 -1t-26.5 1h-22q-12 0 -38 6t-62 29q-23 14 -31 20t-23 25q-10 12 -21 31.5t-18 44.5 q-2 8 -5 25.5t-5 36t-3 35.5t-1 28q0 63 16.5 119.5t32.5 88.5q6 12 13.5 24.5t11.5 27.5q10 16 15 35.5t13 37.5q12 37 19.5 59.5t12.5 43t8 47.5t8 70q2 16 3 32.5t3 32.5z" />
<glyph unicode="&#xc0;" horiz-adv-x="1193" d="M545 233q-10 0 -22.5 -2t-41.5 -8q-35 -8 -52 -13t-32 -22q-10 -10 -27.5 -51t-21.5 -76q0 -16 -3 -21t-17 -20q-12 -12 -21.5 -15t-50.5 -3h-19.5t-28.5 1t-29.5 1h-20.5t-30 -2t-32 -2t-34.5 4t-28.5 6q-10 6 -21.5 23.5t-11.5 38.5q0 27 8 49q8 20 10 31q4 10 4.5 19 t2.5 19q2 12 3 22.5t3 20.5t9 38t9 38q4 23 5 45.5t5 44.5q2 8 5.5 25.5t8.5 37t9 38t6 26.5q4 12 7 25.5t7 26.5q4 23 7.5 45t7.5 45q0 4 5 26.5t11 48t11.5 49t9.5 29.5q4 10 8 19.5t6 19.5q2 6 2 13.5t2 13.5q0 6 5 29.5t10.5 52t10.5 54.5t7 32t3 13t3 13q4 20 8 35 q4 12 8 24.5t9 24.5q4 12 6 24.5t4 27.5q16 117 50 170t120 53h20.5t30.5 -2q41 -4 93 -2t116 6q41 6 82 -3t69 -32q27 -20 39.5 -42t22.5 -65q6 -20 11 -40.5t11 -42.5q4 -16 11.5 -34t11.5 -34l16 -78q2 -10 2 -18.5t4 -18.5q2 -10 11 -30q4 -10 13 -44t15 -67 q4 -29 6.5 -39t8.5 -33q2 -10 7 -25.5t9 -30.5t7 -28.5t3 -17.5q2 -16 2 -30.5t4 -29.5q4 -10 7.5 -18t7.5 -18q2 -10 9 -38t9 -38q4 -16 4 -31.5t4 -32.5q4 -10 7.5 -20t7.5 -21q4 -16 12 -50t10 -48q2 -16 3 -23.5t5 -17.5q8 -20 17.5 -55t13.5 -60q4 -12 5 -23t5 -22 q4 -10 8.5 -19t6.5 -20q2 -6 4 -30.5t2 -28.5q0 -29 -30 -34t-58 -5q-6 0 -21.5 -1t-34 -2t-35 -2t-22.5 -1q-47 0 -75.5 3t-45 12.5t-27 25.5t-20.5 45q-4 14 -7 27.5t-9 25.5l-12 25q-10 23 -19.5 34t-38.5 23q-8 2 -25.5 5t-37 4t-37 2t-25.5 1h-65zM487 797 q-4 -10 -5 -21.5t-3 -21.5t-4 -21.5t-6 -21.5q-4 -16 -8 -34t-4 -36q0 -53 34.5 -75.5t94.5 -22.5q16 0 43.5 3t50.5 7q16 4 29.5 12t13.5 39q0 16 -2 25q-4 45 -8 67.5t-17 61.5q-4 16 -9 31.5t-9 31.5t-6 32.5t-6 33.5q-4 10 -7.5 20.5t-7.5 20.5q-4 12 -10 36.5t-10 36.5 q-10 35 -25.5 40.5t-21.5 5.5q-20 0 -35 -23q-6 -8 -13.5 -28.5t-14.5 -43t-12 -40t-5 -19.5l-6 -49q-4 -12 -6.5 -23.5t-4.5 -23.5zM342 1794q0 10 4 22.5t14 18.5q10 8 33 8q6 0 26.5 -2t29.5 -2q6 0 22 1t34.5 2t36 2t23.5 1q29 0 48.5 -4t33.5 -20q10 -10 19.5 -39 t11.5 -41q2 -10 1 -22.5t3 -22.5q4 -8 7 -15.5t7 -15.5q0 -4 1 -22.5t1 -24.5q2 -10 5.5 -21.5t3.5 -23.5q0 -35 -22.5 -39t-51.5 -2q-6 0 -28.5 -1t-31.5 -1q-4 0 -18 1t-18 1q-6 0 -13.5 -1t-13.5 -1q-23 0 -31 11t-18 34q-4 10 -7 14t-16 21q-10 12 -17 26.5t-30 63.5 q-6 12 -11 23.5t-15 23.5q-14 23 -18.5 30t-4.5 17z" />
<glyph unicode="&#xc1;" horiz-adv-x="1193" d="M545 233q-10 0 -22.5 -2t-41.5 -8q-35 -8 -52 -13t-32 -22q-10 -10 -27.5 -51t-21.5 -76q0 -16 -3 -21t-17 -20q-12 -12 -21.5 -15t-50.5 -3h-19.5t-28.5 1t-29.5 1h-20.5t-30 -2t-32 -2t-34.5 4t-28.5 6q-10 6 -21.5 23.5t-11.5 38.5q0 27 8 49q8 20 10 31q4 10 4.5 19 t2.5 19q2 12 3 22.5t3 20.5t9 38t9 38q4 23 5 45.5t5 44.5q2 8 5.5 25.5t8.5 37t9 38t6 26.5q4 12 7 25.5t7 26.5q4 23 7.5 45t7.5 45q0 4 5 26.5t11 48t11.5 49t9.5 29.5q4 10 8 19.5t6 19.5q2 6 2 13.5t2 13.5q0 6 5 29.5t10.5 52t10.5 54.5t7 32t3 13t3 13q4 20 8 35 q4 12 8 24.5t9 24.5q4 12 6 24.5t4 27.5q16 117 50 170t120 53h20.5t30.5 -2q41 -4 93 -2t116 6q41 6 82 -3t69 -32q27 -20 39.5 -42t22.5 -65q6 -20 11 -40.5t11 -42.5q4 -16 11.5 -34t11.5 -34l16 -78q2 -10 2 -18.5t4 -18.5q2 -10 11 -30q4 -10 13 -44t15 -67 q4 -29 6.5 -39t8.5 -33q2 -10 7 -25.5t9 -30.5t7 -28.5t3 -17.5q2 -16 2 -30.5t4 -29.5q4 -10 7.5 -18t7.5 -18q2 -10 9 -38t9 -38q4 -16 4 -31.5t4 -32.5q4 -10 7.5 -20t7.5 -21q4 -16 12 -50t10 -48q2 -16 3 -23.5t5 -17.5q8 -20 17.5 -55t13.5 -60q4 -12 5 -23t5 -22 q4 -10 8.5 -19t6.5 -20q2 -6 4 -30.5t2 -28.5q0 -29 -30 -34t-58 -5q-6 0 -21.5 -1t-34 -2t-35 -2t-22.5 -1q-47 0 -75.5 3t-45 12.5t-27 25.5t-20.5 45q-4 14 -7 27.5t-9 25.5l-12 25q-10 23 -19.5 34t-38.5 23q-8 2 -25.5 5t-37 4t-37 2t-25.5 1h-65zM487 797 q-4 -10 -5 -21.5t-3 -21.5t-4 -21.5t-6 -21.5q-4 -16 -8 -34t-4 -36q0 -53 34.5 -75.5t94.5 -22.5q16 0 43.5 3t50.5 7q16 4 29.5 12t13.5 39q0 16 -2 25q-4 45 -8 67.5t-17 61.5q-4 16 -9 31.5t-9 31.5t-6 32.5t-6 33.5q-4 10 -7.5 20.5t-7.5 20.5q-4 12 -10 36.5t-10 36.5 q-10 35 -25.5 40.5t-21.5 5.5q-20 0 -35 -23q-6 -8 -13.5 -28.5t-14.5 -43t-12 -40t-5 -19.5l-6 -49q-4 -12 -6.5 -23.5t-4.5 -23.5zM727 1833q6 0 28.5 4t28.5 4q23 0 30 -11t7 -32q0 -23 -16 -53q-4 -6 -9 -12.5t-10 -14.5q-6 -10 -11 -22.5t-13 -22.5q-4 -6 -8 -11t-9 -9 l-12 -19q-4 -8 -16 -20q-12 -16 -17 -27q-10 -25 -14 -32t-14 -13t-20.5 -7t-51.5 -1q-8 0 -33.5 -1t-36.5 -1h-16t-21.5 1t-20.5 2t-11 1q-10 2 -16.5 12.5t-6.5 22.5q0 18 11 35q4 6 6 11t2 11q2 4 2 9t2 10q2 4 3 7t3 7t4 14.5t4 21.5t4 21.5t2 12.5q2 10 6.5 17t6.5 17 t1 19.5t3 19.5q4 12 14 22.5t20 10.5q8 0 15 -2h39q4 0 16 1t26.5 1t27 1t18.5 1q4 0 25.5 -3t27.5 -3z" />
<glyph unicode="&#xc2;" horiz-adv-x="1193" d="M545 233q-10 0 -22.5 -2t-41.5 -8q-35 -8 -52 -13t-32 -22q-10 -10 -27.5 -51t-21.5 -76q0 -16 -3 -21t-17 -20q-12 -12 -21.5 -15t-50.5 -3h-19.5t-28.5 1t-29.5 1h-20.5t-30 -2t-32 -2t-34.5 4t-28.5 6q-10 6 -21.5 23.5t-11.5 38.5q0 27 8 49q8 20 10 31q4 10 4.5 19 t2.5 19q2 12 3 22.5t3 20.5t9 38t9 38q4 23 5 45.5t5 44.5q2 8 5.5 25.5t8.5 37t9 38t6 26.5q4 12 7 25.5t7 26.5q4 23 7.5 45t7.5 45q0 4 5 26.5t11 48t11.5 49t9.5 29.5q4 10 8 19.5t6 19.5q2 6 2 13.5t2 13.5q0 6 5 29.5t10.5 52t10.5 54.5t7 32t3 13t3 13q4 20 8 35 q4 12 8 24.5t9 24.5q4 12 6 24.5t4 27.5q16 117 50 170t120 53h20.5t30.5 -2q41 -4 93 -2t116 6q41 6 82 -3t69 -32q27 -20 39.5 -42t22.5 -65q6 -20 11 -40.5t11 -42.5q4 -16 11.5 -34t11.5 -34l16 -78q2 -10 2 -18.5t4 -18.5q2 -10 11 -30q4 -10 13 -44t15 -67 q4 -29 6.5 -39t8.5 -33q2 -10 7 -25.5t9 -30.5t7 -28.5t3 -17.5q2 -16 2 -30.5t4 -29.5q4 -10 7.5 -18t7.5 -18q2 -10 9 -38t9 -38q4 -16 4 -31.5t4 -32.5q4 -10 7.5 -20t7.5 -21q4 -16 12 -50t10 -48q2 -16 3 -23.5t5 -17.5q8 -20 17.5 -55t13.5 -60q4 -12 5 -23t5 -22 q4 -10 8.5 -19t6.5 -20q2 -6 4 -30.5t2 -28.5q0 -29 -30 -34t-58 -5q-6 0 -21.5 -1t-34 -2t-35 -2t-22.5 -1q-47 0 -75.5 3t-45 12.5t-27 25.5t-20.5 45q-4 14 -7 27.5t-9 25.5l-12 25q-10 23 -19.5 34t-38.5 23q-8 2 -25.5 5t-37 4t-37 2t-25.5 1h-65zM487 797 q-4 -10 -5 -21.5t-3 -21.5t-4 -21.5t-6 -21.5q-4 -16 -8 -34t-4 -36q0 -53 34.5 -75.5t94.5 -22.5q16 0 43.5 3t50.5 7q16 4 29.5 12t13.5 39q0 16 -2 25q-4 45 -8 67.5t-17 61.5q-4 16 -9 31.5t-9 31.5t-6 32.5t-6 33.5q-4 10 -7.5 20.5t-7.5 20.5q-4 12 -10 36.5t-10 36.5 q-10 35 -25.5 40.5t-21.5 5.5q-20 0 -35 -23q-6 -8 -13.5 -28.5t-14.5 -43t-12 -40t-5 -19.5l-6 -49q-4 -12 -6.5 -23.5t-4.5 -23.5zM274 1563q0 4 7.5 16t16.5 24.5t18.5 24.5t13.5 17q6 6 12 13t12 13q10 14 18.5 29.5t18.5 30.5q4 6 21.5 25.5t21.5 27.5q8 10 13.5 19 t15.5 18q2 2 15.5 12t33.5 10q6 0 26.5 -1t26.5 -1t27.5 1t28.5 1q29 0 46 -10t27 -23l19 -24q8 -8 15 -15.5t15 -17.5q4 -6 9.5 -13t9.5 -14q4 -6 23.5 -27.5t23.5 -29.5q6 -10 13 -21.5t16 -21.5q23 -25 27.5 -32t4.5 -19q0 -27 -19.5 -33t-25.5 -6q-4 -2 -20.5 -1 t-20.5 1q-6 0 -26.5 -1t-26.5 -1t-23.5 1t-23.5 1q-4 0 -15.5 -1t-15.5 -1q-6 0 -14 3t-23 19q-8 10 -13 20.5t-15 16.5q-14 10 -33 11q-16 0 -23.5 -7.5t-15.5 -19.5q-4 -4 -6 -8t-6 -8q-8 -12 -15.5 -18.5t-23.5 -6.5q-8 0 -14.5 1t-14.5 1q-4 0 -16 -1t-17 -1h-51 q-4 0 -20.5 -1t-20.5 -1q-16 0 -26.5 11.5t-10.5 17.5z" />
<glyph unicode="&#xc3;" horiz-adv-x="1193" d="M545 233q-10 0 -22.5 -2t-41.5 -8q-35 -8 -52 -13t-32 -22q-10 -10 -27.5 -51t-21.5 -76q0 -16 -3 -21t-17 -20q-12 -12 -21.5 -15t-50.5 -3h-19.5t-28.5 1t-29.5 1h-20.5t-30 -2t-32 -2t-34.5 4t-28.5 6q-10 6 -21.5 23.5t-11.5 38.5q0 27 8 49q8 20 10 31q4 10 4.5 19 t2.5 19q2 12 3 22.5t3 20.5t9 38t9 38q4 23 5 45.5t5 44.5q2 8 5.5 25.5t8.5 37t9 38t6 26.5q4 12 7 25.5t7 26.5q4 23 7.5 45t7.5 45q0 4 5 26.5t11 48t11.5 49t9.5 29.5q4 10 8 19.5t6 19.5q2 6 2 13.5t2 13.5q0 6 5 29.5t10.5 52t10.5 54.5t7 32t3 13t3 13q4 20 8 35 q4 12 8 24.5t9 24.5q4 12 6 24.5t4 27.5q16 117 50 170t120 53h20.5t30.5 -2q41 -4 93 -2t116 6q41 6 82 -3t69 -32q27 -20 39.5 -42t22.5 -65q6 -20 11 -40.5t11 -42.5q4 -16 11.5 -34t11.5 -34l16 -78q2 -10 2 -18.5t4 -18.5q2 -10 11 -30q4 -10 13 -44t15 -67 q4 -29 6.5 -39t8.5 -33q2 -10 7 -25.5t9 -30.5t7 -28.5t3 -17.5q2 -16 2 -30.5t4 -29.5q4 -10 7.5 -18t7.5 -18q2 -10 9 -38t9 -38q4 -16 4 -31.5t4 -32.5q4 -10 7.5 -20t7.5 -21q4 -16 12 -50t10 -48q2 -16 3 -23.5t5 -17.5q8 -20 17.5 -55t13.5 -60q4 -12 5 -23t5 -22 q4 -10 8.5 -19t6.5 -20q2 -6 4 -30.5t2 -28.5q0 -29 -30 -34t-58 -5q-6 0 -21.5 -1t-34 -2t-35 -2t-22.5 -1q-47 0 -75.5 3t-45 12.5t-27 25.5t-20.5 45q-4 14 -7 27.5t-9 25.5l-12 25q-10 23 -19.5 34t-38.5 23q-8 2 -25.5 5t-37 4t-37 2t-25.5 1h-65zM487 797 q-4 -10 -5 -21.5t-3 -21.5t-4 -21.5t-6 -21.5q-4 -16 -8 -34t-4 -36q0 -53 34.5 -75.5t94.5 -22.5q16 0 43.5 3t50.5 7q16 4 29.5 12t13.5 39q0 16 -2 25q-4 45 -8 67.5t-17 61.5q-4 16 -9 31.5t-9 31.5t-6 32.5t-6 33.5q-4 10 -7.5 20.5t-7.5 20.5q-4 12 -10 36.5t-10 36.5 q-10 35 -25.5 40.5t-21.5 5.5q-20 0 -35 -23q-6 -8 -13.5 -28.5t-14.5 -43t-12 -40t-5 -19.5l-6 -49q-4 -12 -6.5 -23.5t-4.5 -23.5zM418 1821q4 0 15 2t16 2q2 0 21 -2t24 -4l9 -4.5t11 -4.5q12 -4 21 -6q16 -8 24 -10q8 -4 25 -8q2 0 28.5 -8.5t38.5 -12.5q16 -6 23.5 -8 t17.5 -2q35 0 47 29q0 4 4 16q6 12 15.5 14.5t46.5 2.5q35 0 56.5 -7.5t21.5 -40.5q0 -4 -3 -27.5t-8 -37.5q-2 -10 -1 -19.5t-1 -19.5q-4 -37 -35.5 -76t-97.5 -39q-14 0 -41.5 4.5t-42.5 8.5q-29 6 -54.5 17t-53.5 17q-10 4 -18.5 4.5t-18.5 4.5q-31 10 -37 10 q-29 0 -43 -25q-8 -16 -11 -21t-14 -9q-6 -4 -17 -4.5t-58 -0.5q-35 0 -44.5 20.5t-9.5 31.5q0 4 2.5 24.5t4.5 34.5q8 70 29.5 97.5t51.5 43.5q18 10 28 11.5t28 1.5z" />
<glyph unicode="&#xc4;" horiz-adv-x="1193" d="M545 233q-10 0 -22.5 -2t-41.5 -8q-35 -8 -52 -13t-32 -22q-10 -10 -27.5 -51t-21.5 -76q0 -16 -3 -21t-17 -20q-12 -12 -21.5 -15t-50.5 -3h-19.5t-28.5 1t-29.5 1h-20.5t-30 -2t-32 -2t-34.5 4t-28.5 6q-10 6 -21.5 23.5t-11.5 38.5q0 27 8 49q8 20 10 31q4 10 4.5 19 t2.5 19q2 12 3 22.5t3 20.5t9 38t9 38q4 23 5 45.5t5 44.5q2 8 5.5 25.5t8.5 37t9 38t6 26.5q4 12 7 25.5t7 26.5q4 23 7.5 45t7.5 45q0 4 5 26.5t11 48t11.5 49t9.5 29.5q4 10 8 19.5t6 19.5q2 6 2 13.5t2 13.5q0 6 5 29.5t10.5 52t10.5 54.5t7 32t3 13t3 13q4 20 8 35 q4 12 8 24.5t9 24.5q4 12 6 24.5t4 27.5q16 117 50 170t120 53h20.5t30.5 -2q41 -4 93 -2t116 6q41 6 82 -3t69 -32q27 -20 39.5 -42t22.5 -65q6 -20 11 -40.5t11 -42.5q4 -16 11.5 -34t11.5 -34l16 -78q2 -10 2 -18.5t4 -18.5q2 -10 11 -30q4 -10 13 -44t15 -67 q4 -29 6.5 -39t8.5 -33q2 -10 7 -25.5t9 -30.5t7 -28.5t3 -17.5q2 -16 2 -30.5t4 -29.5q4 -10 7.5 -18t7.5 -18q2 -10 9 -38t9 -38q4 -16 4 -31.5t4 -32.5q4 -10 7.5 -20t7.5 -21q4 -16 12 -50t10 -48q2 -16 3 -23.5t5 -17.5q8 -20 17.5 -55t13.5 -60q4 -12 5 -23t5 -22 q4 -10 8.5 -19t6.5 -20q2 -6 4 -30.5t2 -28.5q0 -29 -30 -34t-58 -5q-6 0 -21.5 -1t-34 -2t-35 -2t-22.5 -1q-47 0 -75.5 3t-45 12.5t-27 25.5t-20.5 45q-4 14 -7 27.5t-9 25.5l-12 25q-10 23 -19.5 34t-38.5 23q-8 2 -25.5 5t-37 4t-37 2t-25.5 1h-65zM487 797 q-4 -10 -5 -21.5t-3 -21.5t-4 -21.5t-6 -21.5q-4 -16 -8 -34t-4 -36q0 -53 34.5 -75.5t94.5 -22.5q16 0 43.5 3t50.5 7q16 4 29.5 12t13.5 39q0 16 -2 25q-4 45 -8 67.5t-17 61.5q-4 16 -9 31.5t-9 31.5t-6 32.5t-6 33.5q-4 10 -7.5 20.5t-7.5 20.5q-4 12 -10 36.5t-10 36.5 q-10 35 -25.5 40.5t-21.5 5.5q-20 0 -35 -23q-6 -8 -13.5 -28.5t-14.5 -43t-12 -40t-5 -19.5l-6 -49q-4 -12 -6.5 -23.5t-4.5 -23.5zM612 1780q0 20 13.5 30.5t27.5 12.5q6 0 26.5 -2t27.5 -2h92q8 0 33.5 -1t33.5 -1q4 0 20.5 1t22.5 1q14 0 20.5 -3.5t10.5 -5.5 q4 -6 10 -10q4 -4 7.5 -7t5.5 -7v-109q0 -8 -2.5 -33.5t-2.5 -35.5q0 -4 1.5 -14.5t1.5 -14.5q0 -33 -12.5 -43t-28.5 -10q-10 0 -18.5 2t-16.5 2q-4 0 -15.5 -2t-15.5 -2t-6 1t-6 1h-36t-51.5 1t-52 1h-38.5q-29 0 -37.5 8t-10.5 25v57q0 8 -2 37t-2 39q0 4 2 23.5t2 25.5 q0 4 -2 17.5t-2 17.5zM508 1624q0 -10 -1 -26.5t-1 -26.5q0 -8 -3 -18.5t-16 -18.5q-8 -4 -19 -5t-52 1h-14q-13 0 -28.5 -1t-28.5 -1h-15q-8 0 -37 1t-39 1q-6 0 -28.5 -3t-28.5 -3q-8 0 -23.5 8t-15.5 35v137q0 4 -1 25.5t-1 27.5q0 20 8 32.5t19.5 20t20.5 9.5t11 2 q4 0 20.5 -2t20.5 -2q6 0 30.5 2t30.5 2h35q4 0 19.5 -2t19.5 -2q6 0 13.5 1t13.5 1q10 2 53 2q27 0 31 -16.5t4 -53.5q0 -4 1 -21.5t1 -21.5t-1 -19.5t-1 -19.5q0 -10 1 -21.5t1 -21.5v-2z" />
<glyph unicode="&#xc5;" horiz-adv-x="1193" d="M545 233q-10 0 -22.5 -2t-41.5 -8q-35 -8 -52 -13t-32 -22q-10 -10 -27.5 -51t-21.5 -76q0 -16 -3 -21t-17 -20q-12 -12 -21.5 -15t-50.5 -3h-19.5t-28.5 1t-29.5 1h-20.5t-30 -2t-32 -2t-34.5 4t-28.5 6q-10 6 -21.5 23.5t-11.5 38.5q0 27 8 49q8 20 10 31q4 10 4.5 19 t2.5 19q2 12 3 22.5t3 20.5t9 38t9 38q4 23 5 45.5t5 44.5q2 8 5.5 25.5t8.5 37t9 38t6 26.5q4 12 7 25.5t7 26.5q4 23 7.5 45t7.5 45q0 4 5 26.5t11 48t11.5 49t9.5 29.5q4 10 8 19.5t6 19.5q2 6 2 13.5t2 13.5q0 6 5 29.5t10.5 52t10.5 54.5t7 32t3 13t3 13q4 20 8 35 q4 12 8 24.5t9 24.5q4 12 6 24.5t4 27.5q16 117 50 170t120 53h20.5t30.5 -2q41 -4 93 -2t116 6q41 6 82 -3t69 -32q27 -20 39.5 -42t22.5 -65q6 -20 11 -40.5t11 -42.5q4 -16 11.5 -34t11.5 -34l16 -78q2 -10 2 -18.5t4 -18.5q2 -10 11 -30q4 -10 13 -44t15 -67 q4 -29 6.5 -39t8.5 -33q2 -10 7 -25.5t9 -30.5t7 -28.5t3 -17.5q2 -16 2 -30.5t4 -29.5q4 -10 7.5 -18t7.5 -18q2 -10 9 -38t9 -38q4 -16 4 -31.5t4 -32.5q4 -10 7.5 -20t7.5 -21q4 -16 12 -50t10 -48q2 -16 3 -23.5t5 -17.5q8 -20 17.5 -55t13.5 -60q4 -12 5 -23t5 -22 q4 -10 8.5 -19t6.5 -20q2 -6 4 -30.5t2 -28.5q0 -29 -30 -34t-58 -5q-6 0 -21.5 -1t-34 -2t-35 -2t-22.5 -1q-47 0 -75.5 3t-45 12.5t-27 25.5t-20.5 45q-4 14 -7 27.5t-9 25.5l-12 25q-10 23 -19.5 34t-38.5 23q-8 2 -25.5 5t-37 4t-37 2t-25.5 1h-65zM487 797 q-4 -10 -5 -21.5t-3 -21.5t-4 -21.5t-6 -21.5q-4 -16 -8 -34t-4 -36q0 -53 34.5 -75.5t94.5 -22.5q16 0 43.5 3t50.5 7q16 4 29.5 12t13.5 39q0 16 -2 25q-4 45 -8 67.5t-17 61.5q-4 16 -9 31.5t-9 31.5t-6 32.5t-6 33.5q-4 10 -7.5 20.5t-7.5 20.5q-4 12 -10 36.5t-10 36.5 q-10 35 -25.5 40.5t-21.5 5.5q-20 0 -35 -23q-6 -8 -13.5 -28.5t-14.5 -43t-12 -40t-5 -19.5l-6 -49q-4 -12 -6.5 -23.5t-4.5 -23.5zM383 1665q0 57 20.5 95t50 60.5t59.5 33t48 10.5q10 0 42 -4.5t52 -14.5q12 -6 35 -23.5t33 -31.5q12 -16 25.5 -48t13.5 -67 q0 -68 -26.5 -107.5t-60.5 -60t-63.5 -25.5t-36.5 -5q-16 0 -39.5 4t-27.5 4q-10 2 -30.5 13t-41 32.5t-37 54.5t-16.5 80zM573 1755q-18 0 -48.5 -22.5t-30.5 -63.5q0 -8 4 -22.5t13 -27.5t24.5 -22.5t37.5 -9.5q31 0 55.5 20.5t24.5 61.5q0 29 -18.5 57.5t-61.5 28.5z" />
<glyph unicode="&#xc6;" horiz-adv-x="1748" d="M109 461q2 8 9 30.5t16 48t16.5 48t11.5 33.5q4 20 8 39.5t8 37.5q2 12 15.5 50t28 80t26.5 75t12 35q4 16 7 29.5t7 27.5q6 20 13.5 39t13.5 39q4 14 9 28.5t12 28.5q8 25 17 58t17 57q4 16 10.5 31.5t12.5 32.5q14 45 22.5 64.5t28.5 37.5q16 14 28.5 16.5t51.5 2.5 q49 0 110.5 2t125 4t125 4t110.5 2q8 0 32.5 1t51.5 1t51.5 1t34.5 1t43 -2t43 -2t21.5 1t23.5 1h9t12 -2q8 0 13 -1t9 -1h9t14 2h20q4 2 23.5 1t25.5 -1t26.5 2t26.5 2q8 0 33 -1t33 -1q4 0 18.5 1t18.5 1t18.5 -2t18.5 -2q6 -2 12 -1t12 -3q4 0 16.5 -8.5t12.5 -32.5 q0 -4 -1 -15.5t-1 -15.5t3 -22.5t3 -24.5q0 -4 -2 -21.5t-2 -23.5t2 -28.5t2 -28.5v-14.5t-2 -16.5q-4 -12 -22.5 -26.5t-45.5 -14.5h-79q-8 0 -32 -2t-32 -2h-16.5t-26.5 1t-26.5 1h-18.5t-22.5 1t-35 2t-36 2t-23.5 1q-16 0 -27.5 -2t-39.5 -8q-10 -2 -21.5 -8.5 t-19.5 -34.5q-6 -16 -8.5 -40t-2.5 -40q0 -33 5.5 -56.5t9.5 -27.5q6 -12 19.5 -19.5t28.5 -10.5t29.5 -4t22.5 -1h55q4 0 17.5 -1t29 -1t29 -1t19.5 -1h88q6 0 21.5 1t32.5 1t33.5 1t22.5 1q14 0 29.5 -4t28.5 -21q10 -16 12 -29.5t2 -56.5q0 -4 2 -21t2 -24q0 -4 -1 -17 t-1 -17q0 -14 1 -26.5t1 -29.5q0 -23 -3 -32t-5 -13q-2 -2 -20.5 -15t-51.5 -13q-8 0 -37.5 1t-40.5 1q-8 0 -34.5 -1t-36.5 -1h-6h-32t-28 2q-4 0 -15 1t-16 1q-8 0 -32.5 -1t-32.5 -1q-8 -2 -36 -1t-38 1q-8 0 -21.5 -2.5t-25.5 -12.5t-20.5 -31.5t-8.5 -62.5 q0 -14 2.5 -46t4.5 -48q6 -37 26.5 -46t24.5 -12h74q6 0 27.5 -2t29.5 -2q4 0 24.5 2t26.5 2t20.5 -1t31 -2t30.5 -2t20 -1q8 0 35 1t37 1q4 0 24.5 -1t26.5 -1q10 0 20.5 1t20.5 1q2 0 14.5 -2t27 -6t28.5 -10t18 -16q4 -4 4 -12.5v-39.5q0 -4 1.5 -21.5t1.5 -21.5 q2 -12 2 -22v-47q0 -6 2 -31t2 -31q0 -29 -24.5 -43t-41.5 -14q-8 0 -15 1t-16 1q-12 4 -23 4h-24q-4 0 -17 -1t-27.5 -2t-28 -2t-19.5 -1q-8 0 -36.5 1t-39.5 1q-8 0 -39.5 -2t-42.5 -2q-6 0 -22 1t-33 3q-18 2 -34.5 3t-22.5 1h-21.5t-33 -1t-33 -1h-21.5q-12 0 -40.5 -1 t-62.5 -3t-64.5 -3t-43.5 -1q-37 0 -55 7t-25 13q-6 6 -20 26.5t-16 37.5q-2 2 -2 19.5v19.5q0 31 -3.5 48t-9.5 28.5t-17 16.5t-28 9q-27 8 -37 9t-34 1q-16 0 -33 1t-33 1q-4 0 -22.5 -1t-22.5 -1t-20.5 1t-20.5 1t-18.5 -1t-31 -6t-34.5 -16t-31 -32q-8 -14 -17 -44 t-13 -46q-8 -33 -23.5 -57.5t-67.5 -22.5q-4 0 -23.5 1t-23.5 1q-8 0 -34.5 -2t-36.5 -2q-6 0 -26.5 2t-29.5 2q-4 0 -15 -1t-15 -1q-16 0 -29.5 7t-20.5 12q-16 10 -19 20t-3 31v2q0 6 4 24.5t21 71.5q2 10 15 51t27.5 89t27 91.5t16.5 55.5zM729 1135q-18 0 -31.5 -12.5 t-23.5 -29t-17.5 -33t-9.5 -26.5q-2 -6 -7 -19.5t-11 -29.5t-11.5 -30.5t-7.5 -20.5q-12 -37 -22 -76t-27 -76q-12 -27 -18 -45l-3 -11t-6.5 -25.5t-6.5 -28t-3 -19.5q0 -16 9.5 -34.5t19.5 -26.5q14 -12 30.5 -14.5t51.5 -2.5q4 0 18.5 -1t18.5 -1q2 0 23.5 1t25.5 4 q10 4 18.5 11t18.5 15q12 12 17 18.5t9 22.5q2 6 4.5 24.5t4.5 38t3 34.5l1 16q0 6 -1 25.5t-1 25.5t1 30.5t1 32.5q0 14 -1 44t-3 63t-4.5 60.5t-4.5 35.5q-4 27 -17 43.5t-38 16.5z" />
<glyph unicode="&#xc7;" horiz-adv-x="894" d="M41 795q0 10 3 31.5t7 50.5q4 16 4 32.5t4 32.5q4 41 17.5 80t32.5 76q12 27 23 46t23.5 36.5t29 36t40.5 43.5q23 25 38.5 41t29.5 27t28.5 20.5t36.5 19.5q59 29 108.5 45.5t93.5 24.5t84 10t83 2t70.5 -2t43 -11.5t20.5 -25.5t5 -45q0 -8 -1 -33.5t-1 -34.5v-59 q2 -4 3 -20.5t1 -22.5q0 -35 -10 -56.5t-51 -21.5q-10 0 -44 5t-44 5q-20 0 -65.5 -8t-80.5 -24q-25 -12 -55.5 -36t-46.5 -40q-4 -4 -14.5 -22.5t-21.5 -38t-20 -37t-12 -21.5q-4 -6 -7 -15t-5 -27.5t-4 -48.5t-2 -77v-27.5t4 -27.5q2 -18 9.5 -42t14.5 -46.5t14 -41 t11 -24.5q6 -12 18.5 -34.5t29 -46t38 -46t43.5 -37.5q12 -8 30.5 -16t39 -14t41 -10.5t35.5 -4.5q16 0 37.5 1t35.5 6q10 2 18.5 4t16.5 2q18 0 32.5 -12.5t14.5 -47.5q0 -4 -1 -21.5t-1 -23.5q0 -16 1 -29.5t1 -29.5q0 -8 -3 -37t-3 -39v-25q0 -55 -45 -64t-121 -9 q-6 0 -26.5 1t-26.5 1q-12 0 -20 -12q-4 -4 -3 -10.5t-2 -12.5q0 -2 -2 -8t-2 -8q0 -14 21 -21q12 -6 33.5 -22.5t25.5 -24.5q2 -4 6 -16l7 -13q2 -4 3 -9t1 -21q0 -4 -7.5 -32t-31.5 -44q-35 -23 -47.5 -27t-36.5 -6q-4 -2 -24.5 -4t-28.5 -2q-4 0 -18.5 2t-18.5 2 q-29 2 -37 4t-17 6q-16 10 -18 22.5t-2 45.5q0 4 -1 20.5t-1 20.5q0 29 14.5 39t26.5 10q6 0 12 -1t12 -1q25 0 33 16.5t8 48.5q0 47 -20 68q-10 12 -25.5 18.5t-31.5 14.5q-23 14 -52.5 32.5t-50.5 34.5q-12 10 -23.5 21.5t-25.5 21.5q-10 10 -22.5 18.5t-22.5 18.5 q-37 29 -70.5 71t-72.5 126q-23 47 -34 76.5t-18.5 54.5t-10.5 51.5t-5 69.5q-2 16 -3 29.5t-1 29.5q0 4 1 25.5t3 27.5q0 4 -1 25t-1 27z" />
<glyph unicode="&#xc8;" horiz-adv-x="1024" d="M539 1444q6 0 32.5 2t34.5 2t36 1t38 1q6 0 24.5 -1t39 -2t39 -2t26.5 -1q10 0 41 2t41 2q37 0 53.5 -18.5t16.5 -49.5q0 -6 -1.5 -30.5t-1.5 -32.5q0 -6 1.5 -19.5t2.5 -29t2 -28.5t1 -19q0 -18 -3.5 -25.5t-19.5 -28.5q-8 -10 -11 -13t-16 -7q-12 -4 -22 -7t-27 -3 q-8 0 -30.5 1t-30.5 1q-4 0 -17.5 -1t-28 -1t-27.5 -1t-19 -1q-14 0 -23 2q-14 0 -26.5 2t-26.5 4t-26.5 2h-26.5q-86 0 -117 -18.5t-31 -82.5q0 -37 1 -61.5t7.5 -40.5t20.5 -25.5t39 -13.5q35 -4 45 -5t31 -1q6 0 21 1t32.5 2t34 2t22.5 1q4 0 17.5 -1t29 -3t28.5 -3 t19 -1q20 0 41 2t41 2h30.5t27.5 -4q4 -4 20.5 -18.5t16.5 -42.5q-2 -14 -3 -25q0 -10 -1 -19.5t-1 -13.5q-2 -25 -2 -37v-45q0 -12 -1 -18t-3 -23q-2 -10 -5 -22.5t-12 -23.5t-25.5 -19t-47.5 -8h-104q-6 0 -26.5 1t-27.5 1q-4 0 -21 -1t-22 -1q-6 0 -31.5 3t-33.5 3 q-16 0 -30.5 -2t-31.5 -2h-16q-10 0 -23.5 -3.5t-19.5 -7.5q-14 -6 -21.5 -17t-10.5 -24.5t-4 -25.5t-1 -19q0 -49 2 -82.5t17.5 -54t49.5 -30t95 -9.5q10 0 42 1t42 1q8 0 33.5 -1t36.5 -1h21.5t32.5 1t32.5 2t21.5 1q10 2 21.5 2h21.5q8 0 39 -6t45 -33q10 -23 12.5 -47 t2.5 -39v-14q2 -14 5 -28.5t5 -28.5v-53q0 -10 -1 -21.5t-8.5 -22t-21.5 -17.5t-39 -7q-4 0 -13 1t-20 1q-10 2 -21 2h-16q-4 0 -17 -1t-30 -1q-16 -2 -29.5 -3t-19.5 -1q-4 0 -17 1t-30 1q-16 2 -29.5 2h-19.5q-2 0 -28.5 -1t-59.5 -1q-35 -2 -64.5 -3t-37.5 -1 q-10 0 -35 1t-54 3q-29 0 -54 1t-36 1h-65q-20 -2 -39 -2h-27t-25.5 2t-33.5 16q-12 10 -22.5 33t-10.5 45q0 6 1 27.5t1 28.5q0 18 -2 35.5t-2 35.5v37q0 6 -1 18.5t-1 27.5t-1 27.5t-1 18.5q0 27 1 61.5t1 61.5q0 6 1 26.5t1 26.5v16.5t-1 26t-1 25.5v18q0 8 -1 37t-1 39 v141v17.5t2 17.5q0 6 2 27.5t2 28.5q0 10 -3 42.5t-3 43.5q0 25 2 48t2 46q0 4 1 19.5t1 32.5t1 32.5t1 19.5q0 6 -1 20.5t-2 32t-2 32t-1 20.5q0 47 3 63.5t7 22.5q4 10 20.5 30.5t51.5 20.5q10 0 39 -1t39 -1q6 0 22.5 1t35 1t35.5 1t23 1t20.5 -1t30 -1t30 -1t20.5 -1h76 zM279 1794q0 10 4 22.5t14 18.5q10 8 33 8q6 0 26.5 -2t28.5 -2q6 0 22.5 1t35 2t36 2t23.5 1q29 0 48 -4t34 -20q10 -10 19 -39t11 -41q2 -10 1 -22.5t3 -22.5q4 -8 7.5 -15.5t7.5 -15.5q0 -4 1 -22.5t1 -24.5q2 -10 5 -21.5t3 -23.5q0 -35 -22.5 -39t-51.5 -2 q-6 0 -28.5 -1t-30.5 -1q-4 0 -18.5 1t-18.5 1q-6 0 -13 -1t-14 -1q-23 0 -30.5 11t-18.5 34q-4 10 -7 14t-15 21q-10 12 -17.5 26.5t-29.5 63.5q-6 12 -11.5 23.5t-15.5 23.5q-14 23 -18 30t-4 17z" />
<glyph unicode="&#xc9;" horiz-adv-x="1024" d="M539 1444q6 0 32.5 2t34.5 2t36 1t38 1q6 0 24.5 -1t39 -2t39 -2t26.5 -1q10 0 41 2t41 2q37 0 53.5 -18.5t16.5 -49.5q0 -6 -1.5 -30.5t-1.5 -32.5q0 -6 1.5 -19.5t2.5 -29t2 -28.5t1 -19q0 -18 -3.5 -25.5t-19.5 -28.5q-8 -10 -11 -13t-16 -7q-12 -4 -22 -7t-27 -3 q-8 0 -30.5 1t-30.5 1q-4 0 -17.5 -1t-28 -1t-27.5 -1t-19 -1q-14 0 -23 2q-14 0 -26.5 2t-26.5 4t-26.5 2h-26.5q-86 0 -117 -18.5t-31 -82.5q0 -37 1 -61.5t7.5 -40.5t20.5 -25.5t39 -13.5q35 -4 45 -5t31 -1q6 0 21 1t32.5 2t34 2t22.5 1q4 0 17.5 -1t29 -3t28.5 -3 t19 -1q20 0 41 2t41 2h30.5t27.5 -4q4 -4 20.5 -18.5t16.5 -42.5q-2 -14 -3 -25q0 -10 -1 -19.5t-1 -13.5q-2 -25 -2 -37v-45q0 -12 -1 -18t-3 -23q-2 -10 -5 -22.5t-12 -23.5t-25.5 -19t-47.5 -8h-104q-6 0 -26.5 1t-27.5 1q-4 0 -21 -1t-22 -1q-6 0 -31.5 3t-33.5 3 q-16 0 -30.5 -2t-31.5 -2h-16q-10 0 -23.5 -3.5t-19.5 -7.5q-14 -6 -21.5 -17t-10.5 -24.5t-4 -25.5t-1 -19q0 -49 2 -82.5t17.5 -54t49.5 -30t95 -9.5q10 0 42 1t42 1q8 0 33.5 -1t36.5 -1h21.5t32.5 1t32.5 2t21.5 1q10 2 21.5 2h21.5q8 0 39 -6t45 -33q10 -23 12.5 -47 t2.5 -39v-14q2 -14 5 -28.5t5 -28.5v-53q0 -10 -1 -21.5t-8.5 -22t-21.5 -17.5t-39 -7q-4 0 -13 1t-20 1q-10 2 -21 2h-16q-4 0 -17 -1t-30 -1q-16 -2 -29.5 -3t-19.5 -1q-4 0 -17 1t-30 1q-16 2 -29.5 2h-19.5q-2 0 -28.5 -1t-59.5 -1q-35 -2 -64.5 -3t-37.5 -1 q-10 0 -35 1t-54 3q-29 0 -54 1t-36 1h-65q-20 -2 -39 -2h-27t-25.5 2t-33.5 16q-12 10 -22.5 33t-10.5 45q0 6 1 27.5t1 28.5q0 18 -2 35.5t-2 35.5v37q0 6 -1 18.5t-1 27.5t-1 27.5t-1 18.5q0 27 1 61.5t1 61.5q0 6 1 26.5t1 26.5v16.5t-1 26t-1 25.5v18q0 8 -1 37t-1 39 v141v17.5t2 17.5q0 6 2 27.5t2 28.5q0 10 -3 42.5t-3 43.5q0 25 2 48t2 46q0 4 1 19.5t1 32.5t1 32.5t1 19.5q0 6 -1 20.5t-2 32t-2 32t-1 20.5q0 47 3 63.5t7 22.5q4 10 20.5 30.5t51.5 20.5q10 0 39 -1t39 -1q6 0 22.5 1t35 1t35.5 1t23 1t20.5 -1t30 -1t30 -1t20.5 -1h76 zM664 1833q6 0 28.5 4t28.5 4q23 0 30 -11t7 -32q0 -23 -17 -53q-4 -6 -9 -12.5t-9 -14.5q-6 -10 -11 -22.5t-14 -22.5q-4 -6 -8 -11t-8 -9l-12 -19q-4 -8 -17 -20q-12 -16 -16 -27q-10 -25 -14.5 -32t-14.5 -13t-20 -7t-51 -1q-8 0 -34 -1t-36 -1h-16.5t-21.5 1t-20.5 2 t-11.5 1q-10 2 -16 12.5t-6 22.5q0 18 10 35q4 6 6 11t2 11q2 4 2 9t2 10q2 4 3 7t3 7t4.5 14.5t4.5 21.5t4 21.5t2 12.5q2 10 6 17t6 17t1 19.5t3 19.5q4 12 14.5 22.5t20.5 10.5q8 0 14 -2h39q4 0 16.5 1t27 1t26.5 1t18 1q4 0 26 -3t28 -3z" />
<glyph unicode="&#xca;" horiz-adv-x="1024" d="M539 1444q6 0 32.5 2t34.5 2t36 1t38 1q6 0 24.5 -1t39 -2t39 -2t26.5 -1q10 0 41 2t41 2q37 0 53.5 -18.5t16.5 -49.5q0 -6 -1.5 -30.5t-1.5 -32.5q0 -6 1.5 -19.5t2.5 -29t2 -28.5t1 -19q0 -18 -3.5 -25.5t-19.5 -28.5q-8 -10 -11 -13t-16 -7q-12 -4 -22 -7t-27 -3 q-8 0 -30.5 1t-30.5 1q-4 0 -17.5 -1t-28 -1t-27.5 -1t-19 -1q-14 0 -23 2q-14 0 -26.5 2t-26.5 4t-26.5 2h-26.5q-86 0 -117 -18.5t-31 -82.5q0 -37 1 -61.5t7.5 -40.5t20.5 -25.5t39 -13.5q35 -4 45 -5t31 -1q6 0 21 1t32.5 2t34 2t22.5 1q4 0 17.5 -1t29 -3t28.5 -3 t19 -1q20 0 41 2t41 2h30.5t27.5 -4q4 -4 20.5 -18.5t16.5 -42.5q-2 -14 -3 -25q0 -10 -1 -19.5t-1 -13.5q-2 -25 -2 -37v-45q0 -12 -1 -18t-3 -23q-2 -10 -5 -22.5t-12 -23.5t-25.5 -19t-47.5 -8h-104q-6 0 -26.5 1t-27.5 1q-4 0 -21 -1t-22 -1q-6 0 -31.5 3t-33.5 3 q-16 0 -30.5 -2t-31.5 -2h-16q-10 0 -23.5 -3.5t-19.5 -7.5q-14 -6 -21.5 -17t-10.5 -24.5t-4 -25.5t-1 -19q0 -49 2 -82.5t17.5 -54t49.5 -30t95 -9.5q10 0 42 1t42 1q8 0 33.5 -1t36.5 -1h21.5t32.5 1t32.5 2t21.5 1q10 2 21.5 2h21.5q8 0 39 -6t45 -33q10 -23 12.5 -47 t2.5 -39v-14q2 -14 5 -28.5t5 -28.5v-53q0 -10 -1 -21.5t-8.5 -22t-21.5 -17.5t-39 -7q-4 0 -13 1t-20 1q-10 2 -21 2h-16q-4 0 -17 -1t-30 -1q-16 -2 -29.5 -3t-19.5 -1q-4 0 -17 1t-30 1q-16 2 -29.5 2h-19.5q-2 0 -28.5 -1t-59.5 -1q-35 -2 -64.5 -3t-37.5 -1 q-10 0 -35 1t-54 3q-29 0 -54 1t-36 1h-65q-20 -2 -39 -2h-27t-25.5 2t-33.5 16q-12 10 -22.5 33t-10.5 45q0 6 1 27.5t1 28.5q0 18 -2 35.5t-2 35.5v37q0 6 -1 18.5t-1 27.5t-1 27.5t-1 18.5q0 27 1 61.5t1 61.5q0 6 1 26.5t1 26.5v16.5t-1 26t-1 25.5v18q0 8 -1 37t-1 39 v141v17.5t2 17.5q0 6 2 27.5t2 28.5q0 10 -3 42.5t-3 43.5q0 25 2 48t2 46q0 4 1 19.5t1 32.5t1 32.5t1 19.5q0 6 -1 20.5t-2 32t-2 32t-1 20.5q0 47 3 63.5t7 22.5q4 10 20.5 30.5t51.5 20.5q10 0 39 -1t39 -1q6 0 22.5 1t35 1t35.5 1t23 1t20.5 -1t30 -1t30 -1t20.5 -1h76 zM221 1563q0 4 7.5 16t16.5 24.5t18 24.5t13 17q6 6 12.5 13t12.5 13q10 14 18.5 29.5t18.5 30.5q4 6 21.5 25.5t21.5 27.5q8 10 13 19t16 18q2 2 15 12t34 10q6 0 26.5 -1t26.5 -1t27.5 1t27.5 1q29 0 46.5 -10t27.5 -23l18 -24l15.5 -15.5t15.5 -17.5q4 -6 9.5 -13 t9.5 -14q4 -6 23.5 -27.5t23.5 -29.5q6 -10 13 -21.5t15 -21.5q23 -25 28 -32t5 -19q0 -27 -19.5 -33t-25.5 -6q-4 -2 -20.5 -1t-20.5 1q-6 0 -26.5 -1t-26.5 -1t-23.5 1t-23.5 1q-4 0 -15.5 -1t-15.5 -1q-6 0 -14 3t-23 19q-8 10 -13 20.5t-15 16.5q-14 10 -33 11 q-16 0 -23.5 -7.5t-15.5 -19.5q-4 -4 -6 -8t-6 -8q-8 -12 -15.5 -18.5t-23.5 -6.5q-8 0 -14.5 1t-14.5 1q-4 0 -16.5 -1t-16.5 -1h-51q-4 0 -20.5 -1t-20.5 -1q-16 0 -26.5 11.5t-10.5 17.5z" />
<glyph unicode="&#xcb;" horiz-adv-x="1024" d="M539 1444q6 0 32.5 2t34.5 2t36 1t38 1q6 0 24.5 -1t39 -2t39 -2t26.5 -1q10 0 41 2t41 2q37 0 53.5 -18.5t16.5 -49.5q0 -6 -1.5 -30.5t-1.5 -32.5q0 -6 1.5 -19.5t2.5 -29t2 -28.5t1 -19q0 -18 -3.5 -25.5t-19.5 -28.5q-8 -10 -11 -13t-16 -7q-12 -4 -22 -7t-27 -3 q-8 0 -30.5 1t-30.5 1q-4 0 -17.5 -1t-28 -1t-27.5 -1t-19 -1q-14 0 -23 2q-14 0 -26.5 2t-26.5 4t-26.5 2h-26.5q-86 0 -117 -18.5t-31 -82.5q0 -37 1 -61.5t7.5 -40.5t20.5 -25.5t39 -13.5q35 -4 45 -5t31 -1q6 0 21 1t32.5 2t34 2t22.5 1q4 0 17.5 -1t29 -3t28.5 -3 t19 -1q20 0 41 2t41 2h30.5t27.5 -4q4 -4 20.5 -18.5t16.5 -42.5q-2 -14 -3 -25q0 -10 -1 -19.5t-1 -13.5q-2 -25 -2 -37v-45q0 -12 -1 -18t-3 -23q-2 -10 -5 -22.5t-12 -23.5t-25.5 -19t-47.5 -8h-104q-6 0 -26.5 1t-27.5 1q-4 0 -21 -1t-22 -1q-6 0 -31.5 3t-33.5 3 q-16 0 -30.5 -2t-31.5 -2h-16q-10 0 -23.5 -3.5t-19.5 -7.5q-14 -6 -21.5 -17t-10.5 -24.5t-4 -25.5t-1 -19q0 -49 2 -82.5t17.5 -54t49.5 -30t95 -9.5q10 0 42 1t42 1q8 0 33.5 -1t36.5 -1h21.5t32.5 1t32.5 2t21.5 1q10 2 21.5 2h21.5q8 0 39 -6t45 -33q10 -23 12.5 -47 t2.5 -39v-14q2 -14 5 -28.5t5 -28.5v-53q0 -10 -1 -21.5t-8.5 -22t-21.5 -17.5t-39 -7q-4 0 -13 1t-20 1q-10 2 -21 2h-16q-4 0 -17 -1t-30 -1q-16 -2 -29.5 -3t-19.5 -1q-4 0 -17 1t-30 1q-16 2 -29.5 2h-19.5q-2 0 -28.5 -1t-59.5 -1q-35 -2 -64.5 -3t-37.5 -1 q-10 0 -35 1t-54 3q-29 0 -54 1t-36 1h-65q-20 -2 -39 -2h-27t-25.5 2t-33.5 16q-12 10 -22.5 33t-10.5 45q0 6 1 27.5t1 28.5q0 18 -2 35.5t-2 35.5v37q0 6 -1 18.5t-1 27.5t-1 27.5t-1 18.5q0 27 1 61.5t1 61.5q0 6 1 26.5t1 26.5v16.5t-1 26t-1 25.5v18q0 8 -1 37t-1 39 v141v17.5t2 17.5q0 6 2 27.5t2 28.5q0 10 -3 42.5t-3 43.5q0 25 2 48t2 46q0 4 1 19.5t1 32.5t1 32.5t1 19.5q0 6 -1 20.5t-2 32t-2 32t-1 20.5q0 47 3 63.5t7 22.5q4 10 20.5 30.5t51.5 20.5q10 0 39 -1t39 -1q6 0 22.5 1t35 1t35.5 1t23 1t20.5 -1t30 -1t30 -1t20.5 -1h76 zM561 1790q0 20 13.5 30.5t27.5 12.5q6 0 26.5 -2t26.5 -2h93q8 0 33.5 -1t33.5 -1q4 0 20.5 1t22.5 1q14 0 20.5 -3t10.5 -5q4 -6 10 -11l7 -7t5 -7v-108q0 -8 -2 -34t-2 -36q0 -4 1 -14.5t1 -14.5q0 -33 -12 -43t-29 -10q-10 0 -18 2t-16 2q-4 0 -15.5 -2t-15.5 -2t-6 1 t-6 1h-36t-51.5 1t-52 1h-39.5q-29 0 -37 8t-10 25v57q0 8 -2 37t-2 39q0 4 2 23.5t2 25.5q0 4 -2 17.5t-2 17.5zM457 1634q0 -10 -1 -26.5t-1 -26.5q0 -8 -3 -18.5t-16 -18.5q-8 -4 -19 -5t-52 1h-13q-14 0 -29.5 -1t-28.5 -1h-15q-8 0 -37 1t-39 1q-6 0 -28.5 -3t-29.5 -3 q-8 0 -23.5 8t-15.5 35v137q0 4 -1 25.5t-1 27.5q0 20 8.5 32.5t19.5 20t20.5 9.5t11.5 2q4 0 20.5 -2t20.5 -2q6 0 30.5 2t30.5 2h35q4 0 19.5 -2t19.5 -2q6 0 13 1t14 1q10 2 53 2q27 0 31 -16.5t4 -53.5q0 -4 1 -21.5t1 -21.5t-1 -19.5t-1 -19.5q0 -10 1 -21t1 -22v-2z " />
<glyph unicode="&#xcc;" horiz-adv-x="512" d="M76 946q0 6 1 19.5t2 30t2 29.5t1 19q0 23 -2 46.5t-2 46.5q0 8 3 36.5t3 36.5t-1 27.5t-3 42.5t-3 42t-1 28q0 27 15 56.5t40 33.5q4 0 18.5 -1t18.5 -1q8 0 35.5 1t36.5 1q20 0 40.5 -1t41.5 -1q4 0 21 1t24 1q16 0 24 -6.5t17 -16.5q12 -16 18 -27.5t6 -35.5 q0 -8 -1 -36t-1 -38q0 -8 1 -33.5t1 -36.5q0 -6 -1 -19t-1 -29.5t-1 -31t-1 -20.5q0 -35 2 -72t2 -71v-18.5t-1 -27t-1 -26.5v-18v-78v-17.5t-1 -28t-1 -26.5v-18t1 -24.5t1 -38t1 -38t1 -26.5v-26.5t-1 -44.5t-1 -43v-26q-2 -14 -3 -27.5t-1 -27.5q0 -4 1 -16.5t1 -26.5 t1 -26.5t1 -18.5v-168q0 -8 3 -34.5t3 -37.5q0 -29 -20.5 -44t-42.5 -15q-4 0 -24.5 2t-26.5 2q-10 0 -41 -2t-41 -2q-6 0 -28 2t-28 2q-4 0 -22.5 -2t-22.5 -2q-33 0 -48 19.5t-17 31.5q-2 4 -2 23.5v21.5q0 16 1 29.5t3 28.5q2 20 3 39.5t1 39.5q0 12 -1 45t-1 71t-1 72 t-1 48q0 4 2 17.5t2 17.5q0 6 -3 25.5t-3 25.5q0 8 1 30.5t3 49.5t3 50.5t1 33.5q0 37 -3 72.5t-3 70.5v84zM23 1794q0 10 4 22.5t14 18.5q10 8 33 8q6 0 26.5 -2t28.5 -2q6 0 22.5 1t35 2t36 2t23.5 1q29 0 48 -4t34 -20q10 -10 19 -39t11 -41q2 -10 1 -22.5t3 -22.5 q4 -8 7.5 -15.5t7.5 -15.5q0 -4 1 -22.5t1 -24.5q2 -10 5 -21.5t3 -23.5q0 -35 -22.5 -39t-51.5 -2q-6 0 -28.5 -1t-30.5 -1q-4 0 -18.5 1t-18.5 1q-6 0 -13 -1t-14 -1q-23 0 -30.5 11t-18.5 34q-4 10 -7 14t-15 21q-10 12 -17.5 26.5t-29.5 63.5q-6 12 -11.5 23.5 t-15.5 23.5q-14 23 -18 30t-4 17z" />
<glyph unicode="&#xcd;" horiz-adv-x="512" d="M76 946q0 6 1 19.5t2 30t2 29.5t1 19q0 23 -2 46.5t-2 46.5q0 8 3 36.5t3 36.5t-1 27.5t-3 42.5t-3 42t-1 28q0 27 15 56.5t40 33.5q4 0 18.5 -1t18.5 -1q8 0 35.5 1t36.5 1q20 0 40.5 -1t41.5 -1q4 0 21 1t24 1q16 0 24 -6.5t17 -16.5q12 -16 18 -27.5t6 -35.5 q0 -8 -1 -36t-1 -38q0 -8 1 -33.5t1 -36.5q0 -6 -1 -19t-1 -29.5t-1 -31t-1 -20.5q0 -35 2 -72t2 -71v-18.5t-1 -27t-1 -26.5v-18v-78v-17.5t-1 -28t-1 -26.5v-18t1 -24.5t1 -38t1 -38t1 -26.5v-26.5t-1 -44.5t-1 -43v-26q-2 -14 -3 -27.5t-1 -27.5q0 -4 1 -16.5t1 -26.5 t1 -26.5t1 -18.5v-168q0 -8 3 -34.5t3 -37.5q0 -29 -20.5 -44t-42.5 -15q-4 0 -24.5 2t-26.5 2q-10 0 -41 -2t-41 -2q-6 0 -28 2t-28 2q-4 0 -22.5 -2t-22.5 -2q-33 0 -48 19.5t-17 31.5q-2 4 -2 23.5v21.5q0 16 1 29.5t3 28.5q2 20 3 39.5t1 39.5q0 12 -1 45t-1 71t-1 72 t-1 48q0 4 2 17.5t2 17.5q0 6 -3 25.5t-3 25.5q0 8 1 30.5t3 49.5t3 50.5t1 33.5q0 37 -3 72.5t-3 70.5v84zM408 1833q6 0 28.5 4t28.5 4q23 0 30 -11t7 -32q0 -23 -17 -53q-4 -6 -9 -12.5t-9 -14.5q-6 -10 -11 -22.5t-14 -22.5q-4 -6 -8 -11t-8 -9l-12 -19q-4 -8 -17 -20 q-12 -16 -16 -27q-10 -25 -14.5 -32t-14.5 -13t-20 -7t-51 -1q-8 0 -34 -1t-36 -1h-16.5t-21.5 1t-20.5 2t-11.5 1q-10 2 -16 12.5t-6 22.5q0 18 10 35q4 6 6 11t2 11q2 4 2 9t2 10q2 4 3 7t3 7t4.5 14.5t4.5 21.5t4 21.5t2 12.5q2 10 6 17t6 17t1 19.5t3 19.5 q4 12 14.5 22.5t20.5 10.5q8 0 14 -2h39q4 0 16.5 1t27 1t26.5 1t18 1q4 0 26 -3t28 -3z" />
<glyph unicode="&#xce;" horiz-adv-x="512" d="M76 946q0 6 1 19.5t2 30t2 29.5t1 19q0 23 -2 46.5t-2 46.5q0 8 3 36.5t3 36.5t-1 27.5t-3 42.5t-3 42t-1 28q0 27 15 56.5t40 33.5q4 0 18.5 -1t18.5 -1q8 0 35.5 1t36.5 1q20 0 40.5 -1t41.5 -1q4 0 21 1t24 1q16 0 24 -6.5t17 -16.5q12 -16 18 -27.5t6 -35.5 q0 -8 -1 -36t-1 -38q0 -8 1 -33.5t1 -36.5q0 -6 -1 -19t-1 -29.5t-1 -31t-1 -20.5q0 -35 2 -72t2 -71v-18.5t-1 -27t-1 -26.5v-18v-78v-17.5t-1 -28t-1 -26.5v-18t1 -24.5t1 -38t1 -38t1 -26.5v-26.5t-1 -44.5t-1 -43v-26q-2 -14 -3 -27.5t-1 -27.5q0 -4 1 -16.5t1 -26.5 t1 -26.5t1 -18.5v-168q0 -8 3 -34.5t3 -37.5q0 -29 -20.5 -44t-42.5 -15q-4 0 -24.5 2t-26.5 2q-10 0 -41 -2t-41 -2q-6 0 -28 2t-28 2q-4 0 -22.5 -2t-22.5 -2q-33 0 -48 19.5t-17 31.5q-2 4 -2 23.5v21.5q0 16 1 29.5t3 28.5q2 20 3 39.5t1 39.5q0 12 -1 45t-1 71t-1 72 t-1 48q0 4 2 17.5t2 17.5q0 6 -3 25.5t-3 25.5q0 8 1 30.5t3 49.5t3 50.5t1 33.5q0 37 -3 72.5t-3 70.5v84zM-35 1563q0 4 7.5 16t16.5 24.5t18 24.5t13 17q6 6 12.5 13t12.5 13q10 14 18.5 29.5t18.5 30.5q4 6 21.5 25.5t21.5 27.5q8 10 13 19t16 18q2 2 15 12t34 10 q6 0 26.5 -1t26.5 -1t27.5 1t27.5 1q29 0 46.5 -10t27.5 -23l18 -24l15.5 -15.5t15.5 -17.5q4 -6 9.5 -13t9.5 -14q4 -6 23.5 -27.5t23.5 -29.5q6 -10 13 -21.5t15 -21.5q23 -25 28 -32t5 -19q0 -27 -19.5 -33t-25.5 -6q-4 -2 -20.5 -1t-20.5 1q-6 0 -26.5 -1t-26.5 -1 t-23.5 1t-23.5 1q-4 0 -15.5 -1t-15.5 -1q-6 0 -14 3t-23 19q-8 10 -13 20.5t-15 16.5q-14 10 -33 11q-16 0 -23.5 -7.5t-15.5 -19.5q-4 -4 -6 -8t-6 -8q-8 -12 -15.5 -18.5t-23.5 -6.5q-8 0 -14.5 1t-14.5 1q-4 0 -16.5 -1t-16.5 -1h-51q-4 0 -20.5 -1t-20.5 -1 q-16 0 -26.5 11.5t-10.5 17.5z" />
<glyph unicode="&#xcf;" horiz-adv-x="512" d="M76 946q0 6 1 19.5t2 30t2 29.5t1 19q0 23 -2 46.5t-2 46.5q0 8 3 36.5t3 36.5t-1 27.5t-3 42.5t-3 42t-1 28q0 27 15 56.5t40 33.5q4 0 18.5 -1t18.5 -1q8 0 35.5 1t36.5 1q20 0 40.5 -1t41.5 -1q4 0 21 1t24 1q16 0 24 -6.5t17 -16.5q12 -16 18 -27.5t6 -35.5 q0 -8 -1 -36t-1 -38q0 -8 1 -33.5t1 -36.5q0 -6 -1 -19t-1 -29.5t-1 -31t-1 -20.5q0 -35 2 -72t2 -71v-18.5t-1 -27t-1 -26.5v-18v-78v-17.5t-1 -28t-1 -26.5v-18t1 -24.5t1 -38t1 -38t1 -26.5v-26.5t-1 -44.5t-1 -43v-26q-2 -14 -3 -27.5t-1 -27.5q0 -4 1 -16.5t1 -26.5 t1 -26.5t1 -18.5v-168q0 -8 3 -34.5t3 -37.5q0 -29 -20.5 -44t-42.5 -15q-4 0 -24.5 2t-26.5 2q-10 0 -41 -2t-41 -2q-6 0 -28 2t-28 2q-4 0 -22.5 -2t-22.5 -2q-33 0 -48 19.5t-17 31.5q-2 4 -2 23.5v21.5q0 16 1 29.5t3 28.5q2 20 3 39.5t1 39.5q0 12 -1 45t-1 71t-1 72 t-1 48q0 4 2 17.5t2 17.5q0 6 -3 25.5t-3 25.5q0 8 1 30.5t3 49.5t3 50.5t1 33.5q0 37 -3 72.5t-3 70.5v84zM305 1790q0 20 13.5 30.5t27.5 12.5q6 0 26.5 -2t26.5 -2h93q8 0 33.5 -1t33.5 -1q4 0 20.5 1t22.5 1q14 0 20.5 -3t10.5 -5q4 -6 10 -11l7 -7t5 -7v-108 q0 -8 -2 -34t-2 -36q0 -4 1 -14.5t1 -14.5q0 -33 -12 -43t-29 -10q-10 0 -18 2t-16 2q-4 0 -15.5 -2t-15.5 -2t-6 1t-6 1h-36t-51.5 1t-52 1h-39.5q-29 0 -37 8t-10 25v57q0 8 -2 37t-2 39q0 4 2 23.5t2 25.5q0 4 -2 17.5t-2 17.5zM201 1634q0 -10 -1 -26.5t-1 -26.5 q0 -8 -3 -18.5t-16 -18.5q-8 -4 -19 -5t-52 1h-13q-14 0 -29.5 -1t-28.5 -1h-15q-8 0 -37 1t-39 1q-6 0 -28.5 -3t-29.5 -3q-8 0 -23.5 8t-15.5 35v137q0 4 -1 25.5t-1 27.5q0 20 8.5 32.5t19.5 20t20.5 9.5t11.5 2q4 0 20.5 -2t20.5 -2q6 0 30.5 2t30.5 2h35q4 0 19.5 -2 t19.5 -2q6 0 13 1t14 1q10 2 53 2q27 0 31 -16.5t4 -53.5q0 -4 1 -21.5t1 -21.5t-1 -19.5t-1 -19.5q0 -10 1 -21t1 -22v-2z" />
<glyph unicode="&#xd0;" horiz-adv-x="1366" d="M84 1016q-2 37 -1 89t1 89q0 6 -1 24.5t-2 39t-2 39t-1 26.5q0 29 5 47.5t11 30.5q12 27 24.5 31t31.5 4q8 0 30.5 1t48 1t48 1t32.5 1h22.5t24.5 -2q14 -2 27.5 -3t30.5 -1q25 0 47 2q16 2 31.5 2t17.5 2q12 0 21.5 1t19.5 1h26.5h40.5q4 0 17.5 -2t17.5 -2h29 q14 0 36.5 -3t26.5 -5l17 -4q16 -5 34.5 -11t34 -11t17.5 -5q8 -4 15 -8.5t16 -8.5q8 -4 15 -4t13 -4q8 -2 14.5 -6t14.5 -8l17.5 -7l17.5 -7t26 -17q16 -10 26.5 -17t18 -13.5t16.5 -13.5t21 -19q63 -57 115 -131q12 -16 24.5 -40t23.5 -48.5t21.5 -47t16.5 -41.5 q10 -29 16.5 -58.5t10.5 -55.5q4 -31 6 -60q0 -6 -2 -26.5t-2 -26.5t2 -29.5t2 -31.5v-34t-2 -32q0 -8 -5.5 -31.5t-11.5 -51t-12 -53.5t-10 -36t-8 -18t-9 -19q-4 -10 -8 -21.5t-10 -21.5q-6 -12 -14.5 -22.5t-14.5 -22.5q-4 -6 -6 -11t-6 -11q-6 -12 -25.5 -36t-41 -47.5 t-39 -42t-19.5 -20.5q-8 -6 -21.5 -15t-27.5 -18.5t-27.5 -16.5t-21.5 -11q-14 -6 -28.5 -11.5t-31.5 -9.5l-43 -18q-6 -2 -20 -5t-31.5 -8.5t-34 -8.5t-22.5 -5q-4 0 -19.5 -2t-32 -3t-31.5 -3t-22 -2h-194q-10 0 -38 1t-57.5 2t-57 2t-38.5 1h-61q-10 0 -31.5 1t-43 7.5 t-38 20.5t-16.5 41q0 10 1 41t1 41q0 12 -1 42.5t-1 65.5t-1 68t-1 45q0 8 1 30.5t1 47t1 46t1 32.5v34q0 4 1 15.5t1 15.5q0 18 -10 24.5t-21 6.5q-6 0 -13 -1t-13 -1q-18 0 -26.5 15.5t-8.5 31.5q0 6 2 31.5t2 33.5t-1 31t-1 31q0 35 19.5 41t37.5 6q10 0 21.5 4t11.5 23 v29.5t-1 37t-1 39v31.5zM981 684q0 16 -1 42t-5 40l-3 16q-3 17 -7 35.5t-8.5 34.5t-4.5 20q-6 12 -14 23.5t-16 22.5q-4 8 -8.5 15t-8.5 13q-6 10 -11 17.5t-13 15.5q-2 2 -19.5 15.5t-38 28.5t-37.5 27l-16 13q-14 8 -66.5 20.5t-117.5 12.5q-47 0 -78 -8.5t-49.5 -29 t-26.5 -56t-8 -93.5q0 -31 9 -45t36 -14q4 0 15.5 -1t15.5 -1q10 0 20 1t21 1q6 0 26.5 -2t26.5 -2q4 0 24.5 2t24.5 2q20 0 33.5 -12.5t13.5 -28.5q0 -4 -1 -16.5t-1 -16.5t1 -17.5t1 -17.5q0 -6 -1 -28.5t-1 -28.5q0 -29 -15.5 -38t-17.5 -9q-8 -4 -15 -4h-36 q-8 0 -30.5 3t-30.5 3q-4 0 -11.5 -1t-13.5 -1q-4 0 -29.5 -1t-29.5 -1q-23 0 -31 -12.5t-8 -18.5q0 -4 1 -15t1 -16q0 -6 1 -20t1 -30.5t1 -31t1 -20.5q2 -37 7 -64.5t26.5 -46t66.5 -27.5t125 -9h21.5t21.5 2q12 2 34 8t44.5 14t40.5 15.5t29 13.5q39 25 66.5 68.5t43 91 t22.5 88.5t7 59z" />
<glyph unicode="&#xd1;" horiz-adv-x="1323" d="M74 1300q0 6 -3 30t-3 32v24.5t4 22.5t14 21.5t27 11.5q4 0 20.5 -3t22.5 -3h12q4 2 10 2h8h15h16l4 -2h12h8.5t14.5 2h27q10 0 32.5 -1t32.5 -5q4 -2 8 -3.5t9 -3.5q10 -4 19 -2t19 -2t22.5 -14t14.5 -12q6 -8 25.5 -36t39 -59.5t37 -59.5t21.5 -34q8 -8 17 -20 q6 -10 11 -18.5t11 -16.5q14 -25 23.5 -39t15.5 -24.5l10 -17.5t8 -17q10 -20 25.5 -44t32.5 -44q29 -43 55.5 -88.5t48.5 -92.5q4 -8 19.5 -34.5t19.5 -36.5q8 -12 18.5 -27.5t14.5 -15.5q16 0 17 29.5t1 58.5q0 6 1 27.5t1 27.5q0 10 -1 19.5t-1 19.5q0 8 2 31.5t2 31.5 t-3 37t-3 39q0 4 1 16.5t2 26t2 25.5t1 18t-1 20.5t-2 30t-2 29.5t-1 21v29.5v45v44v30.5q0 4 -2 25.5t-2 29.5q0 23 12.5 34t20.5 16q4 2 14.5 2h40.5h54h14t22 -2q10 0 21.5 -1t15.5 -1q10 0 20.5 1t20.5 1q4 0 18.5 2t18.5 2q16 0 34.5 -17.5t18.5 -58.5q0 -6 -1 -18.5 t-2 -28t-2 -28.5t-1 -19v-18.5t1 -30t1 -28.5v-20v-24.5t-1 -40t-1 -39.5v-27v-67v-30.5t-2 -31.5q0 -6 -1 -22.5t-2 -34.5t-2 -35.5t-1 -23.5t1 -20.5t1 -31t1 -32t1 -21.5q2 -33 1 -78t-1 -80q0 -39 1 -93t1 -95q0 -8 -1 -15.5t-1 -13.5q-2 -10 -3 -19t-1 -20 q0 -6 1 -27.5t1 -27.5q0 -8 2 -28.5t4 -44t4 -45t2 -29.5t-1 -19.5t-8 -23t-22.5 -19.5t-43.5 -8h-16.5t-16.5 2q-4 0 -19.5 -1t-19.5 -1q-8 0 -36 2t-36 2q-6 0 -24.5 -2t-24.5 -2q-35 0 -56.5 26.5t-37.5 61.5q-6 14 -11.5 22.5t-9.5 14.5t-10 14.5t-14 22.5 q-18 25 -34.5 51.5t-31.5 52.5q-29 53 -50 88t-23 39q-6 10 -13.5 19.5t-15.5 19.5q-6 10 -12.5 21.5t-14.5 21.5q-10 14 -20.5 28.5t-20.5 29.5l-24 43q-10 16 -21.5 34.5t-21.5 34.5q-12 20 -22.5 41l-20.5 41q-4 8 -9.5 15.5t-11.5 13.5q-6 4 -16 11t-19 7q-2 0 -12 -5 t-14 -34q0 -6 -1 -20.5t-2 -31.5t-2 -32.5t-1 -21.5t1 -27.5t1 -30.5q0 -4 -1 -24.5t-1 -26.5v-47q0 -4 -1 -23.5t-1 -25.5v-13.5t2 -19.5t2 -39.5v-46.5q0 -6 2 -32.5t2 -34.5q2 -8 1 -35t-1 -37q0 -14 2 -21q0 -8 4 -33.5t4 -33.5q0 -25 -22.5 -44.5t-30.5 -21.5 q-4 -2 -19.5 -1t-19.5 1q-6 0 -29.5 -4t-32.5 -4q-4 -2 -22.5 -2h-22.5q-8 0 -35.5 -2t-35.5 -2q-25 0 -38.5 5t-17.5 9q-20 14 -22 26.5t-2 25.5v21v31.5v33v22.5t1 22.5t1 35t1 36t1 23.5t-1 28.5t-1 30.5v51q0 4 1 18.5t1 30t1 29t1 19.5q0 4 -2 27.5t-2 29.5 q-2 14 -2 27.5v25.5q0 41 1 81t3 79q4 33 4 40v17q0 29 -3 57.5t-5 57.5v24.5t1 39t1 39v26.5q0 6 -1 23.5t-1 38t-1 38t-1 25.5q0 4 1 22.5t1 22.5t-1 17.5t-1 17.5v26zM504 1821q4 0 15 2t16 2q2 0 21 -2t24 -4l9 -4.5t11 -4.5q12 -4 21 -6q16 -8 24 -10q8 -4 25 -8 q2 0 28.5 -8.5t38.5 -12.5q16 -6 23.5 -8t17.5 -2q35 0 47 29q0 4 4 16q6 12 15.5 14.5t46.5 2.5q35 0 56.5 -7.5t21.5 -40.5q0 -4 -3 -27.5t-8 -37.5q-2 -10 -1 -19.5t-1 -19.5q-4 -37 -35.5 -76t-97.5 -39q-14 0 -41.5 4.5t-42.5 8.5q-29 6 -54.5 17t-53.5 17 q-10 4 -18.5 4.5t-18.5 4.5q-31 10 -37 10q-29 0 -43 -25q-8 -16 -11 -21t-14 -9q-6 -4 -17 -4.5t-58 -0.5q-35 0 -44.5 20.5t-9.5 31.5q0 4 2.5 24.5t4.5 34.5q8 70 29.5 97.5t52.5 43.5q18 10 27.5 11.5t27.5 1.5z" />
<glyph unicode="&#xd2;" horiz-adv-x="1449" d="M45 756q0 33 10 73q2 10 7.5 34t11.5 48.5t11 46t9 27.5q2 4 7 17.5t12.5 29t12.5 27.5t7 14q4 10 11.5 18.5t13.5 18.5q2 4 8 15.5t14 25.5t14.5 26.5t10.5 16.5q8 10 18 20.5t19 20.5q10 10 18 22.5t19 22.5q10 10 20 17.5t20 15.5t19.5 16t19.5 17q12 10 41 25t50 24 q10 4 21 7t22 7q14 4 27 11t28 12q10 2 37.5 7t57.5 8t53.5 6t27.5 3q6 0 22.5 -2t35 -5t34.5 -6t23 -3q27 -4 52 -7t50 -14q2 -2 24.5 -12t48 -22.5t47 -22.5t25.5 -12q8 -4 22.5 -16.5t30 -26t30 -27.5t24.5 -23q10 -10 18.5 -21t18.5 -22q12 -16 28 -28 q14 -16 23.5 -30.5t19.5 -39.5q6 -12 11.5 -24.5t9.5 -24.5q10 -20 19.5 -38.5t19.5 -39.5q14 -33 20 -76q2 -12 6.5 -50t7.5 -81t5 -79.5t2 -45.5q0 -10 -2 -28.5t-5 -39t-7.5 -39t-6.5 -26.5q-4 -10 -9 -30.5t-11 -42t-12.5 -42t-10.5 -28.5q-10 -25 -26.5 -58.5 t-57.5 -89.5q-6 -10 -23.5 -29.5t-36.5 -39t-38.5 -36.5t-30.5 -24q-14 -10 -29.5 -15t-31.5 -13q-10 -6 -18.5 -12.5t-18.5 -10.5q-2 -2 -18.5 -9t-37 -14t-38 -14.5t-19.5 -7.5q-14 -4 -28.5 -5t-30.5 -5q-10 -2 -18.5 -4t-16.5 -4q-37 -6 -65 -6h-24.5t-34 1t-34 2 t-22.5 1q-18 2 -45 10q-14 2 -27.5 4t-27.5 6q-23 4 -39 12q-20 10 -27.5 13.5t-30.5 9.5q-14 4 -26.5 9t-24.5 14q-14 10 -26.5 20t-26.5 20q-31 23 -51.5 37.5t-35.5 28.5t-30.5 33.5t-38.5 50.5q-12 16 -20 26.5t-14.5 19.5t-12.5 20.5t-14 29.5q-6 14 -14.5 26.5 t-14.5 24.5q-6 14 -12 35t-10 41.5t-7.5 38l-5.5 27.5q-2 16 -4 46t-4 61.5t-3 59.5t-1 44zM381 737q0 -4 1 -16t1 -25.5t1 -25.5l1 -13q2 -18 8 -36.5t10 -36.5q6 -25 11.5 -41.5t9.5 -26.5t8 -20.5t12 -22.5q12 -23 32 -44t38 -38.5t32.5 -28t18.5 -12.5q8 -4 17.5 -4 t19.5 -4q6 -2 11 -4t12 -4q12 -4 20 -6q20 -4 27.5 -5t29.5 -1q4 0 18.5 -1.5t18.5 -1.5h27t33 3q12 2 30.5 10t37 19t33.5 20.5t22 15.5q16 12 32.5 30.5t29.5 35t22.5 30t11.5 17.5q4 6 9 27.5t24 88.5q6 29 8 46.5t2 31.5q0 16 -1 32.5t-1 33.5v26v17.5t-2 17.5 q0 2 -6.5 18.5t-13.5 37t-15 39t-14 28.5q-10 16 -22.5 27.5t-22.5 25.5q-10 12 -20.5 25.5t-22.5 24.5q-6 6 -23.5 14t-36 16t-34 15.5t-17.5 7.5q-6 2 -22.5 4t-33 3t-31.5 1h-20h-27t-24 -4q-20 -4 -31.5 -7t-19.5 -7.5t-15 -8.5t-20 -12q-23 -14 -36 -22.5t-22 -15.5 t-16.5 -14t-15.5 -20q-16 -16 -36.5 -50t-26.5 -48q-10 -18 -12.5 -39.5t-6.5 -44.5q-4 -16 -7 -32.5t-5 -32.5v-13v0zM492 1794q0 10 4 22.5t14 18.5q10 8 33 8q6 0 26.5 -2t28.5 -2q6 0 22.5 1t35 2t36 2t23.5 1q29 0 48 -4t34 -20q10 -10 19 -39t11 -41q2 -10 1 -22.5 t3 -22.5q4 -8 7.5 -15.5t7.5 -15.5q0 -4 1 -22.5t1 -24.5q2 -10 5 -21.5t3 -23.5q0 -35 -22.5 -39t-51.5 -2q-6 0 -28.5 -1t-30.5 -1q-4 0 -18.5 1t-18.5 1q-6 0 -13 -1t-14 -1q-23 0 -30.5 11t-18.5 34q-4 10 -7 14t-15 21q-10 12 -17.5 26.5t-29.5 63.5q-6 12 -11.5 23.5 t-15.5 23.5q-14 23 -18 30t-4 17z" />
<glyph unicode="&#xd3;" horiz-adv-x="1449" d="M45 756q0 33 10 73q2 10 7.5 34t11.5 48.5t11 46t9 27.5q2 4 7 17.5t12.5 29t12.5 27.5t7 14q4 10 11.5 18.5t13.5 18.5q2 4 8 15.5t14 25.5t14.5 26.5t10.5 16.5q8 10 18 20.5t19 20.5q10 10 18 22.5t19 22.5q10 10 20 17.5t20 15.5t19.5 16t19.5 17q12 10 41 25t50 24 q10 4 21 7t22 7q14 4 27 11t28 12q10 2 37.5 7t57.5 8t53.5 6t27.5 3q6 0 22.5 -2t35 -5t34.5 -6t23 -3q27 -4 52 -7t50 -14q2 -2 24.5 -12t48 -22.5t47 -22.5t25.5 -12q8 -4 22.5 -16.5t30 -26t30 -27.5t24.5 -23q10 -10 18.5 -21t18.5 -22q12 -16 28 -28 q14 -16 23.5 -30.5t19.5 -39.5q6 -12 11.5 -24.5t9.5 -24.5q10 -20 19.5 -38.5t19.5 -39.5q14 -33 20 -76q2 -12 6.5 -50t7.5 -81t5 -79.5t2 -45.5q0 -10 -2 -28.5t-5 -39t-7.5 -39t-6.5 -26.5q-4 -10 -9 -30.5t-11 -42t-12.5 -42t-10.5 -28.5q-10 -25 -26.5 -58.5 t-57.5 -89.5q-6 -10 -23.5 -29.5t-36.5 -39t-38.5 -36.5t-30.5 -24q-14 -10 -29.5 -15t-31.5 -13q-10 -6 -18.5 -12.5t-18.5 -10.5q-2 -2 -18.5 -9t-37 -14t-38 -14.5t-19.5 -7.5q-14 -4 -28.5 -5t-30.5 -5q-10 -2 -18.5 -4t-16.5 -4q-37 -6 -65 -6h-24.5t-34 1t-34 2 t-22.5 1q-18 2 -45 10q-14 2 -27.5 4t-27.5 6q-23 4 -39 12q-20 10 -27.5 13.5t-30.5 9.5q-14 4 -26.5 9t-24.5 14q-14 10 -26.5 20t-26.5 20q-31 23 -51.5 37.5t-35.5 28.5t-30.5 33.5t-38.5 50.5q-12 16 -20 26.5t-14.5 19.5t-12.5 20.5t-14 29.5q-6 14 -14.5 26.5 t-14.5 24.5q-6 14 -12 35t-10 41.5t-7.5 38l-5.5 27.5q-2 16 -4 46t-4 61.5t-3 59.5t-1 44zM381 737q0 -4 1 -16t1 -25.5t1 -25.5l1 -13q2 -18 8 -36.5t10 -36.5q6 -25 11.5 -41.5t9.5 -26.5t8 -20.5t12 -22.5q12 -23 32 -44t38 -38.5t32.5 -28t18.5 -12.5q8 -4 17.5 -4 t19.5 -4q6 -2 11 -4t12 -4q12 -4 20 -6q20 -4 27.5 -5t29.5 -1q4 0 18.5 -1.5t18.5 -1.5h27t33 3q12 2 30.5 10t37 19t33.5 20.5t22 15.5q16 12 32.5 30.5t29.5 35t22.5 30t11.5 17.5q4 6 9 27.5t24 88.5q6 29 8 46.5t2 31.5q0 16 -1 32.5t-1 33.5v26v17.5t-2 17.5 q0 2 -6.5 18.5t-13.5 37t-15 39t-14 28.5q-10 16 -22.5 27.5t-22.5 25.5q-10 12 -20.5 25.5t-22.5 24.5q-6 6 -23.5 14t-36 16t-34 15.5t-17.5 7.5q-6 2 -22.5 4t-33 3t-31.5 1h-20h-27t-24 -4q-20 -4 -31.5 -7t-19.5 -7.5t-15 -8.5t-20 -12q-23 -14 -36 -22.5t-22 -15.5 t-16.5 -14t-15.5 -20q-16 -16 -36.5 -50t-26.5 -48q-10 -18 -12.5 -39.5t-6.5 -44.5q-4 -16 -7 -32.5t-5 -32.5v-13v0zM877 1833q6 0 28.5 4t28.5 4q23 0 30 -11t7 -32q0 -23 -17 -53q-4 -6 -9 -12.5t-9 -14.5q-6 -10 -11 -22.5t-14 -22.5q-4 -6 -8 -11t-8 -9l-12 -19 q-4 -8 -17 -20q-12 -16 -16 -27q-10 -25 -14.5 -32t-14.5 -13t-20 -7t-51 -1q-8 0 -34 -1t-36 -1h-16.5t-21.5 1t-20.5 2t-11.5 1q-10 2 -16 12.5t-6 22.5q0 18 10 35q4 6 6 11t2 11q2 4 2 9t2 10q2 4 3 7t3 7t4.5 14.5t4.5 21.5t4 21.5t2 12.5q2 10 6 17t6 17t1 19.5 t3 19.5q4 12 14.5 22.5t20.5 10.5q8 0 14 -2h39q4 0 16.5 1t27 1t26.5 1t18 1q4 0 26 -3t28 -3z" />
<glyph unicode="&#xd4;" horiz-adv-x="1449" d="M45 756q0 33 10 73q2 10 7.5 34t11.5 48.5t11 46t9 27.5q2 4 7 17.5t12.5 29t12.5 27.5t7 14q4 10 11.5 18.5t13.5 18.5q2 4 8 15.5t14 25.5t14.5 26.5t10.5 16.5q8 10 18 20.5t19 20.5q10 10 18 22.5t19 22.5q10 10 20 17.5t20 15.5t19.5 16t19.5 17q12 10 41 25t50 24 q10 4 21 7t22 7q14 4 27 11t28 12q10 2 37.5 7t57.5 8t53.5 6t27.5 3q6 0 22.5 -2t35 -5t34.5 -6t23 -3q27 -4 52 -7t50 -14q2 -2 24.5 -12t48 -22.5t47 -22.5t25.5 -12q8 -4 22.5 -16.5t30 -26t30 -27.5t24.5 -23q10 -10 18.5 -21t18.5 -22q12 -16 28 -28 q14 -16 23.5 -30.5t19.5 -39.5q6 -12 11.5 -24.5t9.5 -24.5q10 -20 19.5 -38.5t19.5 -39.5q14 -33 20 -76q2 -12 6.5 -50t7.5 -81t5 -79.5t2 -45.5q0 -10 -2 -28.5t-5 -39t-7.5 -39t-6.5 -26.5q-4 -10 -9 -30.5t-11 -42t-12.5 -42t-10.5 -28.5q-10 -25 -26.5 -58.5 t-57.5 -89.5q-6 -10 -23.5 -29.5t-36.5 -39t-38.5 -36.5t-30.5 -24q-14 -10 -29.5 -15t-31.5 -13q-10 -6 -18.5 -12.5t-18.5 -10.5q-2 -2 -18.5 -9t-37 -14t-38 -14.5t-19.5 -7.5q-14 -4 -28.5 -5t-30.5 -5q-10 -2 -18.5 -4t-16.5 -4q-37 -6 -65 -6h-24.5t-34 1t-34 2 t-22.5 1q-18 2 -45 10q-14 2 -27.5 4t-27.5 6q-23 4 -39 12q-20 10 -27.5 13.5t-30.5 9.5q-14 4 -26.5 9t-24.5 14q-14 10 -26.5 20t-26.5 20q-31 23 -51.5 37.5t-35.5 28.5t-30.5 33.5t-38.5 50.5q-12 16 -20 26.5t-14.5 19.5t-12.5 20.5t-14 29.5q-6 14 -14.5 26.5 t-14.5 24.5q-6 14 -12 35t-10 41.5t-7.5 38l-5.5 27.5q-2 16 -4 46t-4 61.5t-3 59.5t-1 44zM381 737q0 -4 1 -16t1 -25.5t1 -25.5l1 -13q2 -18 8 -36.5t10 -36.5q6 -25 11.5 -41.5t9.5 -26.5t8 -20.5t12 -22.5q12 -23 32 -44t38 -38.5t32.5 -28t18.5 -12.5q8 -4 17.5 -4 t19.5 -4q6 -2 11 -4t12 -4q12 -4 20 -6q20 -4 27.5 -5t29.5 -1q4 0 18.5 -1.5t18.5 -1.5h27t33 3q12 2 30.5 10t37 19t33.5 20.5t22 15.5q16 12 32.5 30.5t29.5 35t22.5 30t11.5 17.5q4 6 9 27.5t24 88.5q6 29 8 46.5t2 31.5q0 16 -1 32.5t-1 33.5v26v17.5t-2 17.5 q0 2 -6.5 18.5t-13.5 37t-15 39t-14 28.5q-10 16 -22.5 27.5t-22.5 25.5q-10 12 -20.5 25.5t-22.5 24.5q-6 6 -23.5 14t-36 16t-34 15.5t-17.5 7.5q-6 2 -22.5 4t-33 3t-31.5 1h-20h-27t-24 -4q-20 -4 -31.5 -7t-19.5 -7.5t-15 -8.5t-20 -12q-23 -14 -36 -22.5t-22 -15.5 t-16.5 -14t-15.5 -20q-16 -16 -36.5 -50t-26.5 -48q-10 -18 -12.5 -39.5t-6.5 -44.5q-4 -16 -7 -32.5t-5 -32.5v-13v0zM434 1563q0 4 7.5 16t16.5 24.5t18 24.5t13 17q6 6 12.5 13t12.5 13q10 14 18.5 29.5t18.5 30.5q4 6 21.5 25.5t21.5 27.5q8 10 13 19t16 18q2 2 15 12 t34 10q6 0 26.5 -1t26.5 -1t27.5 1t27.5 1q29 0 46.5 -10t27.5 -23l18 -24l15.5 -15.5t15.5 -17.5q4 -6 9.5 -13t9.5 -14q4 -6 23.5 -27.5t23.5 -29.5q6 -10 13 -21.5t15 -21.5q23 -25 28 -32t5 -19q0 -27 -19.5 -33t-25.5 -6q-4 -2 -20.5 -1t-20.5 1q-6 0 -26.5 -1 t-26.5 -1t-23.5 1t-23.5 1q-4 0 -15.5 -1t-15.5 -1q-6 0 -14 3t-23 19q-8 10 -13 20.5t-15 16.5q-14 10 -33 11q-16 0 -23.5 -7.5t-15.5 -19.5q-4 -4 -6 -8t-6 -8q-8 -12 -15.5 -18.5t-23.5 -6.5q-8 0 -14.5 1t-14.5 1q-4 0 -16.5 -1t-16.5 -1h-51q-4 0 -20.5 -1t-20.5 -1 q-16 0 -26.5 11.5t-10.5 17.5z" />
<glyph unicode="&#xd5;" horiz-adv-x="1449" d="M45 756q0 33 10 73q2 10 7.5 34t11.5 48.5t11 46t9 27.5q2 4 7 17.5t12.5 29t12.5 27.5t7 14q4 10 11.5 18.5t13.5 18.5q2 4 8 15.5t14 25.5t14.5 26.5t10.5 16.5q8 10 18 20.5t19 20.5q10 10 18 22.5t19 22.5q10 10 20 17.5t20 15.5t19.5 16t19.5 17q12 10 41 25t50 24 q10 4 21 7t22 7q14 4 27 11t28 12q10 2 37.5 7t57.5 8t53.5 6t27.5 3q6 0 22.5 -2t35 -5t34.5 -6t23 -3q27 -4 52 -7t50 -14q2 -2 24.5 -12t48 -22.5t47 -22.5t25.5 -12q8 -4 22.5 -16.5t30 -26t30 -27.5t24.5 -23q10 -10 18.5 -21t18.5 -22q12 -16 28 -28 q14 -16 23.5 -30.5t19.5 -39.5q6 -12 11.5 -24.5t9.5 -24.5q10 -20 19.5 -38.5t19.5 -39.5q14 -33 20 -76q2 -12 6.5 -50t7.5 -81t5 -79.5t2 -45.5q0 -10 -2 -28.5t-5 -39t-7.5 -39t-6.5 -26.5q-4 -10 -9 -30.5t-11 -42t-12.5 -42t-10.5 -28.5q-10 -25 -26.5 -58.5 t-57.5 -89.5q-6 -10 -23.5 -29.5t-36.5 -39t-38.5 -36.5t-30.5 -24q-14 -10 -29.5 -15t-31.5 -13q-10 -6 -18.5 -12.5t-18.5 -10.5q-2 -2 -18.5 -9t-37 -14t-38 -14.5t-19.5 -7.5q-14 -4 -28.5 -5t-30.5 -5q-10 -2 -18.5 -4t-16.5 -4q-37 -6 -65 -6h-24.5t-34 1t-34 2 t-22.5 1q-18 2 -45 10q-14 2 -27.5 4t-27.5 6q-23 4 -39 12q-20 10 -27.5 13.5t-30.5 9.5q-14 4 -26.5 9t-24.5 14q-14 10 -26.5 20t-26.5 20q-31 23 -51.5 37.5t-35.5 28.5t-30.5 33.5t-38.5 50.5q-12 16 -20 26.5t-14.5 19.5t-12.5 20.5t-14 29.5q-6 14 -14.5 26.5 t-14.5 24.5q-6 14 -12 35t-10 41.5t-7.5 38l-5.5 27.5q-2 16 -4 46t-4 61.5t-3 59.5t-1 44zM381 737q0 -4 1 -16t1 -25.5t1 -25.5l1 -13q2 -18 8 -36.5t10 -36.5q6 -25 11.5 -41.5t9.5 -26.5t8 -20.5t12 -22.5q12 -23 32 -44t38 -38.5t32.5 -28t18.5 -12.5q8 -4 17.5 -4 t19.5 -4q6 -2 11 -4t12 -4q12 -4 20 -6q20 -4 27.5 -5t29.5 -1q4 0 18.5 -1.5t18.5 -1.5h27t33 3q12 2 30.5 10t37 19t33.5 20.5t22 15.5q16 12 32.5 30.5t29.5 35t22.5 30t11.5 17.5q4 6 9 27.5t24 88.5q6 29 8 46.5t2 31.5q0 16 -1 32.5t-1 33.5v26v17.5t-2 17.5 q0 2 -6.5 18.5t-13.5 37t-15 39t-14 28.5q-10 16 -22.5 27.5t-22.5 25.5q-10 12 -20.5 25.5t-22.5 24.5q-6 6 -23.5 14t-36 16t-34 15.5t-17.5 7.5q-6 2 -22.5 4t-33 3t-31.5 1h-20h-27t-24 -4q-20 -4 -31.5 -7t-19.5 -7.5t-15 -8.5t-20 -12q-23 -14 -36 -22.5t-22 -15.5 t-16.5 -14t-15.5 -20q-16 -16 -36.5 -50t-26.5 -48q-10 -18 -12.5 -39.5t-6.5 -44.5q-4 -16 -7 -32.5t-5 -32.5v-13v0zM567 1821q4 0 15.5 2t15.5 2q2 0 21.5 -2t23.5 -4l9 -4.5t12 -4.5q12 -4 20 -6q16 -8 25 -10q8 -4 24 -8q2 0 28.5 -8.5t39.5 -12.5q16 -6 23 -8t18 -2 q35 0 47 29q0 4 4 16q6 12 15.5 14.5t45.5 2.5q35 0 56.5 -7.5t21.5 -40.5q0 -4 -3 -27.5t-7 -37.5q-2 -10 -1 -19.5t-1 -19.5q-4 -37 -36 -76t-97 -39q-14 0 -42 4.5t-42 8.5q-29 6 -54.5 17t-54.5 17q-10 4 -18 4.5t-19 4.5q-31 10 -36 10q-29 0 -43 -25q-8 -16 -11.5 -21 t-13.5 -9q-6 -4 -17.5 -4.5t-58.5 -0.5q-35 0 -44 20.5t-9 31.5q0 4 2 24.5t4 34.5q8 70 29.5 97.5t52.5 43.5q18 10 27.5 11.5t27.5 1.5z" />
<glyph unicode="&#xd6;" horiz-adv-x="1449" d="M45 756q0 33 10 73q2 10 7.5 34t11.5 48.5t11 46t9 27.5q2 4 7 17.5t12.5 29t12.5 27.5t7 14q4 10 11.5 18.5t13.5 18.5q2 4 8 15.5t14 25.5t14.5 26.5t10.5 16.5q8 10 18 20.5t19 20.5q10 10 18 22.5t19 22.5q10 10 20 17.5t20 15.5t19.5 16t19.5 17q12 10 41 25t50 24 q10 4 21 7t22 7q14 4 27 11t28 12q10 2 37.5 7t57.5 8t53.5 6t27.5 3q6 0 22.5 -2t35 -5t34.5 -6t23 -3q27 -4 52 -7t50 -14q2 -2 24.5 -12t48 -22.5t47 -22.5t25.5 -12q8 -4 22.5 -16.5t30 -26t30 -27.5t24.5 -23q10 -10 18.5 -21t18.5 -22q12 -16 28 -28 q14 -16 23.5 -30.5t19.5 -39.5q6 -12 11.5 -24.5t9.5 -24.5q10 -20 19.5 -38.5t19.5 -39.5q14 -33 20 -76q2 -12 6.5 -50t7.5 -81t5 -79.5t2 -45.5q0 -10 -2 -28.5t-5 -39t-7.5 -39t-6.5 -26.5q-4 -10 -9 -30.5t-11 -42t-12.5 -42t-10.5 -28.5q-10 -25 -26.5 -58.5 t-57.5 -89.5q-6 -10 -23.5 -29.5t-36.5 -39t-38.5 -36.5t-30.5 -24q-14 -10 -29.5 -15t-31.5 -13q-10 -6 -18.5 -12.5t-18.5 -10.5q-2 -2 -18.5 -9t-37 -14t-38 -14.5t-19.5 -7.5q-14 -4 -28.5 -5t-30.5 -5q-10 -2 -18.5 -4t-16.5 -4q-37 -6 -65 -6h-24.5t-34 1t-34 2 t-22.5 1q-18 2 -45 10q-14 2 -27.5 4t-27.5 6q-23 4 -39 12q-20 10 -27.5 13.5t-30.5 9.5q-14 4 -26.5 9t-24.5 14q-14 10 -26.5 20t-26.5 20q-31 23 -51.5 37.5t-35.5 28.5t-30.5 33.5t-38.5 50.5q-12 16 -20 26.5t-14.5 19.5t-12.5 20.5t-14 29.5q-6 14 -14.5 26.5 t-14.5 24.5q-6 14 -12 35t-10 41.5t-7.5 38l-5.5 27.5q-2 16 -4 46t-4 61.5t-3 59.5t-1 44zM381 737q0 -4 1 -16t1 -25.5t1 -25.5l1 -13q2 -18 8 -36.5t10 -36.5q6 -25 11.5 -41.5t9.5 -26.5t8 -20.5t12 -22.5q12 -23 32 -44t38 -38.5t32.5 -28t18.5 -12.5q8 -4 17.5 -4 t19.5 -4q6 -2 11 -4t12 -4q12 -4 20 -6q20 -4 27.5 -5t29.5 -1q4 0 18.5 -1.5t18.5 -1.5h27t33 3q12 2 30.5 10t37 19t33.5 20.5t22 15.5q16 12 32.5 30.5t29.5 35t22.5 30t11.5 17.5q4 6 9 27.5t24 88.5q6 29 8 46.5t2 31.5q0 16 -1 32.5t-1 33.5v26v17.5t-2 17.5 q0 2 -6.5 18.5t-13.5 37t-15 39t-14 28.5q-10 16 -22.5 27.5t-22.5 25.5q-10 12 -20.5 25.5t-22.5 24.5q-6 6 -23.5 14t-36 16t-34 15.5t-17.5 7.5q-6 2 -22.5 4t-33 3t-31.5 1h-20h-27t-24 -4q-20 -4 -31.5 -7t-19.5 -7.5t-15 -8.5t-20 -12q-23 -14 -36 -22.5t-22 -15.5 t-16.5 -14t-15.5 -20q-16 -16 -36.5 -50t-26.5 -48q-10 -18 -12.5 -39.5t-6.5 -44.5q-4 -16 -7 -32.5t-5 -32.5v-13v0zM784 1788q0 20 13.5 30.5t27.5 12.5q6 0 26.5 -2t27.5 -2h92q8 0 33.5 -1t33.5 -1q4 0 20.5 1t22.5 1q14 0 20.5 -3t10.5 -5q4 -6 10 -11q4 -4 7.5 -7 t5.5 -7v-108q0 -8 -2.5 -34t-2.5 -36q0 -4 1.5 -14.5t1.5 -14.5q0 -33 -12.5 -43t-28.5 -10q-10 0 -18.5 2t-16.5 2q-4 0 -15.5 -2t-15.5 -2t-6 1t-6 1h-36t-51.5 1t-52 1h-38.5q-29 0 -37 8t-11 25v57q0 8 -2 37t-2 39q0 4 2 23.5t2 25.5q0 4 -2 17.5t-2 17.5zM680 1632 q0 -10 -1 -26.5t-1 -26.5q0 -8 -3 -18.5t-16 -18.5q-8 -4 -19 -5t-52 1h-14q-13 0 -28.5 -1t-28.5 -1h-15q-8 0 -37 1t-39 1q-6 0 -28.5 -3t-28.5 -3q-8 0 -23.5 8t-15.5 35v137q0 4 -1 25.5t-1 27.5q0 20 8 32.5t19.5 20t20.5 9.5t11 2q4 0 20.5 -2t20.5 -2q6 0 30.5 2 t30.5 2h35q4 0 19.5 -2t19.5 -2q6 0 13.5 1t13.5 1q10 2 53 2q27 0 31 -16.5t4 -53.5q0 -4 1 -21.5t1 -21.5t-1 -19.5t-1 -19.5q0 -10 1 -21t1 -22v-2z" />
</font>
</defs>
</svg>
